<?xml version="1.0" encoding="utf-8"?>
<svg viewBox="0 0 286 25.6" xmlns="http://www.w3.org/2000/svg">
  <path d="M 43.688 22.812 C 43.635 22.712 43.558 22.529 43.458 22.262 C 43.358 21.995 43.251 21.712 43.138 21.412 C 43.018 21.112 42.905 20.829 42.798 20.562 C 42.691 20.295 42.611 20.112 42.558 20.012 C 42.525 19.945 42.495 19.879 42.468 19.812 C 42.448 19.745 42.405 19.695 42.338 19.662 C 41.965 20.015 41.558 20.382 41.118 20.762 C 40.678 21.149 40.211 21.495 39.718 21.802 C 39.231 22.109 38.721 22.359 38.188 22.552 C 37.655 22.745 37.121 22.842 36.588 22.842 C 36.001 22.842 35.541 22.639 35.208 22.232 C 34.875 21.819 34.618 21.325 34.438 20.752 C 34.251 20.179 34.135 19.592 34.088 18.992 C 34.035 18.392 34.008 17.899 34.008 17.512 C 34.008 16.745 34.135 16.052 34.388 15.432 C 34.635 14.805 34.988 14.272 35.448 13.832 C 35.908 13.385 36.455 13.045 37.088 12.812 C 37.721 12.579 38.428 12.462 39.208 12.462 C 39.761 12.462 40.245 12.592 40.658 12.852 C 41.078 13.112 41.431 13.445 41.718 13.852 C 42.011 14.259 42.255 14.705 42.448 15.192 C 42.641 15.672 42.805 16.139 42.938 16.592 C 43.085 16.505 43.261 16.309 43.468 16.002 C 43.681 15.695 43.898 15.355 44.118 14.982 C 44.345 14.602 44.561 14.225 44.768 13.852 C 44.981 13.479 45.145 13.175 45.258 12.942 C 45.311 12.855 45.425 12.642 45.598 12.302 C 45.771 11.962 45.961 11.592 46.168 11.192 C 46.381 10.792 46.575 10.415 46.748 10.062 C 46.921 9.715 47.035 9.499 47.088 9.412 C 47.101 9.379 47.141 9.319 47.208 9.232 C 47.275 9.139 47.318 9.075 47.338 9.042 C 47.318 9.042 47.308 9.032 47.308 9.012 L 47.308 8.962 L 47.308 8.892 C 46.541 8.892 45.805 8.832 45.098 8.712 C 44.391 8.599 43.771 8.382 43.238 8.062 C 42.705 7.749 42.275 7.315 41.948 6.762 C 41.621 6.215 41.458 5.492 41.458 4.592 C 41.458 4.539 41.461 4.412 41.468 4.212 C 41.481 4.012 41.488 3.879 41.488 3.812 C 41.535 3.645 41.625 3.509 41.758 3.402 C 41.891 3.295 42.041 3.225 42.208 3.192 C 42.361 3.159 42.475 3.242 42.548 3.442 C 42.621 3.642 42.688 3.909 42.748 4.242 C 42.808 4.575 42.881 4.932 42.968 5.312 C 43.061 5.699 43.221 6.062 43.448 6.402 C 43.675 6.742 43.975 7.039 44.348 7.292 C 44.721 7.539 45.225 7.682 45.858 7.722 C 45.891 7.722 46.005 7.725 46.198 7.732 C 46.391 7.739 46.555 7.742 46.688 7.742 C 46.768 7.742 46.888 7.742 47.048 7.742 C 47.208 7.742 47.365 7.739 47.518 7.732 C 47.678 7.725 47.828 7.699 47.968 7.652 C 48.115 7.612 48.221 7.552 48.288 7.472 C 48.388 7.352 48.558 7.145 48.798 6.852 C 49.038 6.559 49.285 6.255 49.538 5.942 C 49.785 5.629 50.025 5.325 50.258 5.032 C 50.491 4.739 50.658 4.532 50.758 4.412 C 51.045 4.132 51.361 3.849 51.708 3.562 C 52.061 3.282 52.428 3.032 52.808 2.812 C 53.195 2.599 53.595 2.425 54.008 2.292 C 54.428 2.159 54.855 2.092 55.288 2.092 C 55.588 2.092 55.841 2.149 56.048 2.262 C 56.255 2.382 56.418 2.539 56.538 2.732 C 56.651 2.919 56.728 3.135 56.768 3.382 C 56.815 3.622 56.838 3.865 56.838 4.112 C 56.838 4.599 56.715 5.025 56.468 5.392 C 56.228 5.759 55.918 6.082 55.538 6.362 C 55.151 6.649 54.738 6.892 54.298 7.092 C 53.858 7.292 53.438 7.459 53.038 7.592 C 52.905 7.639 52.661 7.712 52.308 7.812 C 51.961 7.919 51.581 8.032 51.168 8.152 C 50.761 8.279 50.378 8.392 50.018 8.492 C 49.665 8.592 49.411 8.649 49.258 8.662 C 49.145 8.782 49.015 8.925 48.868 9.092 C 48.728 9.259 48.625 9.409 48.558 9.542 L 45.488 15.162 C 45.468 15.162 45.445 15.175 45.418 15.202 C 45.398 15.229 45.378 15.249 45.358 15.262 C 45.358 15.302 45.335 15.365 45.288 15.452 C 45.235 15.545 45.185 15.645 45.138 15.752 C 45.085 15.859 45.035 15.962 44.988 16.062 C 44.935 16.162 44.908 16.222 44.908 16.242 C 44.861 16.309 44.775 16.439 44.648 16.632 C 44.521 16.819 44.385 17.019 44.238 17.232 C 44.085 17.439 43.945 17.632 43.818 17.812 C 43.698 17.999 43.611 18.125 43.558 18.192 L 43.558 18.262 L 43.558 18.312 C 43.678 18.745 43.781 19.119 43.868 19.432 C 43.961 19.739 44.055 20.032 44.148 20.312 C 44.241 20.599 44.355 20.899 44.488 21.212 C 44.621 21.532 44.795 21.909 45.008 22.342 C 45.075 22.455 45.168 22.562 45.288 22.662 C 45.401 22.762 45.521 22.865 45.648 22.972 C 45.775 23.065 45.881 23.169 45.968 23.282 C 46.061 23.389 46.108 23.499 46.108 23.612 C 46.108 23.919 45.958 24.072 45.658 24.072 C 45.225 24.072 44.841 23.945 44.508 23.692 C 44.175 23.439 43.901 23.145 43.688 22.812 Z M 35.258 17.262 C 35.258 17.462 35.275 17.792 35.308 18.252 C 35.341 18.712 35.411 19.179 35.518 19.652 C 35.631 20.125 35.798 20.545 36.018 20.912 C 36.245 21.279 36.551 21.462 36.938 21.462 C 37.385 21.462 37.788 21.362 38.148 21.162 C 38.508 20.962 38.888 20.779 39.288 20.612 L 41.858 18.192 L 41.858 18.092 C 41.858 17.792 41.788 17.399 41.648 16.912 C 41.508 16.432 41.311 15.959 41.058 15.492 C 40.811 15.025 40.521 14.629 40.188 14.302 C 39.855 13.975 39.495 13.812 39.108 13.812 C 38.561 13.812 38.048 13.879 37.568 14.012 C 37.095 14.145 36.691 14.355 36.358 14.642 C 36.025 14.929 35.758 15.285 35.558 15.712 C 35.358 16.145 35.258 16.662 35.258 17.262 Z M 55.058 3.442 C 54.658 3.442 54.258 3.525 53.858 3.692 C 53.458 3.859 53.075 4.075 52.708 4.342 C 52.341 4.609 52.001 4.902 51.688 5.222 C 51.368 5.535 51.091 5.832 50.858 6.112 C 50.791 6.185 50.711 6.285 50.618 6.412 C 50.531 6.545 50.441 6.669 50.348 6.782 C 50.255 6.889 50.175 6.989 50.108 7.082 C 50.041 7.175 50.008 7.222 50.008 7.222 L 50.008 7.342 L 50.108 7.342 C 50.121 7.342 50.238 7.309 50.458 7.242 C 50.678 7.175 50.931 7.095 51.218 7.002 C 51.511 6.909 51.808 6.819 52.108 6.732 C 52.408 6.639 52.641 6.559 52.808 6.492 C 53.061 6.405 53.348 6.292 53.668 6.152 C 53.995 6.012 54.305 5.842 54.598 5.642 C 54.891 5.442 55.138 5.219 55.338 4.972 C 55.538 4.719 55.638 4.432 55.638 4.112 C 55.638 3.845 55.598 3.669 55.518 3.582 C 55.445 3.489 55.291 3.442 55.058 3.442 ZM 51.03 21.012 L 51.38 18.792 C 51.4 18.705 51.45 18.555 51.53 18.342 C 51.617 18.122 51.704 17.889 51.79 17.642 C 51.884 17.389 51.974 17.155 52.06 16.942 C 52.14 16.722 52.197 16.572 52.23 16.492 C 52.33 16.225 52.427 16.049 52.52 15.962 C 52.614 15.882 52.784 15.842 53.03 15.842 C 53.297 15.842 53.474 15.932 53.56 16.112 C 53.64 16.299 53.68 16.515 53.68 16.762 C 53.68 17.195 53.617 17.592 53.49 17.952 C 53.37 18.312 53.234 18.672 53.08 19.032 C 52.927 19.385 52.79 19.769 52.67 20.182 C 52.544 20.589 52.48 21.059 52.48 21.592 C 52.48 21.659 52.48 21.755 52.48 21.882 C 52.48 22.002 52.49 22.125 52.51 22.252 C 52.524 22.379 52.557 22.489 52.61 22.582 C 52.657 22.669 52.724 22.712 52.81 22.712 C 53.244 22.712 53.68 22.625 54.12 22.452 C 54.56 22.279 54.994 22.072 55.42 21.832 C 55.847 21.585 56.254 21.319 56.64 21.032 C 57.034 20.739 57.39 20.482 57.71 20.262 C 57.824 20.182 57.91 20.099 57.97 20.012 C 58.03 19.932 58.084 19.855 58.13 19.782 C 58.184 19.702 58.247 19.635 58.32 19.582 C 58.394 19.522 58.514 19.492 58.68 19.492 C 58.9 19.492 59.08 19.539 59.22 19.632 C 59.36 19.719 59.43 19.879 59.43 20.112 C 59.43 20.212 59.427 20.305 59.42 20.392 C 59.414 20.472 59.367 20.545 59.28 20.612 C 59.267 20.665 59.204 20.732 59.09 20.812 C 58.984 20.899 58.874 20.989 58.76 21.082 C 58.64 21.169 58.53 21.252 58.43 21.332 C 58.33 21.405 58.257 21.449 58.21 21.462 C 58.19 21.462 58.144 21.485 58.07 21.532 C 57.997 21.572 57.95 21.592 57.93 21.592 C 57.917 21.605 57.897 21.625 57.87 21.652 C 57.844 21.679 57.83 21.699 57.83 21.712 C 57.484 21.979 57.104 22.252 56.69 22.532 C 56.284 22.805 55.857 23.055 55.41 23.282 C 54.957 23.502 54.494 23.689 54.02 23.842 C 53.547 23.995 53.077 24.072 52.61 24.072 C 52.21 24.072 51.904 23.965 51.69 23.752 C 51.484 23.545 51.33 23.285 51.23 22.972 C 51.13 22.652 51.074 22.315 51.06 21.962 C 51.04 21.615 51.03 21.299 51.03 21.012 Z M 52.58 12.212 C 52.58 11.912 52.64 11.712 52.76 11.612 C 52.874 11.512 53.08 11.462 53.38 11.462 C 53.534 11.462 53.684 11.492 53.83 11.552 C 53.984 11.612 54.06 11.749 54.06 11.962 C 54.06 12.182 53.954 12.382 53.74 12.562 C 53.534 12.749 53.33 12.842 53.13 12.842 C 52.93 12.842 52.79 12.779 52.71 12.652 C 52.624 12.525 52.58 12.379 52.58 12.212 ZM 60.034 21.242 L 60.304 19.512 C 60.304 19.512 60.317 19.502 60.344 19.482 C 60.371 19.455 60.391 19.432 60.404 19.412 C 60.437 19.265 60.504 19.009 60.604 18.642 C 60.704 18.275 60.814 17.879 60.934 17.452 C 61.047 17.025 61.157 16.629 61.264 16.262 C 61.377 15.895 61.457 15.645 61.504 15.512 C 61.524 15.445 61.577 15.302 61.664 15.082 C 61.757 14.855 61.864 14.609 61.984 14.342 C 62.097 14.075 62.214 13.809 62.334 13.542 C 62.447 13.275 62.531 13.075 62.584 12.942 C 62.697 12.709 62.874 12.399 63.114 12.012 C 63.361 11.632 63.637 11.272 63.944 10.932 C 64.251 10.585 64.571 10.285 64.904 10.032 C 65.237 9.772 65.547 9.642 65.834 9.642 C 65.981 9.642 66.101 9.682 66.194 9.762 C 66.287 9.849 66.354 9.945 66.394 10.052 C 66.434 10.159 66.464 10.279 66.484 10.412 C 66.497 10.545 66.504 10.662 66.504 10.762 C 66.504 11.629 66.384 12.492 66.144 13.352 C 65.904 14.212 65.574 15.035 65.154 15.822 C 64.741 16.602 64.244 17.339 63.664 18.032 C 63.091 18.719 62.487 19.339 61.854 19.892 C 61.841 19.939 61.821 20.039 61.794 20.192 C 61.767 20.339 61.747 20.445 61.734 20.512 L 61.734 20.562 C 61.734 20.895 61.821 21.162 61.994 21.362 C 62.167 21.562 62.381 21.709 62.634 21.802 C 62.881 21.895 63.157 21.959 63.464 21.992 C 63.771 22.025 64.067 22.042 64.354 22.042 C 64.507 22.042 64.727 21.965 65.014 21.812 C 65.307 21.665 65.607 21.495 65.914 21.302 C 66.227 21.109 66.534 20.939 66.834 20.792 C 67.134 20.639 67.357 20.562 67.504 20.562 C 67.657 20.562 67.774 20.612 67.854 20.712 C 67.934 20.812 67.974 20.939 67.974 21.092 C 67.974 21.339 67.784 21.605 67.404 21.892 C 67.024 22.172 66.584 22.435 66.084 22.682 C 65.584 22.922 65.104 23.125 64.644 23.292 C 64.184 23.459 63.881 23.542 63.734 23.542 C 63.234 23.642 62.767 23.645 62.334 23.552 C 61.901 23.459 61.524 23.302 61.204 23.082 C 60.891 22.855 60.627 22.579 60.414 22.252 C 60.207 21.932 60.081 21.595 60.034 21.242 Z M 65.034 12.342 L 65.034 12.062 C 64.881 12.062 64.707 12.185 64.514 12.432 C 64.327 12.672 64.141 12.949 63.954 13.262 C 63.774 13.582 63.611 13.889 63.464 14.182 C 63.324 14.469 63.247 14.662 63.234 14.762 C 63.181 14.882 63.104 15.075 63.004 15.342 C 62.904 15.609 62.804 15.889 62.704 16.182 C 62.604 16.469 62.507 16.745 62.414 17.012 C 62.327 17.279 62.267 17.472 62.234 17.592 L 62.354 17.592 C 62.354 17.592 62.404 17.529 62.504 17.402 C 62.604 17.275 62.717 17.129 62.844 16.962 C 62.971 16.795 63.104 16.625 63.244 16.452 C 63.384 16.279 63.487 16.132 63.554 16.012 C 63.621 15.912 63.714 15.759 63.834 15.552 C 63.947 15.345 64.021 15.215 64.054 15.162 C 64.121 14.982 64.214 14.739 64.334 14.432 C 64.447 14.119 64.554 13.812 64.654 13.512 C 64.754 13.212 64.841 12.952 64.914 12.732 C 64.994 12.505 65.034 12.375 65.034 12.342 ZM 67.303 21.012 L 67.653 18.792 C 67.673 18.705 67.723 18.555 67.803 18.342 C 67.89 18.122 67.976 17.889 68.063 17.642 C 68.156 17.389 68.246 17.155 68.333 16.942 C 68.413 16.722 68.47 16.572 68.503 16.492 C 68.603 16.225 68.7 16.049 68.793 15.962 C 68.886 15.882 69.056 15.842 69.303 15.842 C 69.57 15.842 69.746 15.932 69.833 16.112 C 69.913 16.299 69.953 16.515 69.953 16.762 C 69.953 17.195 69.89 17.592 69.763 17.952 C 69.643 18.312 69.506 18.672 69.353 19.032 C 69.2 19.385 69.063 19.769 68.943 20.182 C 68.816 20.589 68.753 21.059 68.753 21.592 C 68.753 21.659 68.753 21.755 68.753 21.882 C 68.753 22.002 68.763 22.125 68.783 22.252 C 68.796 22.379 68.83 22.489 68.883 22.582 C 68.93 22.669 68.996 22.712 69.083 22.712 C 69.516 22.712 69.953 22.625 70.393 22.452 C 70.833 22.279 71.266 22.072 71.693 21.832 C 72.12 21.585 72.526 21.319 72.913 21.032 C 73.306 20.739 73.663 20.482 73.983 20.262 C 74.096 20.182 74.183 20.099 74.243 20.012 C 74.303 19.932 74.356 19.855 74.403 19.782 C 74.456 19.702 74.52 19.635 74.593 19.582 C 74.666 19.522 74.786 19.492 74.953 19.492 C 75.173 19.492 75.353 19.539 75.493 19.632 C 75.633 19.719 75.703 19.879 75.703 20.112 C 75.703 20.212 75.7 20.305 75.693 20.392 C 75.686 20.472 75.64 20.545 75.553 20.612 C 75.54 20.665 75.476 20.732 75.363 20.812 C 75.256 20.899 75.146 20.989 75.033 21.082 C 74.913 21.169 74.803 21.252 74.703 21.332 C 74.603 21.405 74.53 21.449 74.483 21.462 C 74.463 21.462 74.416 21.485 74.343 21.532 C 74.27 21.572 74.223 21.592 74.203 21.592 C 74.19 21.605 74.17 21.625 74.143 21.652 C 74.116 21.679 74.103 21.699 74.103 21.712 C 73.756 21.979 73.376 22.252 72.963 22.532 C 72.556 22.805 72.13 23.055 71.683 23.282 C 71.23 23.502 70.766 23.689 70.293 23.842 C 69.82 23.995 69.35 24.072 68.883 24.072 C 68.483 24.072 68.176 23.965 67.963 23.752 C 67.756 23.545 67.603 23.285 67.503 22.972 C 67.403 22.652 67.346 22.315 67.333 21.962 C 67.313 21.615 67.303 21.299 67.303 21.012 Z M 68.853 12.212 C 68.853 11.912 68.913 11.712 69.033 11.612 C 69.146 11.512 69.353 11.462 69.653 11.462 C 69.806 11.462 69.956 11.492 70.103 11.552 C 70.256 11.612 70.333 11.749 70.333 11.962 C 70.333 12.182 70.226 12.382 70.013 12.562 C 69.806 12.749 69.603 12.842 69.403 12.842 C 69.203 12.842 69.063 12.779 68.983 12.652 C 68.896 12.525 68.853 12.379 68.853 12.212 ZM 76.577 23.292 C 76.577 23.239 76.577 23.112 76.577 22.912 C 76.577 22.712 76.577 22.579 76.577 22.512 C 76.297 21.512 76.26 20.529 76.467 19.562 C 76.673 18.595 77.047 17.725 77.587 16.952 C 78.133 16.179 78.827 15.529 79.667 15.002 C 80.507 14.475 81.427 14.155 82.427 14.042 L 82.877 14.042 C 83.243 14.042 83.547 14.122 83.787 14.282 C 84.033 14.435 84.227 14.639 84.367 14.892 C 84.507 15.139 84.607 15.422 84.667 15.742 C 84.72 16.055 84.747 16.372 84.747 16.692 C 84.747 17.125 84.703 17.545 84.617 17.952 C 84.523 18.359 84.423 18.772 84.317 19.192 C 84.21 19.605 84.11 20.019 84.017 20.432 C 83.923 20.839 83.877 21.265 83.877 21.712 L 83.877 21.862 C 83.897 21.895 83.917 21.992 83.937 22.152 C 83.963 22.312 83.987 22.409 84.007 22.442 C 84.04 22.442 84.12 22.445 84.247 22.452 C 84.387 22.459 84.47 22.462 84.497 22.462 C 84.663 22.462 84.827 22.459 84.987 22.452 C 85.147 22.445 85.31 22.409 85.477 22.342 L 90.227 20.142 C 90.247 20.142 90.277 20.139 90.317 20.132 C 90.357 20.119 90.387 20.112 90.407 20.112 C 90.573 20.112 90.71 20.162 90.817 20.262 C 90.923 20.362 90.977 20.495 90.977 20.662 C 90.977 20.749 90.973 20.829 90.967 20.902 C 90.96 20.975 90.913 21.045 90.827 21.112 C 90.713 21.199 90.5 21.315 90.187 21.462 C 89.88 21.615 89.553 21.782 89.207 21.962 C 88.853 22.149 88.523 22.325 88.217 22.492 C 87.91 22.659 87.69 22.765 87.557 22.812 C 87.323 22.945 87.063 23.069 86.777 23.182 C 86.497 23.289 86.207 23.392 85.907 23.492 C 85.607 23.592 85.31 23.672 85.017 23.732 C 84.723 23.785 84.46 23.812 84.227 23.812 C 83.86 23.812 83.56 23.752 83.327 23.632 C 83.093 23.505 82.92 23.339 82.807 23.132 C 82.687 22.919 82.607 22.669 82.567 22.382 C 82.527 22.089 82.523 21.782 82.557 21.462 C 82.223 21.729 81.863 22.012 81.477 22.312 C 81.097 22.612 80.697 22.889 80.277 23.142 C 79.863 23.389 79.44 23.605 79.007 23.792 C 78.573 23.979 78.13 24.072 77.677 24.072 C 77.43 24.072 77.207 24.009 77.007 23.882 C 76.807 23.755 76.663 23.559 76.577 23.292 Z M 77.927 22.092 L 77.927 22.762 C 78.313 22.762 78.74 22.652 79.207 22.432 C 79.673 22.205 80.13 21.925 80.577 21.592 C 81.03 21.259 81.44 20.905 81.807 20.532 C 82.173 20.152 82.457 19.812 82.657 19.512 C 82.67 19.012 82.74 18.535 82.867 18.082 C 82.993 17.622 83.057 17.149 83.057 16.662 C 83.057 16.629 83.05 16.579 83.037 16.512 C 83.03 16.445 83.027 16.395 83.027 16.362 C 82.813 16.182 82.63 16.075 82.477 16.042 C 82.33 16.009 82.13 15.992 81.877 15.992 C 81.843 15.992 81.773 15.992 81.667 15.992 C 81.56 15.992 81.49 15.999 81.457 16.012 C 81.357 16.099 81.19 16.255 80.957 16.482 C 80.723 16.702 80.477 16.945 80.217 17.212 C 79.957 17.479 79.713 17.729 79.487 17.962 C 79.267 18.195 79.113 18.355 79.027 18.442 C 79.013 18.442 78.98 18.472 78.927 18.532 C 78.88 18.585 78.827 18.655 78.767 18.742 C 78.707 18.822 78.657 18.902 78.617 18.982 C 78.577 19.055 78.547 19.115 78.527 19.162 L 77.927 22.092 ZM 89.88 23.612 L 89.88 23.542 L 90.72 18.542 L 90.72 17.842 L 91.23 14.512 C 91.276 14.445 91.366 14.409 91.5 14.402 C 91.633 14.395 91.726 14.392 91.78 14.392 C 91.913 14.392 92.066 14.439 92.24 14.532 C 92.413 14.619 92.5 14.739 92.5 14.892 L 92.5 16.592 C 92.566 16.539 92.683 16.439 92.85 16.292 C 93.016 16.139 93.196 15.982 93.39 15.822 C 93.583 15.655 93.763 15.495 93.93 15.342 C 94.096 15.189 94.203 15.079 94.25 15.012 C 94.436 14.845 94.656 14.705 94.91 14.592 C 95.17 14.472 95.416 14.412 95.65 14.412 C 96.136 14.412 96.516 14.562 96.79 14.862 C 97.063 15.169 97.2 15.552 97.2 16.012 C 97.2 16.045 97.196 16.069 97.19 16.082 C 97.183 16.089 97.18 16.109 97.18 16.142 L 97.18 16.242 L 96.23 20.512 L 96.23 22.542 C 96.743 22.542 97.28 22.439 97.84 22.232 C 98.4 22.019 98.936 21.755 99.45 21.442 C 99.97 21.122 100.453 20.759 100.9 20.352 C 101.353 19.945 101.746 19.549 102.08 19.162 L 102.18 19.162 C 102.293 19.162 102.386 19.202 102.46 19.282 C 102.54 19.355 102.58 19.449 102.58 19.562 C 102.58 19.929 102.456 20.292 102.21 20.652 C 101.97 21.012 101.663 21.349 101.29 21.662 C 100.916 21.982 100.483 22.282 99.99 22.562 C 99.496 22.849 99.013 23.092 98.54 23.292 C 98.066 23.492 97.603 23.649 97.15 23.762 C 96.703 23.882 96.32 23.942 96 23.942 C 95.686 23.942 95.436 23.882 95.25 23.762 C 95.07 23.649 94.933 23.495 94.84 23.302 C 94.746 23.109 94.686 22.895 94.66 22.662 C 94.64 22.429 94.63 22.179 94.63 21.912 L 94.63 21.592 L 95.6 16.742 L 95.6 15.912 C 95.2 15.912 94.803 16.089 94.41 16.442 C 94.016 16.789 93.666 17.212 93.36 17.712 C 93.053 18.212 92.786 18.722 92.56 19.242 C 92.34 19.755 92.18 20.179 92.08 20.512 C 92.046 20.632 91.993 20.842 91.92 21.142 C 91.86 21.442 91.8 21.759 91.74 22.092 C 91.68 22.425 91.626 22.742 91.58 23.042 C 91.526 23.342 91.493 23.559 91.48 23.692 C 91.493 23.792 91.463 23.865 91.39 23.912 C 91.316 23.965 91.23 24.005 91.13 24.032 C 91.03 24.059 90.923 24.072 90.81 24.072 C 90.703 24.072 90.616 24.072 90.55 24.072 C 90.403 24.072 90.253 24.045 90.1 23.992 C 89.953 23.939 89.88 23.812 89.88 23.612 ZM 113.196 23.062 L 116.696 8.912 L 116.846 8.662 L 117.446 5.892 C 117.5 5.692 117.586 5.575 117.706 5.542 C 117.833 5.509 117.963 5.492 118.096 5.492 C 118.43 5.492 118.63 5.569 118.696 5.722 C 118.763 5.869 118.796 6.099 118.796 6.412 C 118.796 6.479 118.793 6.569 118.786 6.682 C 118.78 6.789 118.776 6.842 118.776 6.842 L 116.696 14.762 L 116.696 14.992 C 116.696 15.092 116.716 15.175 116.756 15.242 C 116.803 15.309 116.91 15.315 117.076 15.262 C 117.523 15.249 118.01 15.229 118.536 15.202 C 119.063 15.175 119.61 15.125 120.176 15.052 C 120.743 14.979 121.293 14.862 121.826 14.702 C 122.36 14.542 122.833 14.325 123.246 14.052 C 123.666 13.779 124.003 13.429 124.256 13.002 C 124.516 12.575 124.646 12.055 124.646 11.442 C 124.646 10.655 124.433 9.872 124.006 9.092 C 123.586 8.305 123.05 7.589 122.396 6.942 C 121.743 6.295 121.02 5.769 120.226 5.362 C 119.426 4.962 118.643 4.762 117.876 4.762 C 117.49 4.762 117.15 4.842 116.856 5.002 C 116.57 5.162 116.31 5.329 116.076 5.502 C 115.843 5.675 115.616 5.842 115.396 6.002 C 115.183 6.162 114.976 6.242 114.776 6.242 C 114.443 6.242 114.276 6.075 114.276 5.742 C 114.276 5.729 114.28 5.712 114.286 5.692 C 114.293 5.672 114.296 5.655 114.296 5.642 C 114.43 5.289 114.623 4.979 114.876 4.712 C 115.123 4.445 115.4 4.212 115.706 4.012 C 116.02 3.812 116.353 3.669 116.706 3.582 C 117.066 3.489 117.423 3.442 117.776 3.442 C 118.043 3.442 118.296 3.442 118.536 3.442 C 118.776 3.442 119.03 3.482 119.296 3.562 C 120.116 3.929 120.93 4.359 121.736 4.852 C 122.543 5.345 123.273 5.912 123.926 6.552 C 124.573 7.192 125.096 7.925 125.496 8.752 C 125.896 9.579 126.096 10.482 126.096 11.462 C 126.096 12.249 125.94 12.912 125.626 13.452 C 125.306 13.992 124.88 14.449 124.346 14.822 C 123.813 15.182 123.21 15.462 122.536 15.662 C 121.863 15.862 121.166 16.009 120.446 16.102 C 119.733 16.195 119.03 16.245 118.336 16.252 C 117.643 16.259 117.023 16.255 116.476 16.242 L 116.376 16.362 L 114.526 23.442 C 114.473 23.622 114.363 23.769 114.196 23.882 C 114.03 23.989 113.856 24.042 113.676 24.042 C 113.556 24.042 113.463 23.999 113.396 23.912 C 113.33 23.832 113.28 23.742 113.246 23.642 C 113.213 23.542 113.193 23.432 113.186 23.312 C 113.18 23.199 113.183 23.115 113.196 23.062 ZM 126.749 21.862 L 126.869 20.142 C 126.903 20.042 126.956 19.862 127.029 19.602 C 127.109 19.342 127.186 19.062 127.259 18.762 C 127.333 18.462 127.399 18.175 127.459 17.902 C 127.513 17.629 127.559 17.442 127.599 17.342 C 127.699 16.942 127.819 16.509 127.959 16.042 C 128.099 15.575 128.296 15.142 128.549 14.742 C 128.796 14.342 129.116 14.012 129.509 13.752 C 129.903 13.492 130.389 13.362 130.969 13.362 C 131.189 13.362 131.343 13.442 131.429 13.602 C 131.523 13.762 131.603 13.932 131.669 14.112 C 131.669 14.179 131.673 14.302 131.679 14.482 C 131.693 14.655 131.699 14.775 131.699 14.842 C 131.699 15.555 131.626 16.189 131.479 16.742 C 131.339 17.289 131.123 17.795 130.829 18.262 C 130.543 18.729 130.189 19.169 129.769 19.582 C 129.356 19.989 128.883 20.415 128.349 20.862 C 128.329 20.915 128.303 20.999 128.269 21.112 C 128.236 21.232 128.219 21.315 128.219 21.362 L 128.219 21.412 C 128.219 21.712 128.269 21.955 128.369 22.142 C 128.469 22.322 128.606 22.469 128.779 22.582 C 128.959 22.689 129.159 22.755 129.379 22.782 C 129.606 22.802 129.853 22.812 130.119 22.812 C 130.906 22.812 131.656 22.705 132.369 22.492 C 133.089 22.272 133.749 21.922 134.349 21.442 C 134.429 21.355 134.533 21.235 134.659 21.082 C 134.786 20.922 134.916 20.759 135.049 20.592 C 135.183 20.425 135.323 20.279 135.469 20.152 C 135.616 20.025 135.773 19.962 135.939 19.962 C 136.113 19.962 136.216 20.029 136.249 20.162 C 136.283 20.295 136.299 20.429 136.299 20.562 C 136.299 20.929 136.186 21.275 135.959 21.602 C 135.733 21.929 135.439 22.222 135.079 22.482 C 134.726 22.735 134.319 22.962 133.859 23.162 C 133.399 23.362 132.946 23.529 132.499 23.662 C 132.046 23.795 131.616 23.895 131.209 23.962 C 130.803 24.035 130.456 24.072 130.169 24.072 C 129.289 24.072 128.553 23.925 127.959 23.632 C 127.366 23.339 126.963 22.749 126.749 21.862 Z M 130.449 15.212 C 130.116 15.512 129.853 15.785 129.659 16.032 C 129.466 16.272 129.316 16.522 129.209 16.782 C 129.103 17.035 129.009 17.312 128.929 17.612 C 128.856 17.912 128.779 18.262 128.699 18.662 C 129.013 18.415 129.273 18.165 129.479 17.912 C 129.693 17.665 129.866 17.409 129.999 17.142 C 130.133 16.875 130.233 16.589 130.299 16.282 C 130.366 15.975 130.416 15.619 130.449 15.212 ZM 135.948 23.612 L 135.948 23.542 L 136.788 18.542 L 136.788 17.842 L 137.298 14.512 C 137.345 14.445 137.435 14.409 137.568 14.402 C 137.701 14.395 137.795 14.392 137.848 14.392 C 137.981 14.392 138.135 14.439 138.308 14.532 C 138.481 14.619 138.568 14.739 138.568 14.892 L 138.568 16.592 C 138.635 16.539 138.751 16.439 138.918 16.292 C 139.085 16.139 139.265 15.982 139.458 15.822 C 139.651 15.655 139.831 15.495 139.998 15.342 C 140.165 15.189 140.271 15.079 140.318 15.012 C 140.505 14.845 140.725 14.705 140.978 14.592 C 141.238 14.472 141.485 14.412 141.718 14.412 C 142.205 14.412 142.585 14.562 142.858 14.862 C 143.131 15.169 143.268 15.552 143.268 16.012 C 143.268 16.045 143.265 16.069 143.258 16.082 C 143.251 16.089 143.248 16.109 143.248 16.142 L 143.248 16.242 L 142.298 20.512 L 142.298 22.542 C 142.811 22.542 143.348 22.439 143.908 22.232 C 144.468 22.019 145.005 21.755 145.518 21.442 C 146.038 21.122 146.521 20.759 146.968 20.352 C 147.421 19.945 147.815 19.549 148.148 19.162 L 148.248 19.162 C 148.361 19.162 148.455 19.202 148.528 19.282 C 148.608 19.355 148.648 19.449 148.648 19.562 C 148.648 19.929 148.525 20.292 148.278 20.652 C 148.038 21.012 147.731 21.349 147.358 21.662 C 146.985 21.982 146.551 22.282 146.058 22.562 C 145.565 22.849 145.081 23.092 144.608 23.292 C 144.135 23.492 143.671 23.649 143.218 23.762 C 142.771 23.882 142.388 23.942 142.068 23.942 C 141.755 23.942 141.505 23.882 141.318 23.762 C 141.138 23.649 141.001 23.495 140.908 23.302 C 140.815 23.109 140.755 22.895 140.728 22.662 C 140.708 22.429 140.698 22.179 140.698 21.912 L 140.698 21.592 L 141.668 16.742 L 141.668 15.912 C 141.268 15.912 140.871 16.089 140.478 16.442 C 140.085 16.789 139.735 17.212 139.428 17.712 C 139.121 18.212 138.855 18.722 138.628 19.242 C 138.408 19.755 138.248 20.179 138.148 20.512 C 138.115 20.632 138.061 20.842 137.988 21.142 C 137.928 21.442 137.868 21.759 137.808 22.092 C 137.748 22.425 137.695 22.742 137.648 23.042 C 137.595 23.342 137.561 23.559 137.548 23.692 C 137.561 23.792 137.531 23.865 137.458 23.912 C 137.385 23.965 137.298 24.005 137.198 24.032 C 137.098 24.059 136.991 24.072 136.878 24.072 C 136.771 24.072 136.685 24.072 136.618 24.072 C 136.471 24.072 136.321 24.045 136.168 23.992 C 136.021 23.939 135.948 23.812 135.948 23.612 ZM 147.471 23.612 L 147.471 23.542 L 148.311 18.542 L 148.311 17.842 L 148.821 14.512 C 148.868 14.445 148.958 14.409 149.091 14.402 C 149.225 14.395 149.318 14.392 149.371 14.392 C 149.505 14.392 149.658 14.439 149.831 14.532 C 150.005 14.619 150.091 14.739 150.091 14.892 L 150.091 16.592 C 150.158 16.539 150.275 16.439 150.441 16.292 C 150.608 16.139 150.788 15.982 150.981 15.822 C 151.175 15.655 151.355 15.495 151.521 15.342 C 151.688 15.189 151.795 15.079 151.841 15.012 C 152.028 14.845 152.248 14.705 152.501 14.592 C 152.761 14.472 153.008 14.412 153.241 14.412 C 153.728 14.412 154.108 14.562 154.381 14.862 C 154.655 15.169 154.791 15.552 154.791 16.012 C 154.791 16.045 154.788 16.069 154.781 16.082 C 154.775 16.089 154.771 16.109 154.771 16.142 L 154.771 16.242 L 153.821 20.512 L 153.821 22.542 C 154.335 22.542 154.871 22.439 155.431 22.232 C 155.991 22.019 156.528 21.755 157.041 21.442 C 157.561 21.122 158.045 20.759 158.491 20.352 C 158.945 19.945 159.338 19.549 159.671 19.162 L 159.771 19.162 C 159.885 19.162 159.978 19.202 160.051 19.282 C 160.131 19.355 160.171 19.449 160.171 19.562 C 160.171 19.929 160.048 20.292 159.801 20.652 C 159.561 21.012 159.255 21.349 158.881 21.662 C 158.508 21.982 158.075 22.282 157.581 22.562 C 157.088 22.849 156.605 23.092 156.131 23.292 C 155.658 23.492 155.195 23.649 154.741 23.762 C 154.295 23.882 153.911 23.942 153.591 23.942 C 153.278 23.942 153.028 23.882 152.841 23.762 C 152.661 23.649 152.525 23.495 152.431 23.302 C 152.338 23.109 152.278 22.895 152.251 22.662 C 152.231 22.429 152.221 22.179 152.221 21.912 L 152.221 21.592 L 153.191 16.742 L 153.191 15.912 C 152.791 15.912 152.395 16.089 152.001 16.442 C 151.608 16.789 151.258 17.212 150.951 17.712 C 150.645 18.212 150.378 18.722 150.151 19.242 C 149.931 19.755 149.771 20.179 149.671 20.512 C 149.638 20.632 149.585 20.842 149.511 21.142 C 149.451 21.442 149.391 21.759 149.331 22.092 C 149.271 22.425 149.218 22.742 149.171 23.042 C 149.118 23.342 149.085 23.559 149.071 23.692 C 149.085 23.792 149.055 23.865 148.981 23.912 C 148.908 23.965 148.821 24.005 148.721 24.032 C 148.621 24.059 148.515 24.072 148.401 24.072 C 148.295 24.072 148.208 24.072 148.141 24.072 C 147.995 24.072 147.845 24.045 147.691 23.992 C 147.545 23.939 147.471 23.812 147.471 23.612 ZM 158.965 21.012 L 159.315 18.792 C 159.335 18.705 159.385 18.555 159.465 18.342 C 159.551 18.122 159.638 17.889 159.725 17.642 C 159.818 17.389 159.908 17.155 159.995 16.942 C 160.075 16.722 160.131 16.572 160.165 16.492 C 160.265 16.225 160.361 16.049 160.455 15.962 C 160.548 15.882 160.718 15.842 160.965 15.842 C 161.231 15.842 161.408 15.932 161.495 16.112 C 161.575 16.299 161.615 16.515 161.615 16.762 C 161.615 17.195 161.551 17.592 161.425 17.952 C 161.305 18.312 161.168 18.672 161.015 19.032 C 160.861 19.385 160.725 19.769 160.605 20.182 C 160.478 20.589 160.415 21.059 160.415 21.592 C 160.415 21.659 160.415 21.755 160.415 21.882 C 160.415 22.002 160.425 22.125 160.445 22.252 C 160.458 22.379 160.491 22.489 160.545 22.582 C 160.591 22.669 160.658 22.712 160.745 22.712 C 161.178 22.712 161.615 22.625 162.055 22.452 C 162.495 22.279 162.928 22.072 163.355 21.832 C 163.781 21.585 164.188 21.319 164.575 21.032 C 164.968 20.739 165.325 20.482 165.645 20.262 C 165.758 20.182 165.845 20.099 165.905 20.012 C 165.965 19.932 166.018 19.855 166.065 19.782 C 166.118 19.702 166.181 19.635 166.255 19.582 C 166.328 19.522 166.448 19.492 166.615 19.492 C 166.835 19.492 167.015 19.539 167.155 19.632 C 167.295 19.719 167.365 19.879 167.365 20.112 C 167.365 20.212 167.361 20.305 167.355 20.392 C 167.348 20.472 167.301 20.545 167.215 20.612 C 167.201 20.665 167.138 20.732 167.025 20.812 C 166.918 20.899 166.808 20.989 166.695 21.082 C 166.575 21.169 166.465 21.252 166.365 21.332 C 166.265 21.405 166.191 21.449 166.145 21.462 C 166.125 21.462 166.078 21.485 166.005 21.532 C 165.931 21.572 165.885 21.592 165.865 21.592 C 165.851 21.605 165.831 21.625 165.805 21.652 C 165.778 21.679 165.765 21.699 165.765 21.712 C 165.418 21.979 165.038 22.252 164.625 22.532 C 164.218 22.805 163.791 23.055 163.345 23.282 C 162.891 23.502 162.428 23.689 161.955 23.842 C 161.481 23.995 161.011 24.072 160.545 24.072 C 160.145 24.072 159.838 23.965 159.625 23.752 C 159.418 23.545 159.265 23.285 159.165 22.972 C 159.065 22.652 159.008 22.315 158.995 21.962 C 158.975 21.615 158.965 21.299 158.965 21.012 Z M 160.515 12.212 C 160.515 11.912 160.575 11.712 160.695 11.612 C 160.808 11.512 161.015 11.462 161.315 11.462 C 161.468 11.462 161.618 11.492 161.765 11.552 C 161.918 11.612 161.995 11.749 161.995 11.962 C 161.995 12.182 161.888 12.382 161.675 12.562 C 161.468 12.749 161.265 12.842 161.065 12.842 C 160.865 12.842 160.725 12.779 160.645 12.652 C 160.558 12.525 160.515 12.379 160.515 12.212 ZM 169.118 20.512 C 168.985 20.579 168.842 20.619 168.688 20.632 C 168.542 20.639 168.392 20.642 168.238 20.642 C 168.092 20.642 167.942 20.645 167.788 20.652 C 167.635 20.659 167.485 20.695 167.338 20.762 C 167.052 20.795 166.868 20.775 166.788 20.702 C 166.702 20.629 166.675 20.525 166.708 20.392 C 166.742 20.259 166.835 20.109 166.988 19.942 C 167.135 19.775 167.305 19.632 167.498 19.512 C 167.692 19.399 167.902 19.315 168.128 19.262 C 168.355 19.215 168.558 19.225 168.738 19.292 C 168.658 18.992 168.665 18.732 168.758 18.512 C 168.865 18.299 169.068 18.192 169.368 18.192 C 169.515 18.192 169.652 18.205 169.778 18.232 C 169.898 18.252 169.995 18.322 170.068 18.442 C 170.315 18.289 170.648 18.035 171.068 17.682 C 171.482 17.322 171.908 16.955 172.348 16.582 C 172.795 16.202 173.202 15.869 173.568 15.582 C 173.935 15.289 174.185 15.142 174.318 15.142 C 174.365 15.142 174.432 15.145 174.518 15.152 C 174.598 15.159 174.685 15.179 174.778 15.212 C 174.872 15.245 174.945 15.285 174.998 15.332 C 175.058 15.372 175.088 15.432 175.088 15.512 L 175.088 16.592 C 174.975 17.059 174.862 17.495 174.748 17.902 C 174.642 18.309 174.552 18.709 174.478 19.102 C 174.405 19.495 174.352 19.892 174.318 20.292 C 174.285 20.692 174.268 21.115 174.268 21.562 C 174.535 21.562 174.855 21.505 175.228 21.392 C 175.602 21.272 175.982 21.129 176.368 20.962 C 176.748 20.795 177.105 20.625 177.438 20.452 C 177.772 20.279 178.038 20.132 178.238 20.012 C 178.272 19.999 178.348 19.942 178.468 19.842 C 178.582 19.742 178.705 19.639 178.838 19.532 C 178.972 19.425 179.102 19.325 179.228 19.232 C 179.355 19.139 179.435 19.075 179.468 19.042 C 179.502 19.009 179.585 18.962 179.718 18.902 C 179.852 18.842 179.925 18.805 179.938 18.792 C 180.005 18.772 180.068 18.792 180.128 18.852 C 180.188 18.912 180.242 18.979 180.288 19.052 C 180.342 19.125 180.378 19.202 180.398 19.282 C 180.425 19.355 180.438 19.399 180.438 19.412 C 180.438 19.579 180.372 19.745 180.238 19.912 C 180.105 20.079 179.948 20.235 179.768 20.382 C 179.582 20.522 179.392 20.655 179.198 20.782 C 179.012 20.902 178.868 21.012 178.768 21.112 C 178.635 21.179 178.405 21.289 178.078 21.442 C 177.752 21.589 177.405 21.745 177.038 21.912 C 176.672 22.079 176.325 22.239 175.998 22.392 C 175.678 22.539 175.452 22.645 175.318 22.712 C 175.285 22.732 175.208 22.755 175.088 22.782 C 174.975 22.802 174.852 22.839 174.718 22.892 C 174.585 22.945 174.455 22.982 174.328 23.002 C 174.202 23.029 174.122 23.049 174.088 23.062 C 173.942 23.115 173.828 23.199 173.748 23.312 C 173.675 23.432 173.602 23.549 173.528 23.662 C 173.455 23.782 173.362 23.882 173.248 23.962 C 173.142 24.049 172.972 24.075 172.738 24.042 C 172.725 24.022 172.655 23.985 172.528 23.932 C 172.402 23.872 172.322 23.825 172.288 23.792 C 171.888 23.505 171.548 23.239 171.268 22.992 C 170.982 22.739 170.722 22.492 170.488 22.252 C 170.255 22.012 170.035 21.749 169.828 21.462 C 169.622 21.182 169.385 20.865 169.118 20.512 Z M 170.688 19.512 C 170.808 19.765 170.922 20.009 171.028 20.242 C 171.135 20.475 171.265 20.695 171.418 20.902 C 171.565 21.109 171.735 21.289 171.928 21.442 C 172.122 21.589 172.358 21.679 172.638 21.712 C 172.672 21.465 172.715 21.165 172.768 20.812 C 172.815 20.465 172.872 20.099 172.938 19.712 C 173.005 19.332 173.085 18.955 173.178 18.582 C 173.272 18.202 173.375 17.872 173.488 17.592 L 173.238 17.592 C 172.972 17.772 172.722 17.955 172.488 18.142 C 172.275 18.309 172.058 18.472 171.838 18.632 C 171.625 18.785 171.452 18.922 171.318 19.042 C 171.298 19.055 171.272 19.079 171.238 19.112 C 171.205 19.145 171.182 19.162 171.168 19.162 C 171.148 19.195 171.072 19.255 170.938 19.342 C 170.805 19.422 170.722 19.479 170.688 19.512 Z M 173.488 17.212 C 173.442 17.212 173.418 17.252 173.418 17.332 C 173.418 17.405 173.442 17.442 173.488 17.442 C 173.555 17.442 173.588 17.405 173.588 17.332 C 173.588 17.252 173.555 17.212 173.488 17.212 ZM 179.462 19.662 L 180.092 17.342 C 180.125 17.275 180.192 17.172 180.292 17.032 C 180.392 16.885 180.442 16.762 180.442 16.662 L 180.442 16.592 C 180.442 16.572 180.422 16.552 180.382 16.532 C 180.355 16.505 180.332 16.492 180.312 16.492 L 179.862 16.492 C 179.428 16.625 178.942 16.715 178.402 16.762 C 177.855 16.815 177.328 16.832 176.822 16.812 C 176.315 16.799 175.878 16.755 175.512 16.682 C 175.145 16.602 174.928 16.512 174.862 16.412 C 174.795 16.312 174.918 16.192 175.232 16.052 C 175.552 15.912 176.155 15.765 177.042 15.612 C 177.088 15.612 177.198 15.592 177.372 15.552 C 177.545 15.512 177.738 15.475 177.952 15.442 C 178.158 15.409 178.352 15.372 178.532 15.332 C 178.718 15.285 178.835 15.262 178.882 15.262 C 178.948 15.249 179.092 15.239 179.312 15.232 C 179.532 15.219 179.752 15.205 179.972 15.192 C 180.198 15.172 180.415 15.162 180.622 15.162 C 180.835 15.162 180.982 15.162 181.062 15.162 L 181.192 15.012 L 183.142 11.742 C 183.208 11.622 183.328 11.529 183.502 11.462 C 183.675 11.395 183.812 11.362 183.912 11.362 C 184.132 11.362 184.282 11.452 184.362 11.632 C 184.448 11.805 184.492 11.975 184.492 12.142 C 184.492 12.155 184.485 12.172 184.472 12.192 C 184.465 12.205 184.462 12.222 184.462 12.242 L 184.462 12.342 L 183.362 15.012 L 183.362 15.162 C 183.395 15.062 183.458 15.012 183.552 15.012 C 183.645 15.012 183.715 15.012 183.762 15.012 C 184.015 15.012 184.258 15.095 184.492 15.262 C 184.725 15.429 184.842 15.655 184.842 15.942 C 184.842 16.075 184.798 16.182 184.712 16.262 C 184.632 16.349 184.532 16.415 184.412 16.462 C 184.298 16.515 184.175 16.555 184.042 16.582 C 183.908 16.602 183.792 16.612 183.692 16.612 C 183.492 16.612 183.302 16.589 183.122 16.542 C 182.948 16.489 182.762 16.462 182.562 16.462 C 182.382 16.462 182.215 16.559 182.062 16.752 C 181.915 16.945 181.778 17.195 181.652 17.502 C 181.525 17.809 181.418 18.155 181.332 18.542 C 181.252 18.922 181.178 19.295 181.112 19.662 C 181.045 20.029 180.998 20.372 180.972 20.692 C 180.952 21.005 180.942 21.245 180.942 21.412 C 180.942 21.479 180.945 21.612 180.952 21.812 C 180.958 22.012 180.962 22.145 180.962 22.212 C 180.982 22.312 181.025 22.402 181.092 22.482 C 181.158 22.555 181.225 22.632 181.292 22.712 L 181.862 22.712 C 182.528 22.712 183.192 22.562 183.852 22.262 C 184.512 21.962 185.132 21.622 185.712 21.242 C 185.745 21.222 185.825 21.142 185.952 21.002 C 186.078 20.862 186.215 20.722 186.362 20.582 C 186.515 20.435 186.652 20.305 186.772 20.192 C 186.898 20.072 186.988 20.012 187.042 20.012 C 187.155 20.012 187.262 20.072 187.362 20.192 C 187.462 20.305 187.512 20.429 187.512 20.562 C 187.512 20.882 187.398 21.192 187.172 21.492 C 186.952 21.792 186.665 22.072 186.312 22.332 C 185.965 22.585 185.565 22.822 185.112 23.042 C 184.665 23.255 184.218 23.439 183.772 23.592 C 183.332 23.739 182.915 23.855 182.522 23.942 C 182.135 24.029 181.815 24.072 181.562 24.072 C 181.328 24.072 181.088 24.042 180.842 23.982 C 180.588 23.922 180.362 23.825 180.162 23.692 C 179.962 23.559 179.795 23.392 179.662 23.192 C 179.528 22.992 179.462 22.742 179.462 22.442 L 179.462 19.662 ZM 186.761 22.092 C 186.761 22.072 186.771 22.012 186.791 21.912 C 186.804 21.819 186.821 21.715 186.841 21.602 C 186.854 21.495 186.871 21.395 186.891 21.302 C 186.904 21.209 186.911 21.145 186.911 21.112 L 186.911 21.012 L 186.911 20.862 L 187.261 19.292 C 187.547 18.692 187.844 18.115 188.151 17.562 C 188.457 17.015 188.811 16.532 189.211 16.112 C 189.611 15.699 190.074 15.365 190.601 15.112 C 191.127 14.865 191.764 14.742 192.511 14.742 C 192.664 14.742 192.851 14.789 193.071 14.882 C 193.297 14.969 193.524 15.079 193.751 15.212 C 193.977 15.345 194.184 15.485 194.371 15.632 C 194.564 15.772 194.711 15.899 194.811 16.012 C 195.324 15.932 195.701 15.889 195.941 15.882 C 196.174 15.869 196.374 15.859 196.541 15.852 C 196.707 15.845 196.884 15.815 197.071 15.762 C 197.264 15.715 197.561 15.609 197.961 15.442 C 198.247 15.362 198.524 15.322 198.791 15.322 C 198.904 15.322 199.014 15.369 199.121 15.462 C 199.234 15.562 199.291 15.682 199.291 15.822 C 199.291 15.982 199.231 16.129 199.111 16.262 C 198.997 16.395 198.857 16.479 198.691 16.512 L 195.561 17.212 L 195.291 17.342 C 195.271 18.242 195.071 19.099 194.691 19.912 C 194.304 20.732 193.794 21.449 193.161 22.062 C 192.527 22.682 191.794 23.172 190.961 23.532 C 190.127 23.892 189.261 24.072 188.361 24.072 C 188.294 24.072 188.187 24.065 188.041 24.052 C 187.887 24.045 187.787 24.042 187.741 24.042 C 187.374 23.889 187.117 23.612 186.971 23.212 C 186.831 22.812 186.761 22.439 186.761 22.092 Z M 188.361 22.592 C 188.374 22.672 188.441 22.712 188.561 22.712 C 188.681 22.712 188.764 22.712 188.811 22.712 C 189.411 22.712 190.027 22.559 190.661 22.252 C 191.294 21.945 191.864 21.545 192.371 21.052 C 192.884 20.559 193.301 20.002 193.621 19.382 C 193.947 18.755 194.111 18.125 194.111 17.492 C 193.577 17.492 193.044 17.445 192.511 17.352 C 191.977 17.259 191.461 17.212 190.961 17.212 L 190.941 17.212 L 188.861 19.412 C 188.747 19.532 188.657 19.692 188.591 19.892 C 188.524 20.092 188.474 20.309 188.441 20.542 C 188.401 20.775 188.374 21.009 188.361 21.242 C 188.347 21.475 188.341 21.682 188.341 21.862 C 188.341 21.915 188.341 22.032 188.341 22.212 C 188.341 22.399 188.347 22.525 188.361 22.592 ZM 198.689 23.612 L 198.689 23.542 L 199.529 18.542 L 199.529 17.842 L 200.039 14.512 C 200.085 14.445 200.175 14.409 200.309 14.402 C 200.442 14.395 200.535 14.392 200.589 14.392 C 200.722 14.392 200.875 14.439 201.049 14.532 C 201.222 14.619 201.309 14.739 201.309 14.892 L 201.309 16.592 C 201.375 16.539 201.492 16.439 201.659 16.292 C 201.825 16.139 202.005 15.982 202.199 15.822 C 202.392 15.655 202.572 15.495 202.739 15.342 C 202.905 15.189 203.012 15.079 203.059 15.012 C 203.245 14.845 203.465 14.705 203.719 14.592 C 203.979 14.472 204.225 14.412 204.459 14.412 C 204.945 14.412 205.325 14.562 205.599 14.862 C 205.872 15.169 206.009 15.552 206.009 16.012 C 206.009 16.045 206.005 16.069 205.999 16.082 C 205.992 16.089 205.989 16.109 205.989 16.142 L 205.989 16.242 L 205.039 20.512 L 205.039 22.542 C 205.552 22.542 206.089 22.439 206.649 22.232 C 207.209 22.019 207.745 21.755 208.259 21.442 C 208.779 21.122 209.262 20.759 209.709 20.352 C 210.162 19.945 210.555 19.549 210.889 19.162 L 210.989 19.162 C 211.102 19.162 211.195 19.202 211.269 19.282 C 211.349 19.355 211.389 19.449 211.389 19.562 C 211.389 19.929 211.265 20.292 211.019 20.652 C 210.779 21.012 210.472 21.349 210.099 21.662 C 209.725 21.982 209.292 22.282 208.799 22.562 C 208.305 22.849 207.822 23.092 207.349 23.292 C 206.875 23.492 206.412 23.649 205.959 23.762 C 205.512 23.882 205.129 23.942 204.809 23.942 C 204.495 23.942 204.245 23.882 204.059 23.762 C 203.879 23.649 203.742 23.495 203.649 23.302 C 203.555 23.109 203.495 22.895 203.469 22.662 C 203.449 22.429 203.439 22.179 203.439 21.912 L 203.439 21.592 L 204.409 16.742 L 204.409 15.912 C 204.009 15.912 203.612 16.089 203.219 16.442 C 202.825 16.789 202.475 17.212 202.169 17.712 C 201.862 18.212 201.595 18.722 201.369 19.242 C 201.149 19.755 200.989 20.179 200.889 20.512 C 200.855 20.632 200.802 20.842 200.729 21.142 C 200.669 21.442 200.609 21.759 200.549 22.092 C 200.489 22.425 200.435 22.742 200.389 23.042 C 200.335 23.342 200.302 23.559 200.289 23.692 C 200.302 23.792 200.272 23.865 200.199 23.912 C 200.125 23.965 200.039 24.005 199.939 24.032 C 199.839 24.059 199.732 24.072 199.619 24.072 C 199.512 24.072 199.425 24.072 199.359 24.072 C 199.212 24.072 199.062 24.045 198.909 23.992 C 198.762 23.939 198.689 23.812 198.689 23.612 ZM 210.382 15.142 C 210.435 15.009 210.555 14.875 210.742 14.742 C 210.935 14.609 211.092 14.525 211.212 14.492 C 211.992 14.459 212.795 14.409 213.622 14.342 C 214.449 14.275 215.279 14.209 216.112 14.142 C 216.945 14.075 217.769 14.012 218.582 13.952 C 219.402 13.892 220.195 13.862 220.962 13.862 C 221.529 13.862 222.099 13.889 222.672 13.942 C 223.245 13.989 223.792 14.105 224.312 14.292 L 223.882 14.712 C 223.882 14.712 223.742 14.729 223.462 14.762 C 223.175 14.802 222.802 14.845 222.342 14.892 C 221.889 14.939 221.379 14.999 220.812 15.072 C 220.245 15.132 219.665 15.192 219.072 15.252 C 218.479 15.312 217.915 15.365 217.382 15.412 C 216.849 15.465 216.382 15.509 215.982 15.542 C 215.235 15.609 214.469 15.659 213.682 15.692 C 212.902 15.725 212.145 15.742 211.412 15.742 C 211.325 15.742 211.225 15.732 211.112 15.712 C 210.992 15.699 210.869 15.672 210.742 15.632 C 210.622 15.592 210.522 15.529 210.442 15.442 C 210.369 15.362 210.349 15.262 210.382 15.142 ZM 227.835 23.442 C 227.968 23.109 228.095 22.739 228.215 22.332 C 228.342 21.919 228.458 21.502 228.565 21.082 C 228.678 20.655 228.768 20.239 228.835 19.832 C 228.902 19.419 228.935 19.029 228.935 18.662 L 228.935 18.442 C 228.668 18.409 228.405 18.359 228.145 18.292 C 227.885 18.225 227.665 18.129 227.485 18.002 C 227.298 17.875 227.142 17.709 227.015 17.502 C 226.895 17.295 226.835 17.042 226.835 16.742 C 226.835 16.409 226.885 16.139 226.985 15.932 C 227.085 15.719 227.335 15.612 227.735 15.612 C 228.015 15.612 228.285 15.675 228.545 15.802 C 228.805 15.929 229.052 16.075 229.285 16.242 L 229.405 16.012 L 230.755 10.892 C 230.722 10.459 230.742 10.022 230.815 9.582 C 230.895 9.135 231.068 8.755 231.335 8.442 C 231.315 8.442 231.265 8.439 231.185 8.432 C 231.098 8.419 231.038 8.412 231.005 8.412 C 230.738 8.412 230.472 8.452 230.205 8.532 C 229.938 8.605 229.685 8.695 229.445 8.802 C 229.205 8.909 228.958 9.009 228.705 9.102 C 228.458 9.195 228.208 9.265 227.955 9.312 C 227.922 9.312 227.858 9.295 227.765 9.262 C 227.678 9.229 227.618 9.189 227.585 9.142 C 227.532 9.155 227.448 9.179 227.335 9.212 C 227.215 9.245 227.088 9.272 226.955 9.292 C 226.822 9.305 226.698 9.325 226.585 9.352 C 226.465 9.379 226.388 9.399 226.355 9.412 L 226.225 9.412 C 225.898 9.412 225.735 9.245 225.735 8.912 C 225.735 8.745 225.842 8.612 226.055 8.512 C 226.275 8.412 226.535 8.319 226.835 8.232 C 227.135 8.139 227.435 8.055 227.735 7.982 C 228.035 7.902 228.258 7.815 228.405 7.722 C 228.792 7.582 229.125 7.479 229.405 7.412 C 229.685 7.345 229.962 7.295 230.235 7.262 C 230.502 7.235 230.762 7.215 231.015 7.202 C 231.275 7.195 231.582 7.192 231.935 7.192 C 232.602 7.192 233.272 7.272 233.945 7.432 C 234.618 7.585 235.225 7.839 235.765 8.192 C 236.312 8.539 236.755 8.995 237.095 9.562 C 237.435 10.129 237.605 10.805 237.605 11.592 C 237.605 12.325 237.435 12.989 237.095 13.582 C 236.755 14.169 236.328 14.695 235.815 15.162 C 235.308 15.629 234.758 16.042 234.165 16.402 C 233.578 16.762 233.028 17.062 232.515 17.302 C 232.008 17.542 231.585 17.735 231.245 17.882 C 230.905 18.022 230.735 18.099 230.735 18.112 L 230.735 18.162 C 230.735 18.182 230.742 18.192 230.755 18.192 C 231.108 18.839 231.472 19.419 231.845 19.932 C 232.218 20.439 232.635 20.872 233.095 21.232 C 233.555 21.592 234.075 21.865 234.655 22.052 C 235.242 22.245 235.918 22.342 236.685 22.342 C 236.932 22.342 237.182 22.309 237.435 22.242 C 237.682 22.175 237.925 22.105 238.165 22.032 C 238.412 21.952 238.652 21.879 238.885 21.812 C 239.118 21.745 239.358 21.712 239.605 21.712 C 239.705 21.712 239.818 21.742 239.945 21.802 C 240.072 21.862 240.135 21.959 240.135 22.092 C 240.135 22.359 239.945 22.582 239.565 22.762 C 239.192 22.949 238.772 23.099 238.305 23.212 C 237.838 23.332 237.382 23.415 236.935 23.462 C 236.482 23.515 236.188 23.542 236.055 23.542 C 234.855 23.542 233.742 23.265 232.715 22.712 C 231.695 22.165 230.875 21.349 230.255 20.262 L 230.135 20.262 C 230.102 20.462 230.055 20.769 229.995 21.182 C 229.935 21.589 229.842 21.995 229.715 22.402 C 229.595 22.809 229.438 23.169 229.245 23.482 C 229.052 23.789 228.822 23.942 228.555 23.942 C 228.355 23.942 228.185 23.915 228.045 23.862 C 227.905 23.815 227.835 23.675 227.835 23.442 Z M 230.885 16.112 L 230.885 16.742 L 231.005 16.742 C 231.038 16.722 231.102 16.695 231.195 16.662 C 231.288 16.629 231.335 16.605 231.335 16.592 C 231.882 16.339 232.448 16.059 233.035 15.752 C 233.615 15.445 234.145 15.082 234.625 14.662 C 235.112 14.249 235.508 13.779 235.815 13.252 C 236.128 12.725 236.285 12.112 236.285 11.412 C 236.285 10.965 236.162 10.559 235.915 10.192 C 235.675 9.825 235.368 9.512 234.995 9.252 C 234.622 8.992 234.218 8.792 233.785 8.652 C 233.352 8.512 232.935 8.442 232.535 8.442 L 232.205 8.442 C 232.372 8.575 232.458 8.715 232.465 8.862 C 232.478 9.015 232.485 9.182 232.485 9.362 C 232.485 9.415 232.478 9.495 232.465 9.602 C 232.458 9.709 232.455 9.762 232.455 9.762 L 230.885 16.112 ZM 241.153 22.092 C 241.153 22.072 241.163 22.012 241.183 21.912 C 241.196 21.819 241.213 21.715 241.233 21.602 C 241.246 21.495 241.263 21.395 241.283 21.302 C 241.296 21.209 241.303 21.145 241.303 21.112 L 241.303 21.012 L 241.303 20.862 L 241.653 19.292 C 241.939 18.692 242.236 18.115 242.543 17.562 C 242.849 17.015 243.203 16.532 243.603 16.112 C 244.003 15.699 244.466 15.365 244.993 15.112 C 245.519 14.865 246.156 14.742 246.903 14.742 C 247.056 14.742 247.243 14.789 247.463 14.882 C 247.689 14.969 247.916 15.079 248.143 15.212 C 248.369 15.345 248.576 15.485 248.763 15.632 C 248.956 15.772 249.103 15.899 249.203 16.012 C 249.716 15.932 250.093 15.889 250.333 15.882 C 250.566 15.869 250.766 15.859 250.933 15.852 C 251.099 15.845 251.276 15.815 251.463 15.762 C 251.656 15.715 251.953 15.609 252.353 15.442 C 252.639 15.362 252.916 15.322 253.183 15.322 C 253.296 15.322 253.406 15.369 253.513 15.462 C 253.626 15.562 253.683 15.682 253.683 15.822 C 253.683 15.982 253.623 16.129 253.503 16.262 C 253.389 16.395 253.249 16.479 253.083 16.512 L 249.953 17.212 L 249.683 17.342 C 249.663 18.242 249.463 19.099 249.083 19.912 C 248.696 20.732 248.186 21.449 247.553 22.062 C 246.919 22.682 246.186 23.172 245.353 23.532 C 244.519 23.892 243.653 24.072 242.753 24.072 C 242.686 24.072 242.579 24.065 242.433 24.052 C 242.279 24.045 242.179 24.042 242.133 24.042 C 241.766 23.889 241.509 23.612 241.363 23.212 C 241.223 22.812 241.153 22.439 241.153 22.092 Z M 242.753 22.592 C 242.766 22.672 242.833 22.712 242.953 22.712 C 243.073 22.712 243.156 22.712 243.203 22.712 C 243.803 22.712 244.419 22.559 245.053 22.252 C 245.686 21.945 246.256 21.545 246.763 21.052 C 247.276 20.559 247.693 20.002 248.013 19.382 C 248.339 18.755 248.503 18.125 248.503 17.492 C 247.969 17.492 247.436 17.445 246.903 17.352 C 246.369 17.259 245.853 17.212 245.353 17.212 L 245.333 17.212 L 243.253 19.412 C 243.139 19.532 243.049 19.692 242.983 19.892 C 242.916 20.092 242.866 20.309 242.833 20.542 C 242.793 20.775 242.766 21.009 242.753 21.242 C 242.739 21.475 242.733 21.682 242.733 21.862 C 242.733 21.915 242.733 22.032 242.733 22.212 C 242.733 22.399 242.739 22.525 242.753 22.592 ZM 254.281 20.512 C 254.147 20.579 254.004 20.619 253.851 20.632 C 253.704 20.639 253.554 20.642 253.401 20.642 C 253.254 20.642 253.104 20.645 252.951 20.652 C 252.797 20.659 252.647 20.695 252.501 20.762 C 252.214 20.795 252.031 20.775 251.951 20.702 C 251.864 20.629 251.837 20.525 251.871 20.392 C 251.904 20.259 251.997 20.109 252.151 19.942 C 252.297 19.775 252.467 19.632 252.661 19.512 C 252.854 19.399 253.064 19.315 253.291 19.262 C 253.517 19.215 253.721 19.225 253.901 19.292 C 253.821 18.992 253.827 18.732 253.921 18.512 C 254.027 18.299 254.231 18.192 254.531 18.192 C 254.677 18.192 254.814 18.205 254.941 18.232 C 255.061 18.252 255.157 18.322 255.231 18.442 C 255.477 18.289 255.811 18.035 256.231 17.682 C 256.644 17.322 257.071 16.955 257.511 16.582 C 257.957 16.202 258.364 15.869 258.731 15.582 C 259.097 15.289 259.347 15.142 259.481 15.142 C 259.527 15.142 259.594 15.145 259.681 15.152 C 259.761 15.159 259.847 15.179 259.941 15.212 C 260.034 15.245 260.107 15.285 260.161 15.332 C 260.221 15.372 260.251 15.432 260.251 15.512 L 260.251 16.592 C 260.137 17.059 260.024 17.495 259.911 17.902 C 259.804 18.309 259.714 18.709 259.641 19.102 C 259.567 19.495 259.514 19.892 259.481 20.292 C 259.447 20.692 259.431 21.115 259.431 21.562 C 259.697 21.562 260.017 21.505 260.391 21.392 C 260.764 21.272 261.144 21.129 261.531 20.962 C 261.911 20.795 262.267 20.625 262.601 20.452 C 262.934 20.279 263.201 20.132 263.401 20.012 C 263.434 19.999 263.511 19.942 263.631 19.842 C 263.744 19.742 263.867 19.639 264.001 19.532 C 264.134 19.425 264.264 19.325 264.391 19.232 C 264.517 19.139 264.597 19.075 264.631 19.042 C 264.664 19.009 264.747 18.962 264.881 18.902 C 265.014 18.842 265.087 18.805 265.101 18.792 C 265.167 18.772 265.231 18.792 265.291 18.852 C 265.351 18.912 265.404 18.979 265.451 19.052 C 265.504 19.125 265.541 19.202 265.561 19.282 C 265.587 19.355 265.601 19.399 265.601 19.412 C 265.601 19.579 265.534 19.745 265.401 19.912 C 265.267 20.079 265.111 20.235 264.931 20.382 C 264.744 20.522 264.554 20.655 264.361 20.782 C 264.174 20.902 264.031 21.012 263.931 21.112 C 263.797 21.179 263.567 21.289 263.241 21.442 C 262.914 21.589 262.567 21.745 262.201 21.912 C 261.834 22.079 261.487 22.239 261.161 22.392 C 260.841 22.539 260.614 22.645 260.481 22.712 C 260.447 22.732 260.371 22.755 260.251 22.782 C 260.137 22.802 260.014 22.839 259.881 22.892 C 259.747 22.945 259.617 22.982 259.491 23.002 C 259.364 23.029 259.284 23.049 259.251 23.062 C 259.104 23.115 258.991 23.199 258.911 23.312 C 258.837 23.432 258.764 23.549 258.691 23.662 C 258.617 23.782 258.524 23.882 258.411 23.962 C 258.304 24.049 258.134 24.075 257.901 24.042 C 257.887 24.022 257.817 23.985 257.691 23.932 C 257.564 23.872 257.484 23.825 257.451 23.792 C 257.051 23.505 256.711 23.239 256.431 22.992 C 256.144 22.739 255.884 22.492 255.651 22.252 C 255.417 22.012 255.197 21.749 254.991 21.462 C 254.784 21.182 254.547 20.865 254.281 20.512 Z M 255.851 19.512 C 255.971 19.765 256.084 20.009 256.191 20.242 C 256.297 20.475 256.427 20.695 256.581 20.902 C 256.727 21.109 256.897 21.289 257.091 21.442 C 257.284 21.589 257.521 21.679 257.801 21.712 C 257.834 21.465 257.877 21.165 257.931 20.812 C 257.977 20.465 258.034 20.099 258.101 19.712 C 258.167 19.332 258.247 18.955 258.341 18.582 C 258.434 18.202 258.537 17.872 258.651 17.592 L 258.401 17.592 C 258.134 17.772 257.884 17.955 257.651 18.142 C 257.437 18.309 257.221 18.472 257.001 18.632 C 256.787 18.785 256.614 18.922 256.481 19.042 C 256.461 19.055 256.434 19.079 256.401 19.112 C 256.367 19.145 256.344 19.162 256.331 19.162 C 256.311 19.195 256.234 19.255 256.101 19.342 C 255.967 19.422 255.884 19.479 255.851 19.512 Z M 258.651 17.212 C 258.604 17.212 258.581 17.252 258.581 17.332 C 258.581 17.405 258.604 17.442 258.651 17.442 C 258.717 17.442 258.751 17.405 258.751 17.332 C 258.751 17.252 258.717 17.212 258.651 17.212 ZM 265.904 20.512 C 265.771 20.579 265.627 20.619 265.474 20.632 C 265.327 20.639 265.177 20.642 265.024 20.642 C 264.877 20.642 264.727 20.645 264.574 20.652 C 264.421 20.659 264.271 20.695 264.124 20.762 C 263.837 20.795 263.654 20.775 263.574 20.702 C 263.487 20.629 263.461 20.525 263.494 20.392 C 263.527 20.259 263.621 20.109 263.774 19.942 C 263.921 19.775 264.091 19.632 264.284 19.512 C 264.477 19.399 264.687 19.315 264.914 19.262 C 265.141 19.215 265.344 19.225 265.524 19.292 C 265.444 18.992 265.451 18.732 265.544 18.512 C 265.651 18.299 265.854 18.192 266.154 18.192 C 266.301 18.192 266.437 18.205 266.564 18.232 C 266.684 18.252 266.781 18.322 266.854 18.442 C 267.101 18.289 267.434 18.035 267.854 17.682 C 268.267 17.322 268.694 16.955 269.134 16.582 C 269.581 16.202 269.987 15.869 270.354 15.582 C 270.721 15.289 270.971 15.142 271.104 15.142 C 271.151 15.142 271.217 15.145 271.304 15.152 C 271.384 15.159 271.471 15.179 271.564 15.212 C 271.657 15.245 271.731 15.285 271.784 15.332 C 271.844 15.372 271.874 15.432 271.874 15.512 L 271.874 16.592 C 271.761 17.059 271.647 17.495 271.534 17.902 C 271.427 18.309 271.337 18.709 271.264 19.102 C 271.191 19.495 271.137 19.892 271.104 20.292 C 271.071 20.692 271.054 21.115 271.054 21.562 C 271.321 21.562 271.641 21.505 272.014 21.392 C 272.387 21.272 272.767 21.129 273.154 20.962 C 273.534 20.795 273.891 20.625 274.224 20.452 C 274.557 20.279 274.824 20.132 275.024 20.012 C 275.057 19.999 275.134 19.942 275.254 19.842 C 275.367 19.742 275.491 19.639 275.624 19.532 C 275.757 19.425 275.887 19.325 276.014 19.232 C 276.141 19.139 276.221 19.075 276.254 19.042 C 276.287 19.009 276.371 18.962 276.504 18.902 C 276.637 18.842 276.711 18.805 276.724 18.792 C 276.791 18.772 276.854 18.792 276.914 18.852 C 276.974 18.912 277.027 18.979 277.074 19.052 C 277.127 19.125 277.164 19.202 277.184 19.282 C 277.211 19.355 277.224 19.399 277.224 19.412 C 277.224 19.579 277.157 19.745 277.024 19.912 C 276.891 20.079 276.734 20.235 276.554 20.382 C 276.367 20.522 276.177 20.655 275.984 20.782 C 275.797 20.902 275.654 21.012 275.554 21.112 C 275.421 21.179 275.191 21.289 274.864 21.442 C 274.537 21.589 274.191 21.745 273.824 21.912 C 273.457 22.079 273.111 22.239 272.784 22.392 C 272.464 22.539 272.237 22.645 272.104 22.712 C 272.071 22.732 271.994 22.755 271.874 22.782 C 271.761 22.802 271.637 22.839 271.504 22.892 C 271.371 22.945 271.241 22.982 271.114 23.002 C 270.987 23.029 270.907 23.049 270.874 23.062 C 270.727 23.115 270.614 23.199 270.534 23.312 C 270.461 23.432 270.387 23.549 270.314 23.662 C 270.241 23.782 270.147 23.882 270.034 23.962 C 269.927 24.049 269.757 24.075 269.524 24.042 C 269.511 24.022 269.441 23.985 269.314 23.932 C 269.187 23.872 269.107 23.825 269.074 23.792 C 268.674 23.505 268.334 23.239 268.054 22.992 C 267.767 22.739 267.507 22.492 267.274 22.252 C 267.041 22.012 266.821 21.749 266.614 21.462 C 266.407 21.182 266.171 20.865 265.904 20.512 Z M 267.474 19.512 C 267.594 19.765 267.707 20.009 267.814 20.242 C 267.921 20.475 268.051 20.695 268.204 20.902 C 268.351 21.109 268.521 21.289 268.714 21.442 C 268.907 21.589 269.144 21.679 269.424 21.712 C 269.457 21.465 269.501 21.165 269.554 20.812 C 269.601 20.465 269.657 20.099 269.724 19.712 C 269.791 19.332 269.871 18.955 269.964 18.582 C 270.057 18.202 270.161 17.872 270.274 17.592 L 270.024 17.592 C 269.757 17.772 269.507 17.955 269.274 18.142 C 269.061 18.309 268.844 18.472 268.624 18.632 C 268.411 18.785 268.237 18.922 268.104 19.042 C 268.084 19.055 268.057 19.079 268.024 19.112 C 267.991 19.145 267.967 19.162 267.954 19.162 C 267.934 19.195 267.857 19.255 267.724 19.342 C 267.591 19.422 267.507 19.479 267.474 19.512 Z M 270.274 17.212 C 270.227 17.212 270.204 17.252 270.204 17.332 C 270.204 17.405 270.227 17.442 270.274 17.442 C 270.341 17.442 270.374 17.405 270.374 17.332 C 270.374 17.252 270.341 17.212 270.274 17.212 ZM 276.297 21.012 L 276.647 18.792 C 276.667 18.705 276.717 18.555 276.797 18.342 C 276.884 18.122 276.971 17.889 277.057 17.642 C 277.151 17.389 277.241 17.155 277.327 16.942 C 277.407 16.722 277.464 16.572 277.497 16.492 C 277.597 16.225 277.694 16.049 277.787 15.962 C 277.881 15.882 278.051 15.842 278.297 15.842 C 278.564 15.842 278.741 15.932 278.827 16.112 C 278.907 16.299 278.947 16.515 278.947 16.762 C 278.947 17.195 278.884 17.592 278.757 17.952 C 278.637 18.312 278.501 18.672 278.347 19.032 C 278.194 19.385 278.057 19.769 277.937 20.182 C 277.811 20.589 277.747 21.059 277.747 21.592 C 277.747 21.659 277.747 21.755 277.747 21.882 C 277.747 22.002 277.757 22.125 277.777 22.252 C 277.791 22.379 277.824 22.489 277.877 22.582 C 277.924 22.669 277.991 22.712 278.077 22.712 C 278.511 22.712 278.947 22.625 279.387 22.452 C 279.827 22.279 280.261 22.072 280.687 21.832 C 281.114 21.585 281.521 21.319 281.907 21.032 C 282.301 20.739 282.657 20.482 282.977 20.262 C 283.091 20.182 283.177 20.099 283.237 20.012 C 283.297 19.932 283.351 19.855 283.397 19.782 C 283.451 19.702 283.514 19.635 283.587 19.582 C 283.661 19.522 283.781 19.492 283.947 19.492 C 284.167 19.492 284.347 19.539 284.487 19.632 C 284.627 19.719 284.697 19.879 284.697 20.112 C 284.697 20.212 284.694 20.305 284.687 20.392 C 284.681 20.472 284.634 20.545 284.547 20.612 C 284.534 20.665 284.471 20.732 284.357 20.812 C 284.251 20.899 284.141 20.989 284.027 21.082 C 283.907 21.169 283.797 21.252 283.697 21.332 C 283.597 21.405 283.524 21.449 283.477 21.462 C 283.457 21.462 283.411 21.485 283.337 21.532 C 283.264 21.572 283.217 21.592 283.197 21.592 C 283.184 21.605 283.164 21.625 283.137 21.652 C 283.111 21.679 283.097 21.699 283.097 21.712 C 282.751 21.979 282.371 22.252 281.957 22.532 C 281.551 22.805 281.124 23.055 280.677 23.282 C 280.224 23.502 279.761 23.689 279.287 23.842 C 278.814 23.995 278.344 24.072 277.877 24.072 C 277.477 24.072 277.171 23.965 276.957 23.752 C 276.751 23.545 276.597 23.285 276.497 22.972 C 276.397 22.652 276.341 22.315 276.327 21.962 C 276.307 21.615 276.297 21.299 276.297 21.012 Z M 277.847 12.212 C 277.847 11.912 277.907 11.712 278.027 11.612 C 278.141 11.512 278.347 11.462 278.647 11.462 C 278.801 11.462 278.951 11.492 279.097 11.552 C 279.251 11.612 279.327 11.749 279.327 11.962 C 279.327 12.182 279.221 12.382 279.007 12.562 C 278.801 12.749 278.597 12.842 278.397 12.842 C 278.197 12.842 278.057 12.779 277.977 12.652 C 277.891 12.525 277.847 12.379 277.847 12.212 Z" transform="matrix(1, 0, 0, 1, 0, 0)" style="fill: rgb(7, 153, 146); stroke: rgb(7, 153, 146); stroke-width: 0px; white-space: pre; vector-effect: non-scaling-stroke;"/>
  <path class="holly-leaf" d="M 7.335 0.003 C 7.433 0.042 7.459 0.114 7.454 0.215 C 7.43 0.811 7.5 1.393 7.722 1.951 C 8.012 2.683 8.514 3.244 9.143 3.703 C 9.545 3.997 9.98 4.236 10.43 4.45 C 10.659 4.558 10.669 4.659 10.468 4.809 C 9.951 5.194 9.615 5.71 9.384 6.301 C 9.058 7.134 8.962 8.001 9.02 8.888 C 9.063 9.555 9.199 10.2 9.462 10.816 C 9.519 10.95 9.585 11.081 9.657 11.208 C 9.734 11.343 9.72 11.403 9.593 11.49 C 8.982 11.911 8.406 12.37 7.888 12.903 C 7.053 13.766 6.481 14.79 6.063 15.905 C 5.907 16.321 5.766 16.742 5.641 17.168 C 5.62 17.24 5.585 17.295 5.503 17.302 C 5.422 17.309 5.373 17.27 5.337 17.201 C 4.67 15.877 3.635 14.925 2.338 14.24 C 1.828 13.972 1.294 13.75 0.745 13.575 C 0.673 13.552 0.61 13.523 0.568 13.458 L 0.568 13.339 C 0.591 13.291 0.628 13.251 0.675 13.226 C 1.21 12.936 1.526 12.473 1.714 11.908 C 1.843 11.517 1.904 11.106 1.891 10.695 C 1.871 9.951 1.706 9.243 1.295 8.608 C 1.157 8.395 0.984 8.211 0.789 8.05 C 0.771 8.035 0.751 8.022 0.735 8.007 C 0.603 7.892 0.628 7.742 0.791 7.683 C 0.953 7.623 1.118 7.573 1.273 7.495 C 1.988 7.137 2.462 6.569 2.741 5.828 C 2.913 5.371 2.969 4.895 2.947 4.411 C 2.934 4.101 2.832 3.814 2.673 3.547 C 2.556 3.351 2.429 3.16 2.331 2.953 C 2.283 2.853 2.247 2.751 2.253 2.638 C 2.259 2.515 2.323 2.45 2.447 2.446 C 2.662 2.44 2.877 2.445 3.092 2.429 C 3.626 2.391 4.142 2.281 4.64 2.087 C 5.225 1.86 5.742 1.528 6.208 1.107 C 6.541 0.808 6.83 0.474 7.103 0.122 C 7.144 0.069 7.188 0.023 7.256 0.004 Z" style="fill: rgb(7, 153, 146);"/>
  <path class="holly-leaf" d="M 20.412 18.604 C 20.408 18.782 20.429 18.983 20.453 19.184 C 20.461 19.252 20.447 19.31 20.386 19.348 C 20.324 19.386 20.267 19.373 20.208 19.341 C 18.722 18.532 17.302 18.693 15.967 19.671 C 15.092 20.312 14.576 21.194 14.415 22.274 C 14.403 22.351 14.391 22.427 14.3 22.454 C 14.206 22.482 14.152 22.428 14.099 22.364 C 13.083 21.146 11.882 20.161 10.454 19.461 C 9.748 19.115 9.014 18.857 8.232 18.743 C 8.026 18.71 7.818 18.695 7.608 18.695 C 7.517 18.696 7.43 18.693 7.397 18.589 C 7.365 18.486 7.434 18.431 7.504 18.376 C 8.1 17.923 8.651 17.422 9.132 16.847 C 9.912 15.916 10.444 14.866 10.646 13.662 C 10.716 13.24 10.71 12.81 10.689 12.382 C 10.665 11.942 10.61 11.504 10.523 11.072 C 10.492 10.917 10.583 10.842 10.751 10.879 C 11.394 11.022 12.046 11.097 12.706 11.067 C 14.791 10.974 16.388 10.032 17.506 8.274 C 17.847 7.738 18.097 7.157 18.283 6.548 C 18.299 6.498 18.308 6.445 18.354 6.409 C 18.423 6.353 18.52 6.361 18.572 6.439 C 19.105 7.23 19.895 7.624 20.784 7.849 C 22.039 8.168 23.29 8.142 24.525 7.727 C 24.644 7.687 24.76 7.635 24.875 7.586 C 24.944 7.556 25.004 7.565 25.056 7.618 C 25.108 7.672 25.113 7.737 25.077 7.801 C 24.661 8.564 24.509 9.393 24.465 10.248 C 24.407 11.412 24.551 12.55 24.907 13.66 C 24.984 13.9 25.079 14.134 25.192 14.359 C 25.225 14.428 25.238 14.49 25.186 14.553 C 25.135 14.616 25.072 14.616 24.998 14.598 C 23.905 14.348 22.894 14.517 21.997 15.208 C 21.197 15.824 20.729 16.656 20.512 17.632 C 20.441 17.951 20.408 18.277 20.412 18.604 Z" style="fill: rgb(7, 153, 146);"/>
  <path class="holly-balls" d="M 3.355 21.109 C 2.266 21.11 1.382 20.224 1.388 19.133 C 1.391 18.047 2.276 17.171 3.363 17.174 C 4.449 17.176 5.328 18.058 5.325 19.144 C 5.325 20.229 4.444 21.108 3.355 21.109 Z" style="fill: rgb(224, 36, 49);"/>
  <path class="holly-balls" d="M 2.835 21.538 C 3.915 21.536 4.799 22.417 4.802 23.497 C 4.804 24.587 3.918 25.477 2.831 25.476 C 1.75 25.474 0.867 24.591 0.865 23.513 C 0.86 22.421 1.743 21.534 2.835 21.538 Z" style="fill: rgb(224, 36, 49);"/>
  <path class="holly-balls" d="M 8.98 21.742 C 8.984 22.826 8.103 23.71 7.015 23.713 C 5.937 23.716 5.049 22.841 5.046 21.77 C 5.042 20.665 5.908 19.785 6.998 19.781 C 8.095 19.777 8.976 20.65 8.98 21.742 Z" style="fill: rgb(224, 36, 49);"/>
  <path class="holly-leaf-center" d="M 4.367 10.411 C 4.408 10.033 4.377 9.679 4.409 9.325 C 4.482 8.517 4.596 7.716 4.807 6.93 C 4.964 6.351 5.155 5.786 5.402 5.24 C 5.502 5.019 5.614 4.805 5.72 4.587 C 5.756 4.514 5.814 4.488 5.892 4.503 C 5.962 4.515 5.998 4.562 6.015 4.629 C 6.024 4.665 6.008 4.694 5.997 4.724 C 5.755 5.411 5.586 6.117 5.451 6.831 C 5.366 7.27 5.301 7.714 5.243 8.158 C 5.191 8.563 5.151 8.969 5.108 9.375 C 5.086 9.588 5.081 9.803 5.066 10.016 C 5.033 10.435 5.017 10.854 5.001 11.274 C 4.994 11.447 4.996 11.623 4.985 11.798 C 4.963 12.231 4.967 12.665 4.968 13.099 C 4.968 13.192 4.959 13.284 4.983 13.376 C 4.995 13.417 4.984 13.459 4.967 13.501 C 4.936 13.572 4.885 13.604 4.81 13.596 C 4.73 13.587 4.683 13.539 4.67 13.462 C 4.6 13.037 4.529 12.612 4.485 12.182 C 4.454 11.868 4.431 11.552 4.404 11.237 C 4.38 10.953 4.42 10.668 4.367 10.411 Z" style="fill: rgb(5, 104, 99);"/>
  <path class="holly-leaf-center" d="M 11.896 17.379 C 11.817 17.374 11.765 17.341 11.743 17.274 C 11.72 17.202 11.73 17.137 11.803 17.094 C 12.002 16.975 12.201 16.857 12.398 16.736 C 13.023 16.356 13.646 15.975 14.27 15.594 C 15.165 15.049 16.05 14.486 16.927 13.914 C 17.54 13.514 18.148 13.109 18.752 12.697 C 19.651 12.087 20.535 11.455 21.403 10.799 C 21.637 10.622 21.865 10.436 22.094 10.252 C 22.227 10.147 22.351 10.17 22.391 10.309 C 22.409 10.377 22.371 10.424 22.332 10.468 C 22.244 10.57 22.15 10.669 22.057 10.767 C 21.838 10.992 21.626 11.226 21.397 11.442 C 21.016 11.804 20.631 12.16 20.229 12.501 C 19.753 12.905 19.264 13.292 18.762 13.662 C 18.154 14.109 17.529 14.529 16.886 14.923 C 16.233 15.322 15.567 15.696 14.886 16.045 C 14.355 16.316 13.816 16.568 13.272 16.811 C 12.84 17.004 12.401 17.179 11.96 17.354 C 11.937 17.364 11.912 17.373 11.896 17.379 Z" style="fill: rgb(5, 104, 99);"/>
</svg>