<?xml version="1.0" encoding="utf-8"?>
<svg viewBox="0 0 800 300" xmlns="http://www.w3.org/2000/svg">
  <polygon points="580.814 146.096 711.805 176.761 717.106 257.248 562.661 257.852 580.814 146.096" fill="#333333" class="colored-path"/>
  <polygon points="680.936 5.01 586.593 59.86 609.569 128.322 614.792 216.702 682.943 202.125 717.106 132.055 747.576 89.385 719.562 37.721 680.936 5.01" fill="#333333" class="colored-path"/>
  <path d="M 74.623 53.399 C 83.295 53.896 109.361 39.65 109.361 39.65 C 109.361 39.65 85.117 22.491 76.445 21.984 C 64.34 21.513 56.263 34.321 61.907 45.041 C 64.428 49.827 69.23 52.983 74.623 53.399 Z" fill="#6c63ff"/>
  <path d="M 633.063 243.918 L 633.063 285.487 L 622.412 283.85 C 611.596 282.183 600.712 280.527 589.808 279.104 L 588.571 259.051 L 588.473 257.248 L 587.07 234.534 L 628.785 243.021 L 629.993 243.265 Z" fill="#333333" class="colored-path"/>
  <path d="M 633.063 243.918 L 633.063 285.487 L 622.412 283.85 C 611.596 282.183 600.712 280.527 589.808 279.104 L 588.571 259.051 L 588.473 257.248 L 587.07 234.534 L 628.785 243.021 L 629.993 243.265 Z" opacity="0.1"/>
  <path d="M 581.604 240.01 L 569.102 257.248 L 567.777 259.051 L 565.584 262.081 L 555.694 275.723 C 534.256 274.407 512.819 274.973 491.791 279.202 C 475.811 282.417 460.24 287.698 444.863 293.818 C 438.471 283.811 428.639 271.621 414.588 262.1 C 413.058 261.058 411.47 260.054 409.833 259.07 C 408.79 258.456 407.738 257.852 406.656 257.267 C 400.009 253.671 392.934 250.927 385.599 249.102 Z" fill="#333333" class="colored-path"/>
  <path d="M 82.603 218.943 L 106.447 184.965 L 108.533 182.042 L 109.78 180.259 L 120.674 164.727 L 120.333 164.727 C 116.435 164.551 80.625 163.1 42.107 162.086 C 46.004 168.381 49.986 174.614 54.053 180.785 L 55.252 182.578 L 57.278 185.579 C 63.817 195.197 70.677 204.581 78.024 213.545 Z" fill="#333333" class="colored-path"/>
  <path d="M 681.423 5 L 670.87 11.723 L 647.143 26.856 L 608.936 51.217 L 606.11 53.01 L 606.11 53.01 L 607.016 81.2 L 439.153 89.346 L 254.062 89.346 L 204.133 76.863 L 203.09 76.6 L 203.09 76.6 L 202.048 76.337 L 192.177 73.862 L 148.776 63.036 L 1.912 45.935 C 2.8 41.611 3.918 37.337 5.264 33.131 C 5.468 32.518 5.654 31.923 5.868 31.319 C 8.149 24.601 10.837 18.028 13.917 11.636 C 91.276 6.208 180.367 5.214 203.743 5.049 L 209.59 5 Z" fill="#333333" class="colored-path"/>
  <path d="M 581.613 240.01 L 385.619 249.073 C 395.976 251.664 405.794 256.069 414.617 262.081 L 565.652 262.081 Z" opacity="0.1"/>
  <path d="M 120.674 164.698 L 109.8 180.23 L 108.552 182.013 L 106.467 184.936 L 105.268 184.936 L 102.608 184.936 L 57.298 185.482 L 55.232 182.539 L 54.033 180.746 C 49.954 174.588 45.971 168.355 42.087 162.047 C 80.606 163.022 116.445 164.512 120.313 164.688 Z" opacity="0.1"/>
  <path d="M 628.785 53.088 L 628.785 259.051 L 375.641 259.051 L 372.016 224.576 C 372.016 224.576 341.672 222.822 306.73 217.151 C 304.722 216.809 302.696 216.478 300.649 216.118 C 292.328 214.676 283.831 213.009 275.499 211.08 L 273.833 210.69 C 270.715 209.962 267.632 209.192 264.586 208.381 C 261.595 207.601 258.652 206.763 255.767 205.906 C 251.665 204.668 247.699 203.372 243.889 202.008 C 230.705 197.233 219.529 191.514 212.308 184.673 L 206.92 184.537 L 206.92 184.537 L 146.691 183.017 L 145.6 183.017 L 145.259 183.017 L 144.167 183.017 L 108.533 182.101 L 105.249 182.023 L 105.249 182.023 L 55.29 182.627 L 54.092 180.834 C 50.012 174.676 46.03 168.442 42.146 162.135 C 36.163 152.459 30.355 142.646 24.606 132.902 C 14.774 116.337 4.757 99.226 1.366 80.284 C -0.606 68.937 -0.395 57.319 1.99 46.052 C 2.877 41.728 3.996 37.454 5.342 33.248 L 204.153 33.248 L 205.361 33.609 L 205.361 33.609 L 211.958 35.558 L 213 35.87 L 213 35.87 L 214.043 36.181 C 232.021 41.541 269.01 52.23 278.52 52.23 L 295.183 52.23 L 381.458 52.444 L 461.272 52.669 C 519.075 52.805 575.747 52.961 606.081 53.039 Z" fill="#333333" class="colored-path"/>
  <path d="M 628.785 51.285 L 628.785 257.248 L 375.641 257.248 L 372.016 222.773 C 372.016 222.773 341.809 221.019 306.944 215.367 C 305.784 215.163 304.605 214.978 303.426 214.783 C 294.793 213.311 285.887 211.616 277.214 209.657 L 276.016 209.384 L 275.227 209.199 L 273.112 208.693 C 270.247 208.03 267.402 207.319 264.596 206.568 C 261.517 205.763 258.489 204.909 255.514 204.006 C 251.353 202.768 247.329 201.433 243.47 200.03 C 230.472 195.285 219.461 189.613 212.289 182.851 L 209.853 182.783 L 209.853 182.783 L 148.231 181.224 L 147.159 181.224 L 146.827 181.224 L 145.746 181.224 L 109.79 180.249 L 106.769 180.171 L 105.259 180.171 L 54.063 180.795 C 49.983 174.637 46 168.403 42.116 162.096 C 36.133 152.42 30.326 142.607 24.577 132.863 C 14.745 116.298 4.728 99.187 1.337 80.245 C -0.635 68.899 -0.424 57.281 1.961 46.013 C 2.848 41.689 3.967 37.415 5.313 33.209 C 5.517 32.596 5.702 32.001 5.917 31.397 L 204.153 31.397 L 205.556 31.836 C 206.949 32.255 209.307 32.976 212.377 33.882 L 213.409 34.194 L 213.409 34.194 C 213.741 34.291 214.082 34.408 214.442 34.505 C 232.576 39.835 269.107 50.369 278.549 50.369 L 296.089 50.369 L 383.319 50.593 L 462.919 50.798 L 608.916 51.187 Z" opacity="0.1"/>
  <path d="M 628.785 53.088 L 628.785 259.051 L 375.641 259.051 L 372.016 224.576 C 372.016 224.576 341.672 222.822 306.73 217.151 C 304.722 216.809 302.696 216.478 300.649 216.118 C 292.328 214.676 283.831 213.009 275.499 211.08 L 273.833 210.69 C 270.715 209.962 267.632 209.192 264.586 208.381 C 261.595 207.601 258.652 206.763 255.767 205.906 C 251.665 204.668 247.699 203.372 243.889 202.008 C 230.705 197.233 219.529 191.514 212.308 184.673 L 206.92 184.537 L 206.92 184.537 L 146.691 183.017 L 145.6 183.017 L 145.259 183.017 L 144.167 183.017 L 108.533 182.101 L 105.249 182.023 L 105.249 182.023 L 55.29 182.627 L 54.092 180.834 C 50.012 174.676 46.03 168.442 42.146 162.135 C 36.163 152.459 30.355 142.646 24.606 132.902 C 14.774 116.337 4.757 99.226 1.366 80.284 C -0.606 68.937 -0.395 57.319 1.99 46.052 C 2.877 41.728 3.996 37.454 5.342 33.248 L 204.153 33.248 L 205.361 33.609 L 205.361 33.609 L 211.958 35.558 L 213 35.87 L 213 35.87 L 214.043 36.181 C 232.021 41.541 269.01 52.23 278.52 52.23 L 295.183 52.23 L 381.458 52.444 L 461.272 52.669 C 519.075 52.805 575.747 52.961 606.081 53.039 Z" opacity="0.1"/>
  <polygon points="681.423 5.01 681.423 37.633 628.795 76.951 606.11 53.029 681.423 5.01" fill="#333333" class="colored-path"/>
  <polygon points="681.423 5.01 681.423 37.633 628.795 76.951 606.11 53.029 681.423 5.01" opacity="0.1"/>
  <polygon points="708.658 40.976 681.423 37.633 628.795 76.951 628.795 97.521 708.658 40.976" fill="#333333" class="colored-path"/>
  <polygon points="720.156 5.01 720.156 73.326 737.696 92.678 628.795 197.818 628.795 97.521 708.658 40.976 681.423 37.633 681.423 5.01 720.156 5.01" fill="#333333" class="colored-path"/>
  <polygon points="720.156 5.01 720.156 73.326 737.696 92.678 628.795 197.818 628.795 97.521 708.658 40.976 681.423 37.633 681.423 5.01 720.156 5.01" opacity="0.1"/>
  <polygon points="726.811 93.282 798.188 89.385 792.741 146.096 709.866 256.537 712.293 176.761 648.78 176.761 726.811 93.282" opacity="0.1"/>
  <polygon points="728.624 93.282 800 89.385 794.563 146.096 711.688 256.537 714.105 176.761 650.602 176.761 728.624 93.282" fill="#333333" class="colored-path"/>
  <polygon points="775.201 125.955 738.904 125.955 692.931 176.761 715.313 176.761 714.826 193.043 775.201 125.955" opacity="0.1"/>
  <polygon points="772.785 125.955 736.487 125.955 690.514 176.761 712.897 176.761 712.4 193.043 772.785 125.955" opacity="0.1"/>
  <polygon points="773.993 125.955 737.696 125.955 691.723 176.761 714.105 176.761 713.608 193.043 773.993 125.955" fill="#dce6f2"/>
  <polygon points="712.897 255.328 630.003 257.852 630.003 196.61 651.81 175.553 715.313 175.553 712.897 255.328" opacity="0.1"/>
  <polygon points="711.688 256.537 628.795 259.06 628.795 197.818 650.602 176.761 714.105 176.761 711.688 256.537" fill="#333333" class="colored-path"/>
  <polygon points="711.688 256.537 628.795 259.06 628.795 197.818 650.602 176.761 714.105 176.761 711.688 256.537" opacity="0.1"/>
  <line x1="732.541" y1="132.055" x2="767.523" y2="133.545" stroke="#000" stroke-miterlimit="10" opacity="0.1"/>
  <line x1="726.85" y1="138.301" x2="761.832" y2="139.791" stroke="#000" stroke-miterlimit="10" opacity="0.1"/>
  <line x1="721.16" y1="144.537" x2="756.141" y2="146.028" stroke="#000" stroke-miterlimit="10" opacity="0.1"/>
  <line x1="715.459" y1="150.783" x2="750.441" y2="152.274" stroke="#000" stroke-miterlimit="10" opacity="0.1"/>
  <line x1="709.769" y1="157.019" x2="744.751" y2="158.52" stroke="#000" stroke-miterlimit="10" opacity="0.1"/>
  <line x1="704.078" y1="163.265" x2="739.06" y2="164.756" stroke="#000" stroke-miterlimit="10" opacity="0.1"/>
  <line x1="698.378" y1="169.511" x2="733.36" y2="171.002" stroke="#000" stroke-miterlimit="10" opacity="0.1"/>
  <line x1="692.687" y1="175.747" x2="727.669" y2="177.238" stroke="#000" stroke-miterlimit="10" opacity="0.1"/>
</svg>