<?xml version="1.0" encoding="utf-8"?>
<svg viewBox="0 0 200 199" xmlns="http://www.w3.org/2000/svg">
  <path d="M 184.428 95.532 L 23.589 2.67 C 20.289 0.767 16.168 3.147 16.168 6.954 L 16.168 192.678 C 16.168 196.488 20.289 198.867 23.589 196.962 L 184.428 104.1 C 187.726 102.196 187.728 97.436 184.428 95.532 C 184.428 95.532 184.428 95.532 184.428 95.532 L 23.589 2.67 C 20.289 0.767 16.168 3.147 16.168 6.954 L 16.168 192.678 C 16.168 196.488 20.289 198.867 23.589 196.962 L 184.428 104.1 C 187.726 102.196 187.728 97.436 184.428 95.532 C 184.428 95.532 184.428 95.532 184.428 95.532 Z" style="fill: rgb(34, 40, 49); stroke: rgb(213, 213, 213);" class="play-icon-triangle"/>
  <g transform="matrix(1.883375, 0, 0, 1.883375, -34.099964, -65.608765)" style="">
    <title>Piano</title>
    <polygon points="81.839 87.76 92.692 90.301 93.132 96.97 80.335 97.02 81.839 87.76" fill="#333333" class="colored-path" style=""/>
    <polygon points="90.135 76.071 82.318 80.615 84.222 86.288 84.655 93.61 90.301 92.402 93.132 86.597 95.656 83.062 93.335 78.781 90.135 76.071" fill="#333333" class="colored-path" style=""/>
    <path d="M 39.899 80.08 C 40.618 80.121 42.778 78.941 42.778 78.941 C 42.778 78.941 40.769 77.519 40.05 77.477 C 39.047 77.438 38.378 78.499 38.846 79.387 C 39.055 79.784 39.453 80.045 39.899 80.08 Z" fill="#6c63ff" style=""/>
    <path d="M 86.168 95.865 L 86.168 99.309 L 85.286 99.174 C 84.39 99.036 83.488 98.898 82.584 98.781 L 82.482 97.119 L 82.474 96.97 L 82.358 95.088 L 85.814 95.791 L 85.914 95.811 Z" fill="#333333" class="colored-path" style=""/>
    <path d="M 86.168 95.865 L 86.168 99.309 L 85.286 99.174 C 84.39 99.036 83.488 98.898 82.584 98.781 L 82.482 97.119 L 82.474 96.97 L 82.358 95.088 L 85.814 95.791 L 85.914 95.811 Z" opacity="0.1" style=""/>
    <path d="M 81.905 95.541 L 80.869 96.97 L 80.759 97.119 L 80.577 97.37 L 79.758 98.5 C 77.982 98.391 76.206 98.438 74.463 98.789 C 73.139 99.055 71.849 99.493 70.575 100 C 70.046 99.17 69.231 98.161 68.067 97.372 C 67.94 97.285 67.808 97.202 67.673 97.121 C 67.586 97.07 67.499 97.02 67.41 96.971 C 66.859 96.673 66.273 96.446 65.665 96.295 Z" fill="#333333" class="colored-path" style=""/>
    <path d="M 40.561 93.796 L 42.536 90.981 L 42.709 90.739 L 42.812 90.591 L 43.715 89.304 L 43.687 89.304 C 43.364 89.289 40.397 89.169 37.205 89.085 C 37.528 89.607 37.858 90.123 38.195 90.634 L 38.294 90.783 L 38.462 91.032 C 39.004 91.828 39.572 92.606 40.181 93.349 Z" fill="#333333" class="colored-path" style=""/>
    <path d="M 90.175 76.07 L 89.301 76.627 L 87.335 77.881 L 84.169 79.899 L 83.935 80.048 L 83.935 80.048 L 84.01 82.383 L 70.102 83.058 L 54.767 83.058 L 50.63 82.024 L 50.543 82.002 L 50.543 82.002 L 50.457 81.98 L 49.639 81.775 L 46.043 80.878 L 33.875 79.462 C 33.949 79.103 34.041 78.749 34.153 78.401 C 34.17 78.35 34.185 78.301 34.203 78.251 C 34.392 77.694 34.614 77.149 34.87 76.62 C 41.279 76.17 48.661 76.088 50.597 76.074 L 51.082 76.07 Z" fill="#333333" class="colored-path" style=""/>
    <path d="M 81.906 95.541 L 65.667 96.292 C 66.525 96.507 67.338 96.872 68.069 97.37 L 80.583 97.37 Z" opacity="0.1" style=""/>
    <path d="M 43.715 89.302 L 42.814 90.588 L 42.711 90.736 L 42.538 90.978 L 42.438 90.978 L 42.218 90.978 L 38.464 91.024 L 38.293 90.78 L 38.193 90.631 C 37.855 90.121 37.525 89.605 37.204 89.082 C 40.395 89.163 43.364 89.286 43.685 89.301 Z" opacity="0.1" style=""/>
    <path d="M 85.814 80.054 L 85.814 97.119 L 64.84 97.119 L 64.54 94.263 C 64.54 94.263 62.025 94.117 59.13 93.647 C 58.964 93.619 58.796 93.592 58.627 93.562 C 57.937 93.442 57.233 93.304 56.543 93.144 L 56.405 93.112 C 56.146 93.052 55.891 92.988 55.639 92.921 C 55.391 92.856 55.147 92.787 54.908 92.716 C 54.568 92.613 54.239 92.506 53.924 92.393 C 52.831 91.997 51.905 91.523 51.307 90.957 L 50.861 90.945 L 50.861 90.945 L 45.87 90.819 L 45.78 90.819 L 45.752 90.819 L 45.661 90.819 L 42.709 90.743 L 42.437 90.737 L 42.437 90.737 L 38.298 90.787 L 38.198 90.638 C 37.86 90.128 37.53 89.612 37.209 89.089 C 36.713 88.287 36.232 87.474 35.755 86.667 C 34.941 85.295 34.111 83.877 33.83 82.307 C 33.666 81.367 33.684 80.405 33.881 79.471 C 33.955 79.113 34.048 78.759 34.159 78.41 L 50.631 78.41 L 50.732 78.44 L 50.732 78.44 L 51.278 78.602 L 51.364 78.628 L 51.364 78.628 L 51.451 78.653 C 52.94 79.097 56.005 79.983 56.793 79.983 L 58.174 79.983 L 65.322 80.001 L 71.935 80.019 C 76.724 80.031 81.419 80.044 83.933 80.05 Z" fill="#333333" class="colored-path" style=""/>
    <path d="M 85.814 79.905 L 85.814 96.97 L 64.84 96.97 L 64.54 94.113 C 64.54 94.113 62.037 93.968 59.148 93.5 C 59.052 93.483 58.954 93.467 58.857 93.451 C 58.141 93.329 57.403 93.189 56.685 93.027 L 56.586 93.004 L 56.52 92.989 L 56.345 92.947 C 56.108 92.892 55.872 92.833 55.639 92.771 C 55.384 92.704 55.133 92.633 54.887 92.558 C 54.542 92.456 54.209 92.345 53.889 92.229 C 52.812 91.836 51.9 91.366 51.306 90.806 L 51.104 90.8 L 51.104 90.8 L 45.998 90.671 L 45.909 90.671 L 45.882 90.671 L 45.792 90.671 L 42.813 90.59 L 42.563 90.584 L 42.438 90.584 L 38.196 90.635 C 37.858 90.125 37.528 89.608 37.206 89.086 C 36.71 88.284 36.229 87.471 35.753 86.664 C 34.938 85.291 34.108 83.874 33.827 82.304 C 33.664 81.364 33.681 80.402 33.879 79.468 C 33.953 79.11 34.045 78.756 34.157 78.407 C 34.174 78.356 34.189 78.307 34.207 78.257 L 50.631 78.257 L 50.748 78.293 C 50.863 78.328 51.058 78.388 51.313 78.463 L 51.398 78.489 L 51.398 78.489 C 51.426 78.497 51.454 78.506 51.484 78.514 C 52.986 78.956 56.013 79.829 56.795 79.829 L 58.249 79.829 L 65.476 79.847 L 72.071 79.864 L 84.168 79.897 Z" opacity="0.1" style=""/>
    <path d="M 85.814 80.054 L 85.814 97.119 L 64.84 97.119 L 64.54 94.263 C 64.54 94.263 62.025 94.117 59.13 93.647 C 58.964 93.619 58.796 93.592 58.627 93.562 C 57.937 93.442 57.233 93.304 56.543 93.144 L 56.405 93.112 C 56.146 93.052 55.891 92.988 55.639 92.921 C 55.391 92.856 55.147 92.787 54.908 92.716 C 54.568 92.613 54.239 92.506 53.924 92.393 C 52.831 91.997 51.905 91.523 51.307 90.957 L 50.861 90.945 L 50.861 90.945 L 45.87 90.819 L 45.78 90.819 L 45.752 90.819 L 45.661 90.819 L 42.709 90.743 L 42.437 90.737 L 42.437 90.737 L 38.298 90.787 L 38.198 90.638 C 37.86 90.128 37.53 89.612 37.209 89.089 C 36.713 88.287 36.232 87.474 35.755 86.667 C 34.941 85.295 34.111 83.877 33.83 82.307 C 33.666 81.367 33.684 80.405 33.881 79.471 C 33.955 79.113 34.048 78.759 34.159 78.41 L 50.631 78.41 L 50.732 78.44 L 50.732 78.44 L 51.278 78.602 L 51.364 78.628 L 51.364 78.628 L 51.451 78.653 C 52.94 79.097 56.005 79.983 56.793 79.983 L 58.174 79.983 L 65.322 80.001 L 71.935 80.019 C 76.724 80.031 81.419 80.044 83.933 80.05 Z" opacity="0.1" style=""/>
    <polygon points="90.175 76.071 90.175 78.774 85.815 82.031 83.935 80.049 90.175 76.071" fill="#333333" class="colored-path" style=""/>
    <polygon points="90.175 76.071 90.175 78.774 85.815 82.031 83.935 80.049 90.175 76.071" opacity="0.1" style=""/>
    <polygon points="92.432 79.051 90.175 78.774 85.815 82.031 85.815 83.736 92.432 79.051" fill="#333333" class="colored-path" style=""/>
    <polygon points="93.384 76.071 93.384 81.731 94.838 83.334 85.815 92.046 85.815 83.736 92.432 79.051 90.175 78.774 90.175 76.071 93.384 76.071" fill="#333333" class="colored-path" style=""/>
    <polygon points="93.384 76.071 93.384 81.731 94.838 83.334 85.815 92.046 85.815 83.736 92.432 79.051 90.175 78.774 90.175 76.071 93.384 76.071" opacity="0.1" style=""/>
    <polygon points="93.936 83.384 99.85 83.062 99.398 87.76 92.532 96.911 92.733 90.301 87.471 90.301 93.936 83.384" opacity="0.1" style=""/>
    <polygon points="94.086 83.384 100 83.062 99.549 87.76 92.683 96.911 92.883 90.301 87.622 90.301 94.086 83.384" fill="#333333" class="colored-path" style=""/>
    <polygon points="97.945 86.091 94.938 86.091 91.129 90.301 92.983 90.301 92.943 91.65 97.945 86.091" opacity="0.1" style=""/>
    <polygon points="97.745 86.091 94.737 86.091 90.928 90.301 92.783 90.301 92.742 91.65 97.745 86.091" opacity="0.1" style=""/>
    <polygon points="97.845 86.091 94.838 86.091 91.029 90.301 92.883 90.301 92.842 91.65 97.845 86.091" fill="#dce6f2" style=""/>
    <polygon points="92.783 96.811 85.915 97.02 85.915 91.946 87.722 90.201 92.983 90.201 92.783 96.811" opacity="0.1" style=""/>
    <polygon points="92.683 96.911 85.815 97.12 85.815 92.046 87.622 90.301 92.883 90.301 92.683 96.911" fill="#333333" class="colored-path" style=""/>
    <polygon points="92.683 96.911 85.815 97.12 85.815 92.046 87.622 90.301 92.883 90.301 92.683 96.911" opacity="0.1" style=""/>
    <line x1="94.41" y1="86.597" x2="97.309" y2="86.72" stroke="#000" stroke-miterlimit="10" opacity="0.1" style=""/>
    <line x1="93.939" y1="87.114" x2="96.837" y2="87.238" stroke="#000" stroke-miterlimit="10" opacity="0.1" style=""/>
    <line x1="93.468" y1="87.631" x2="96.366" y2="87.755" stroke="#000" stroke-miterlimit="10" opacity="0.1" style=""/>
    <line x1="92.995" y1="88.149" x2="95.894" y2="88.272" stroke="#000" stroke-miterlimit="10" opacity="0.1" style=""/>
    <line x1="92.524" y1="88.665" x2="95.422" y2="88.79" stroke="#000" stroke-miterlimit="10" opacity="0.1" style=""/>
    <line x1="92.052" y1="89.183" x2="94.951" y2="89.306" stroke="#000" stroke-miterlimit="10" opacity="0.1" style=""/>
    <line x1="91.58" y1="89.7" x2="94.478" y2="89.824" stroke="#000" stroke-miterlimit="10" opacity="0.1" style=""/>
    <line x1="91.108" y1="90.217" x2="94.007" y2="90.34" stroke="#000" stroke-miterlimit="10" opacity="0.1" style=""/>
  </g>
</svg>