<?xml version="1.0" encoding="utf-8"?>
<svg viewBox="0 0 200 199" xmlns="http://www.w3.org/2000/svg">
  <path d="M 184.428 95.532 L 23.589 2.67 C 20.289 0.767 16.168 3.147 16.168 6.954 L 16.168 192.678 C 16.168 196.488 20.289 198.867 23.589 196.962 L 184.428 104.1 C 187.726 102.196 187.728 97.436 184.428 95.532 C 184.428 95.532 184.428 95.532 184.428 95.532 L 23.589 2.67 C 20.289 0.767 16.168 3.147 16.168 6.954 L 16.168 192.678 C 16.168 196.488 20.289 198.867 23.589 196.962 L 184.428 104.1 C 187.726 102.196 187.728 97.436 184.428 95.532 C 184.428 95.532 184.428 95.532 184.428 95.532 Z" style="fill: rgb(34, 40, 49); stroke: rgb(7, 153, 146); stroke-width: 2px;" class="play-icon-triangle"/>
  <g style="" transform="matrix(0.335506, 0, 0, 0.335506, 63.806656, 58.28347)">
    <title>Note</title>
    <path d="M -22.581 19.204 L -22.581 150.654 C -26.966 149.242 -31.547 148.536 -36.153 148.561 C -55.698 148.561 -71.57 162.391 -71.57 181.936 C -71.57 201.48 -55.698 215.157 -36.153 215.157 C -16.609 215.157 -0.639 200.767 -0.639 179.886 L -0.639 88.603 L 102.433 88.603 L 102.433 150.654 C 98.048 149.242 93.467 148.536 88.861 148.561 C 69.317 148.561 53.444 162.391 53.444 181.936 C 53.444 201.48 69.317 215.157 88.861 215.157 C 108.405 215.157 124.376 200.767 124.376 179.886 L 124.376 19.204 Z M 102.437 68.192 L -0.635 68.192 L -0.635 41.151 L 102.437 41.151 Z" fill="#066761" class="note-main" style=""/>
    <g opacity="0.1" transform="matrix(0.391907, 0, 0, 0.391907, -224.582153, -44.308331)" class="note-shadow" style="">
      <path d="M871.84,420.25h-263V653.19c0,53.26-40.75,90-90.62,90a100.13,100.13,0,0,1-34.82-6.11,97.54,97.54,0,0,0,47.82,12.11c49.87,0,90.62-36.72,90.62-90V426.25h250Z" transform="translate(-50.4 -87.11)"/>
      <polygon points="558.42 281.05 571.42 281.05 571.42 218.04 821.44 218.04 821.44 212.04 558.42 212.04 558.42 281.05"/>
      <path d="M927.83,249.17v404c0,53.26-40.75,90-90.62,90a100.13,100.13,0,0,1-34.82-6.11,97.54,97.54,0,0,0,47.82,12.11c49.87,0,90.62-36.72,90.62-90v-410Z" transform="translate(-50.4 -87.11)"/>
    </g>
  </g>
</svg>