<?xml version="1.0" encoding="utf-8"?>
<svg viewBox="0 0 100 25.6" xmlns="http://www.w3.org/2000/svg">
  <path d="M 41.099 23.07 C 41.046 22.97 40.969 22.787 40.869 22.52 C 40.769 22.253 40.662 21.97 40.549 21.67 C 40.429 21.37 40.316 21.087 40.209 20.82 C 40.102 20.553 40.022 20.37 39.969 20.27 C 39.936 20.203 39.906 20.137 39.879 20.07 C 39.859 20.003 39.816 19.953 39.749 19.92 C 39.376 20.273 38.969 20.64 38.529 21.02 C 38.089 21.407 37.622 21.753 37.129 22.06 C 36.642 22.367 36.132 22.617 35.599 22.81 C 35.066 23.003 34.532 23.1 33.999 23.1 C 33.412 23.1 32.952 22.897 32.619 22.49 C 32.286 22.077 32.029 21.583 31.849 21.01 C 31.662 20.437 31.546 19.85 31.499 19.25 C 31.446 18.65 31.419 18.157 31.419 17.77 C 31.419 17.003 31.546 16.31 31.799 15.69 C 32.046 15.063 32.399 14.53 32.859 14.09 C 33.319 13.643 33.866 13.303 34.499 13.07 C 35.132 12.837 35.839 12.72 36.619 12.72 C 37.172 12.72 37.656 12.85 38.069 13.11 C 38.489 13.37 38.842 13.703 39.129 14.11 C 39.422 14.517 39.666 14.963 39.859 15.45 C 40.052 15.93 40.216 16.397 40.349 16.85 C 40.496 16.763 40.672 16.567 40.879 16.26 C 41.092 15.953 41.309 15.613 41.529 15.24 C 41.756 14.86 41.972 14.483 42.179 14.11 C 42.392 13.737 42.556 13.433 42.669 13.2 C 42.722 13.113 42.836 12.9 43.009 12.56 C 43.182 12.22 43.372 11.85 43.579 11.45 C 43.792 11.05 43.986 10.673 44.159 10.32 C 44.332 9.973 44.446 9.757 44.499 9.67 C 44.512 9.637 44.552 9.577 44.619 9.49 C 44.686 9.397 44.729 9.333 44.749 9.3 C 44.729 9.3 44.719 9.29 44.719 9.27 L 44.719 9.22 L 44.719 9.15 C 43.952 9.15 43.216 9.09 42.509 8.97 C 41.802 8.857 41.182 8.64 40.649 8.32 C 40.116 8.007 39.686 7.573 39.359 7.02 C 39.032 6.473 38.869 5.75 38.869 4.85 C 38.869 4.797 38.872 4.67 38.879 4.47 C 38.892 4.27 38.899 4.137 38.899 4.07 C 38.946 3.903 39.036 3.767 39.169 3.66 C 39.302 3.553 39.452 3.483 39.619 3.45 C 39.772 3.417 39.886 3.5 39.959 3.7 C 40.032 3.9 40.099 4.167 40.159 4.5 C 40.219 4.833 40.292 5.19 40.379 5.57 C 40.472 5.957 40.632 6.32 40.859 6.66 C 41.086 7 41.386 7.297 41.759 7.55 C 42.132 7.797 42.636 7.94 43.269 7.98 C 43.302 7.98 43.416 7.983 43.609 7.99 C 43.802 7.997 43.966 8 44.099 8 C 44.179 8 44.299 8 44.459 8 C 44.619 8 44.776 7.997 44.929 7.99 C 45.089 7.983 45.239 7.957 45.379 7.91 C 45.526 7.87 45.632 7.81 45.699 7.73 C 45.799 7.61 45.969 7.403 46.209 7.11 C 46.449 6.817 46.696 6.513 46.949 6.2 C 47.196 5.887 47.436 5.583 47.669 5.29 C 47.902 4.997 48.069 4.79 48.169 4.67 C 48.456 4.39 48.772 4.107 49.119 3.82 C 49.472 3.54 49.839 3.29 50.219 3.07 C 50.606 2.857 51.006 2.683 51.419 2.55 C 51.839 2.417 52.266 2.35 52.699 2.35 C 52.999 2.35 53.252 2.407 53.459 2.52 C 53.666 2.64 53.829 2.797 53.949 2.99 C 54.062 3.177 54.139 3.393 54.179 3.64 C 54.226 3.88 54.249 4.123 54.249 4.37 C 54.249 4.857 54.126 5.283 53.879 5.65 C 53.639 6.017 53.329 6.34 52.949 6.62 C 52.562 6.907 52.149 7.15 51.709 7.35 C 51.269 7.55 50.849 7.717 50.449 7.85 C 50.316 7.897 50.072 7.97 49.719 8.07 C 49.372 8.177 48.992 8.29 48.579 8.41 C 48.172 8.537 47.789 8.65 47.429 8.75 C 47.076 8.85 46.822 8.907 46.669 8.92 C 46.556 9.04 46.426 9.183 46.279 9.35 C 46.139 9.517 46.036 9.667 45.969 9.8 L 42.899 15.42 C 42.879 15.42 42.856 15.433 42.829 15.46 C 42.809 15.487 42.789 15.507 42.769 15.52 C 42.769 15.56 42.746 15.623 42.699 15.71 C 42.646 15.803 42.596 15.903 42.549 16.01 C 42.496 16.117 42.446 16.22 42.399 16.32 C 42.346 16.42 42.319 16.48 42.319 16.5 C 42.272 16.567 42.186 16.697 42.059 16.89 C 41.932 17.077 41.796 17.277 41.649 17.49 C 41.496 17.697 41.356 17.89 41.229 18.07 C 41.109 18.257 41.022 18.383 40.969 18.45 L 40.969 18.52 L 40.969 18.57 C 41.089 19.003 41.192 19.377 41.279 19.69 C 41.372 19.997 41.466 20.29 41.559 20.57 C 41.652 20.857 41.766 21.157 41.899 21.47 C 42.032 21.79 42.206 22.167 42.419 22.6 C 42.486 22.713 42.579 22.82 42.699 22.92 C 42.812 23.02 42.932 23.123 43.059 23.23 C 43.186 23.323 43.292 23.427 43.379 23.54 C 43.472 23.647 43.519 23.757 43.519 23.87 C 43.519 24.177 43.369 24.33 43.069 24.33 C 42.636 24.33 42.252 24.203 41.919 23.95 C 41.586 23.697 41.312 23.403 41.099 23.07 Z M 32.669 17.52 C 32.669 17.72 32.686 18.05 32.719 18.51 C 32.752 18.97 32.822 19.437 32.929 19.91 C 33.042 20.383 33.209 20.803 33.429 21.17 C 33.656 21.537 33.962 21.72 34.349 21.72 C 34.796 21.72 35.199 21.62 35.559 21.42 C 35.919 21.22 36.299 21.037 36.699 20.87 L 39.269 18.45 L 39.269 18.35 C 39.269 18.05 39.199 17.657 39.059 17.17 C 38.919 16.69 38.722 16.217 38.469 15.75 C 38.222 15.283 37.932 14.887 37.599 14.56 C 37.266 14.233 36.906 14.07 36.519 14.07 C 35.972 14.07 35.459 14.137 34.979 14.27 C 34.506 14.403 34.102 14.613 33.769 14.9 C 33.436 15.187 33.169 15.543 32.969 15.97 C 32.769 16.403 32.669 16.92 32.669 17.52 Z M 52.469 3.7 C 52.069 3.7 51.669 3.783 51.269 3.95 C 50.869 4.117 50.486 4.333 50.119 4.6 C 49.752 4.867 49.412 5.16 49.099 5.48 C 48.779 5.793 48.502 6.09 48.269 6.37 C 48.202 6.443 48.122 6.543 48.029 6.67 C 47.942 6.803 47.852 6.927 47.759 7.04 C 47.666 7.147 47.586 7.247 47.519 7.34 C 47.452 7.433 47.419 7.48 47.419 7.48 L 47.419 7.6 L 47.519 7.6 C 47.532 7.6 47.649 7.567 47.869 7.5 C 48.089 7.433 48.342 7.353 48.629 7.26 C 48.922 7.167 49.219 7.077 49.519 6.99 C 49.819 6.897 50.052 6.817 50.219 6.75 C 50.472 6.663 50.759 6.55 51.079 6.41 C 51.406 6.27 51.716 6.1 52.009 5.9 C 52.302 5.7 52.549 5.477 52.749 5.23 C 52.949 4.977 53.049 4.69 53.049 4.37 C 53.049 4.103 53.009 3.927 52.929 3.84 C 52.856 3.747 52.702 3.7 52.469 3.7 ZM 48.441 21.27 L 48.791 19.05 C 48.811 18.963 48.861 18.813 48.941 18.6 C 49.028 18.38 49.115 18.147 49.201 17.9 C 49.295 17.647 49.385 17.413 49.471 17.2 C 49.551 16.98 49.608 16.83 49.641 16.75 C 49.741 16.483 49.838 16.307 49.931 16.22 C 50.025 16.14 50.195 16.1 50.441 16.1 C 50.708 16.1 50.885 16.19 50.971 16.37 C 51.051 16.557 51.091 16.773 51.091 17.02 C 51.091 17.453 51.028 17.85 50.901 18.21 C 50.781 18.57 50.645 18.93 50.491 19.29 C 50.338 19.643 50.201 20.027 50.081 20.44 C 49.955 20.847 49.891 21.317 49.891 21.85 C 49.891 21.917 49.891 22.013 49.891 22.14 C 49.891 22.26 49.901 22.383 49.921 22.51 C 49.935 22.637 49.968 22.747 50.021 22.84 C 50.068 22.927 50.135 22.97 50.221 22.97 C 50.655 22.97 51.091 22.883 51.531 22.71 C 51.971 22.537 52.405 22.33 52.831 22.09 C 53.258 21.843 53.665 21.577 54.051 21.29 C 54.445 20.997 54.801 20.74 55.121 20.52 C 55.235 20.44 55.321 20.357 55.381 20.27 C 55.441 20.19 55.495 20.113 55.541 20.04 C 55.595 19.96 55.658 19.893 55.731 19.84 C 55.805 19.78 55.925 19.75 56.091 19.75 C 56.311 19.75 56.491 19.797 56.631 19.89 C 56.771 19.977 56.841 20.137 56.841 20.37 C 56.841 20.47 56.838 20.563 56.831 20.65 C 56.825 20.73 56.778 20.803 56.691 20.87 C 56.678 20.923 56.615 20.99 56.501 21.07 C 56.395 21.157 56.285 21.247 56.171 21.34 C 56.051 21.427 55.941 21.51 55.841 21.59 C 55.741 21.663 55.668 21.707 55.621 21.72 C 55.601 21.72 55.555 21.743 55.481 21.79 C 55.408 21.83 55.361 21.85 55.341 21.85 C 55.328 21.863 55.308 21.883 55.281 21.91 C 55.255 21.937 55.241 21.957 55.241 21.97 C 54.895 22.237 54.515 22.51 54.101 22.79 C 53.695 23.063 53.268 23.313 52.821 23.54 C 52.368 23.76 51.905 23.947 51.431 24.1 C 50.958 24.253 50.488 24.33 50.021 24.33 C 49.621 24.33 49.315 24.223 49.101 24.01 C 48.895 23.803 48.741 23.543 48.641 23.23 C 48.541 22.91 48.485 22.573 48.471 22.22 C 48.451 21.873 48.441 21.557 48.441 21.27 Z M 49.991 12.47 C 49.991 12.17 50.051 11.97 50.171 11.87 C 50.285 11.77 50.491 11.72 50.791 11.72 C 50.945 11.72 51.095 11.75 51.241 11.81 C 51.395 11.87 51.471 12.007 51.471 12.22 C 51.471 12.44 51.365 12.64 51.151 12.82 C 50.945 13.007 50.741 13.1 50.541 13.1 C 50.341 13.1 50.201 13.037 50.121 12.91 C 50.035 12.783 49.991 12.637 49.991 12.47 ZM 57.445 21.5 L 57.715 19.77 C 57.715 19.77 57.728 19.76 57.755 19.74 C 57.782 19.713 57.802 19.69 57.815 19.67 C 57.848 19.523 57.915 19.267 58.015 18.9 C 58.115 18.533 58.225 18.137 58.345 17.71 C 58.458 17.283 58.568 16.887 58.675 16.52 C 58.788 16.153 58.868 15.903 58.915 15.77 C 58.935 15.703 58.988 15.56 59.075 15.34 C 59.168 15.113 59.275 14.867 59.395 14.6 C 59.508 14.333 59.625 14.067 59.745 13.8 C 59.858 13.533 59.942 13.333 59.995 13.2 C 60.108 12.967 60.285 12.657 60.525 12.27 C 60.772 11.89 61.048 11.53 61.355 11.19 C 61.662 10.843 61.982 10.543 62.315 10.29 C 62.648 10.03 62.958 9.9 63.245 9.9 C 63.392 9.9 63.512 9.94 63.605 10.02 C 63.698 10.107 63.765 10.203 63.805 10.31 C 63.845 10.417 63.875 10.537 63.895 10.67 C 63.908 10.803 63.915 10.92 63.915 11.02 C 63.915 11.887 63.795 12.75 63.555 13.61 C 63.315 14.47 62.985 15.293 62.565 16.08 C 62.152 16.86 61.655 17.597 61.075 18.29 C 60.502 18.977 59.898 19.597 59.265 20.15 C 59.252 20.197 59.232 20.297 59.205 20.45 C 59.178 20.597 59.158 20.703 59.145 20.77 L 59.145 20.82 C 59.145 21.153 59.232 21.42 59.405 21.62 C 59.578 21.82 59.792 21.967 60.045 22.06 C 60.292 22.153 60.568 22.217 60.875 22.25 C 61.182 22.283 61.478 22.3 61.765 22.3 C 61.918 22.3 62.138 22.223 62.425 22.07 C 62.718 21.923 63.018 21.753 63.325 21.56 C 63.638 21.367 63.945 21.197 64.245 21.05 C 64.545 20.897 64.768 20.82 64.915 20.82 C 65.068 20.82 65.185 20.87 65.265 20.97 C 65.345 21.07 65.385 21.197 65.385 21.35 C 65.385 21.597 65.195 21.863 64.815 22.15 C 64.435 22.43 63.995 22.693 63.495 22.94 C 62.995 23.18 62.515 23.383 62.055 23.55 C 61.595 23.717 61.292 23.8 61.145 23.8 C 60.645 23.9 60.178 23.903 59.745 23.81 C 59.312 23.717 58.935 23.56 58.615 23.34 C 58.302 23.113 58.038 22.837 57.825 22.51 C 57.618 22.19 57.492 21.853 57.445 21.5 Z M 62.445 12.6 L 62.445 12.32 C 62.292 12.32 62.118 12.443 61.925 12.69 C 61.738 12.93 61.552 13.207 61.365 13.52 C 61.185 13.84 61.022 14.147 60.875 14.44 C 60.735 14.727 60.658 14.92 60.645 15.02 C 60.592 15.14 60.515 15.333 60.415 15.6 C 60.315 15.867 60.215 16.147 60.115 16.44 C 60.015 16.727 59.918 17.003 59.825 17.27 C 59.738 17.537 59.678 17.73 59.645 17.85 L 59.765 17.85 C 59.765 17.85 59.815 17.787 59.915 17.66 C 60.015 17.533 60.128 17.387 60.255 17.22 C 60.382 17.053 60.515 16.883 60.655 16.71 C 60.795 16.537 60.898 16.39 60.965 16.27 C 61.032 16.17 61.125 16.017 61.245 15.81 C 61.358 15.603 61.432 15.473 61.465 15.42 C 61.532 15.24 61.625 14.997 61.745 14.69 C 61.858 14.377 61.965 14.07 62.065 13.77 C 62.165 13.47 62.252 13.21 62.325 12.99 C 62.405 12.763 62.445 12.633 62.445 12.6 ZM 64.714 21.27 L 65.064 19.05 C 65.084 18.963 65.134 18.813 65.214 18.6 C 65.301 18.38 65.387 18.147 65.474 17.9 C 65.567 17.647 65.657 17.413 65.744 17.2 C 65.824 16.98 65.881 16.83 65.914 16.75 C 66.014 16.483 66.111 16.307 66.204 16.22 C 66.297 16.14 66.467 16.1 66.714 16.1 C 66.981 16.1 67.157 16.19 67.244 16.37 C 67.324 16.557 67.364 16.773 67.364 17.02 C 67.364 17.453 67.301 17.85 67.174 18.21 C 67.054 18.57 66.917 18.93 66.764 19.29 C 66.611 19.643 66.474 20.027 66.354 20.44 C 66.227 20.847 66.164 21.317 66.164 21.85 C 66.164 21.917 66.164 22.013 66.164 22.14 C 66.164 22.26 66.174 22.383 66.194 22.51 C 66.207 22.637 66.241 22.747 66.294 22.84 C 66.341 22.927 66.407 22.97 66.494 22.97 C 66.927 22.97 67.364 22.883 67.804 22.71 C 68.244 22.537 68.677 22.33 69.104 22.09 C 69.531 21.843 69.937 21.577 70.324 21.29 C 70.717 20.997 71.074 20.74 71.394 20.52 C 71.507 20.44 71.594 20.357 71.654 20.27 C 71.714 20.19 71.767 20.113 71.814 20.04 C 71.867 19.96 71.931 19.893 72.004 19.84 C 72.077 19.78 72.197 19.75 72.364 19.75 C 72.584 19.75 72.764 19.797 72.904 19.89 C 73.044 19.977 73.114 20.137 73.114 20.37 C 73.114 20.47 73.111 20.563 73.104 20.65 C 73.097 20.73 73.051 20.803 72.964 20.87 C 72.951 20.923 72.887 20.99 72.774 21.07 C 72.667 21.157 72.557 21.247 72.444 21.34 C 72.324 21.427 72.214 21.51 72.114 21.59 C 72.014 21.663 71.941 21.707 71.894 21.72 C 71.874 21.72 71.827 21.743 71.754 21.79 C 71.681 21.83 71.634 21.85 71.614 21.85 C 71.601 21.863 71.581 21.883 71.554 21.91 C 71.527 21.937 71.514 21.957 71.514 21.97 C 71.167 22.237 70.787 22.51 70.374 22.79 C 69.967 23.063 69.541 23.313 69.094 23.54 C 68.641 23.76 68.177 23.947 67.704 24.1 C 67.231 24.253 66.761 24.33 66.294 24.33 C 65.894 24.33 65.587 24.223 65.374 24.01 C 65.167 23.803 65.014 23.543 64.914 23.23 C 64.814 22.91 64.757 22.573 64.744 22.22 C 64.724 21.873 64.714 21.557 64.714 21.27 Z M 66.264 12.47 C 66.264 12.17 66.324 11.97 66.444 11.87 C 66.557 11.77 66.764 11.72 67.064 11.72 C 67.217 11.72 67.367 11.75 67.514 11.81 C 67.667 11.87 67.744 12.007 67.744 12.22 C 67.744 12.44 67.637 12.64 67.424 12.82 C 67.217 13.007 67.014 13.1 66.814 13.1 C 66.614 13.1 66.474 13.037 66.394 12.91 C 66.307 12.783 66.264 12.637 66.264 12.47 ZM 73.988 23.55 C 73.988 23.497 73.988 23.37 73.988 23.17 C 73.988 22.97 73.988 22.837 73.988 22.77 C 73.708 21.77 73.671 20.787 73.878 19.82 C 74.084 18.853 74.458 17.983 74.998 17.21 C 75.544 16.437 76.238 15.787 77.078 15.26 C 77.918 14.733 78.838 14.413 79.838 14.3 L 80.288 14.3 C 80.654 14.3 80.958 14.38 81.198 14.54 C 81.444 14.693 81.638 14.897 81.778 15.15 C 81.918 15.397 82.018 15.68 82.078 16 C 82.131 16.313 82.158 16.63 82.158 16.95 C 82.158 17.383 82.114 17.803 82.028 18.21 C 81.934 18.617 81.834 19.03 81.728 19.45 C 81.621 19.863 81.521 20.277 81.428 20.69 C 81.334 21.097 81.288 21.523 81.288 21.97 L 81.288 22.12 C 81.308 22.153 81.328 22.25 81.348 22.41 C 81.374 22.57 81.398 22.667 81.418 22.7 C 81.451 22.7 81.531 22.703 81.658 22.71 C 81.798 22.717 81.881 22.72 81.908 22.72 C 82.074 22.72 82.238 22.717 82.398 22.71 C 82.558 22.703 82.721 22.667 82.888 22.6 L 87.638 20.4 C 87.658 20.4 87.688 20.397 87.728 20.39 C 87.768 20.377 87.798 20.37 87.818 20.37 C 87.984 20.37 88.121 20.42 88.228 20.52 C 88.334 20.62 88.388 20.753 88.388 20.92 C 88.388 21.007 88.384 21.087 88.378 21.16 C 88.371 21.233 88.324 21.303 88.238 21.37 C 88.124 21.457 87.911 21.573 87.598 21.72 C 87.291 21.873 86.964 22.04 86.618 22.22 C 86.264 22.407 85.934 22.583 85.628 22.75 C 85.321 22.917 85.101 23.023 84.968 23.07 C 84.734 23.203 84.474 23.327 84.188 23.44 C 83.908 23.547 83.618 23.65 83.318 23.75 C 83.018 23.85 82.721 23.93 82.428 23.99 C 82.134 24.043 81.871 24.07 81.638 24.07 C 81.271 24.07 80.971 24.01 80.738 23.89 C 80.504 23.763 80.331 23.597 80.218 23.39 C 80.098 23.177 80.018 22.927 79.978 22.64 C 79.938 22.347 79.934 22.04 79.968 21.72 C 79.634 21.987 79.274 22.27 78.888 22.57 C 78.508 22.87 78.108 23.147 77.688 23.4 C 77.274 23.647 76.851 23.863 76.418 24.05 C 75.984 24.237 75.541 24.33 75.088 24.33 C 74.841 24.33 74.618 24.267 74.418 24.14 C 74.218 24.013 74.074 23.817 73.988 23.55 Z M 75.338 22.35 L 75.338 23.02 C 75.724 23.02 76.151 22.91 76.618 22.69 C 77.084 22.463 77.541 22.183 77.988 21.85 C 78.441 21.517 78.851 21.163 79.218 20.79 C 79.584 20.41 79.868 20.07 80.068 19.77 C 80.081 19.27 80.151 18.793 80.278 18.34 C 80.404 17.88 80.468 17.407 80.468 16.92 C 80.468 16.887 80.461 16.837 80.448 16.77 C 80.441 16.703 80.438 16.653 80.438 16.62 C 80.224 16.44 80.041 16.333 79.888 16.3 C 79.741 16.267 79.541 16.25 79.288 16.25 C 79.254 16.25 79.184 16.25 79.078 16.25 C 78.971 16.25 78.901 16.257 78.868 16.27 C 78.768 16.357 78.601 16.513 78.368 16.74 C 78.134 16.96 77.888 17.203 77.628 17.47 C 77.368 17.737 77.124 17.987 76.898 18.22 C 76.678 18.453 76.524 18.613 76.438 18.7 C 76.424 18.7 76.391 18.73 76.338 18.79 C 76.291 18.843 76.238 18.913 76.178 19 C 76.118 19.08 76.068 19.16 76.028 19.24 C 75.988 19.313 75.958 19.373 75.938 19.42 L 75.338 22.35 ZM 87.291 23.87 L 87.291 23.8 L 88.131 18.8 L 88.131 18.1 L 88.641 14.77 C 88.687 14.703 88.777 14.667 88.911 14.66 C 89.044 14.653 89.137 14.65 89.191 14.65 C 89.324 14.65 89.477 14.697 89.651 14.79 C 89.824 14.877 89.911 14.997 89.911 15.15 L 89.911 16.85 C 89.977 16.797 90.094 16.697 90.261 16.55 C 90.427 16.397 90.607 16.24 90.801 16.08 C 90.994 15.913 91.174 15.753 91.341 15.6 C 91.507 15.447 91.614 15.337 91.661 15.27 C 91.847 15.103 92.067 14.963 92.321 14.85 C 92.581 14.73 92.827 14.67 93.061 14.67 C 93.547 14.67 93.927 14.82 94.201 15.12 C 94.474 15.427 94.611 15.81 94.611 16.27 C 94.611 16.303 94.607 16.327 94.601 16.34 C 94.594 16.347 94.591 16.367 94.591 16.4 L 94.591 16.5 L 93.641 20.77 L 93.641 22.8 C 94.154 22.8 94.691 22.697 95.251 22.49 C 95.811 22.277 96.347 22.013 96.861 21.7 C 97.381 21.38 97.864 21.017 98.311 20.61 C 98.764 20.203 99.157 19.807 99.491 19.42 L 99.591 19.42 C 99.704 19.42 99.797 19.46 99.871 19.54 C 99.951 19.613 99.991 19.707 99.991 19.82 C 99.991 20.187 99.867 20.55 99.621 20.91 C 99.381 21.27 99.074 21.607 98.701 21.92 C 98.327 22.24 97.894 22.54 97.401 22.82 C 96.907 23.107 96.424 23.35 95.951 23.55 C 95.477 23.75 95.014 23.907 94.561 24.02 C 94.114 24.14 93.731 24.2 93.411 24.2 C 93.097 24.2 92.847 24.14 92.661 24.02 C 92.481 23.907 92.344 23.753 92.251 23.56 C 92.157 23.367 92.097 23.153 92.071 22.92 C 92.051 22.687 92.041 22.437 92.041 22.17 L 92.041 21.85 L 93.011 17 L 93.011 16.17 C 92.611 16.17 92.214 16.347 91.821 16.7 C 91.427 17.047 91.077 17.47 90.771 17.97 C 90.464 18.47 90.197 18.98 89.971 19.5 C 89.751 20.013 89.591 20.437 89.491 20.77 C 89.457 20.89 89.404 21.1 89.331 21.4 C 89.271 21.7 89.211 22.017 89.151 22.35 C 89.091 22.683 89.037 23 88.991 23.3 C 88.937 23.6 88.904 23.817 88.891 23.95 C 88.904 24.05 88.874 24.123 88.801 24.17 C 88.727 24.223 88.641 24.263 88.541 24.29 C 88.441 24.317 88.334 24.33 88.221 24.33 C 88.114 24.33 88.027 24.33 87.961 24.33 C 87.814 24.33 87.664 24.303 87.511 24.25 C 87.364 24.197 87.291 24.07 87.291 23.87 Z" transform="matrix(1, 0, 0, 1, 0, 0)" style="fill: rgb(7, 153, 146); stroke: rgb(7, 153, 146); stroke-width: 0px; white-space: pre; vector-effect: non-scaling-stroke;"/>
  <path class="holly-leaf" d="M 6.767 0 C 6.865 0.039 6.891 0.111 6.886 0.212 C 6.862 0.808 6.932 1.39 7.154 1.948 C 7.444 2.68 7.946 3.241 8.575 3.7 C 8.977 3.994 9.412 4.233 9.862 4.447 C 10.091 4.555 10.101 4.656 9.9 4.806 C 9.383 5.191 9.047 5.707 8.816 6.298 C 8.49 7.131 8.394 7.998 8.452 8.885 C 8.495 9.552 8.631 10.197 8.894 10.813 C 8.951 10.947 9.017 11.078 9.089 11.205 C 9.166 11.34 9.152 11.4 9.025 11.487 C 8.414 11.908 7.838 12.367 7.32 12.9 C 6.485 13.763 5.913 14.787 5.495 15.902 C 5.339 16.318 5.198 16.739 5.073 17.165 C 5.052 17.237 5.017 17.292 4.935 17.299 C 4.854 17.306 4.805 17.267 4.769 17.198 C 4.102 15.874 3.067 14.922 1.77 14.237 C 1.26 13.969 0.726 13.747 0.177 13.572 C 0.105 13.549 0.042 13.52 0 13.455 L 0 13.336 C 0.023 13.288 0.06 13.248 0.107 13.223 C 0.642 12.933 0.958 12.47 1.146 11.905 C 1.275 11.514 1.336 11.103 1.323 10.692 C 1.303 9.948 1.138 9.24 0.727 8.605 C 0.589 8.392 0.416 8.208 0.221 8.047 C 0.203 8.032 0.183 8.019 0.167 8.004 C 0.035 7.889 0.06 7.739 0.223 7.68 C 0.385 7.62 0.55 7.57 0.705 7.492 C 1.42 7.134 1.894 6.566 2.173 5.825 C 2.345 5.368 2.401 4.892 2.379 4.408 C 2.366 4.098 2.264 3.811 2.105 3.544 C 1.988 3.348 1.861 3.157 1.763 2.95 C 1.715 2.85 1.679 2.748 1.685 2.635 C 1.691 2.512 1.755 2.447 1.879 2.443 C 2.094 2.437 2.309 2.442 2.524 2.426 C 3.058 2.388 3.574 2.278 4.072 2.084 C 4.657 1.857 5.174 1.525 5.64 1.104 C 5.973 0.805 6.262 0.471 6.535 0.119 C 6.576 0.066 6.62 0.02 6.688 0.001 Z" style="fill: rgb(64, 160, 96);"/>
  <path class="holly-leaf" d="M 19.844 18.601 C 19.84 18.779 19.861 18.98 19.885 19.181 C 19.893 19.249 19.879 19.307 19.818 19.345 C 19.756 19.383 19.699 19.37 19.64 19.338 C 18.154 18.529 16.734 18.69 15.399 19.668 C 14.524 20.309 14.008 21.191 13.847 22.271 C 13.835 22.348 13.823 22.424 13.732 22.451 C 13.638 22.479 13.584 22.425 13.531 22.361 C 12.515 21.143 11.314 20.158 9.886 19.458 C 9.18 19.112 8.446 18.854 7.664 18.74 C 7.458 18.707 7.25 18.692 7.04 18.692 C 6.949 18.693 6.862 18.69 6.829 18.586 C 6.797 18.483 6.866 18.428 6.936 18.373 C 7.532 17.92 8.083 17.419 8.564 16.844 C 9.344 15.913 9.876 14.863 10.078 13.659 C 10.148 13.237 10.142 12.807 10.121 12.379 C 10.097 11.939 10.042 11.501 9.955 11.069 C 9.924 10.914 10.015 10.839 10.183 10.876 C 10.826 11.019 11.478 11.094 12.138 11.064 C 14.223 10.971 15.82 10.029 16.938 8.271 C 17.279 7.735 17.529 7.154 17.715 6.545 C 17.731 6.495 17.74 6.442 17.786 6.406 C 17.855 6.35 17.952 6.358 18.004 6.436 C 18.537 7.227 19.327 7.621 20.216 7.846 C 21.471 8.165 22.722 8.139 23.957 7.724 C 24.076 7.684 24.192 7.632 24.307 7.583 C 24.376 7.553 24.436 7.562 24.488 7.615 C 24.54 7.669 24.545 7.734 24.509 7.798 C 24.093 8.561 23.941 9.39 23.897 10.245 C 23.839 11.409 23.983 12.547 24.339 13.657 C 24.416 13.897 24.511 14.131 24.624 14.356 C 24.657 14.425 24.67 14.487 24.618 14.55 C 24.567 14.613 24.504 14.613 24.43 14.595 C 23.337 14.345 22.326 14.514 21.429 15.205 C 20.629 15.821 20.161 16.653 19.944 17.629 C 19.873 17.948 19.84 18.274 19.844 18.601 Z" style="fill: rgb(64, 160, 96);"/>
  <path class="holly-balls" d="M 2.787 21.106 C 1.698 21.107 0.814 20.221 0.82 19.13 C 0.823 18.044 1.708 17.168 2.795 17.171 C 3.881 17.173 4.76 18.055 4.757 19.141 C 4.757 20.226 3.876 21.105 2.787 21.106 Z" style="fill: rgb(224, 36, 49);"/>
  <path class="holly-balls" d="M 2.267 21.535 C 3.347 21.533 4.231 22.414 4.234 23.494 C 4.236 24.584 3.35 25.474 2.263 25.473 C 1.182 25.471 0.299 24.588 0.297 23.51 C 0.292 22.418 1.175 21.531 2.267 21.535 Z" style="fill: rgb(224, 36, 49);"/>
  <path class="holly-balls" d="M 8.412 21.739 C 8.416 22.823 7.535 23.707 6.447 23.71 C 5.369 23.713 4.481 22.838 4.478 21.767 C 4.474 20.662 5.34 19.782 6.43 19.778 C 7.527 19.774 8.408 20.647 8.412 21.739 Z" style="fill: rgb(224, 36, 49);"/>
  <path class="holly-leaf-center" d="M 3.799 10.408 C 3.84 10.03 3.809 9.676 3.841 9.322 C 3.914 8.514 4.028 7.713 4.239 6.927 C 4.396 6.348 4.587 5.783 4.834 5.237 C 4.934 5.016 5.046 4.802 5.152 4.584 C 5.188 4.511 5.246 4.485 5.324 4.5 C 5.394 4.512 5.43 4.559 5.447 4.626 C 5.456 4.662 5.44 4.691 5.429 4.721 C 5.187 5.408 5.018 6.114 4.883 6.828 C 4.798 7.267 4.733 7.711 4.675 8.155 C 4.623 8.56 4.583 8.966 4.54 9.372 C 4.518 9.585 4.513 9.8 4.498 10.013 C 4.465 10.432 4.449 10.851 4.433 11.271 C 4.426 11.444 4.428 11.62 4.417 11.795 C 4.395 12.228 4.399 12.662 4.4 13.096 C 4.4 13.189 4.391 13.281 4.415 13.373 C 4.427 13.414 4.416 13.456 4.399 13.498 C 4.368 13.569 4.317 13.601 4.242 13.593 C 4.162 13.584 4.115 13.536 4.102 13.459 C 4.032 13.034 3.961 12.609 3.917 12.179 C 3.886 11.865 3.863 11.549 3.836 11.234 C 3.812 10.95 3.852 10.665 3.799 10.408 Z" style="fill: rgb(22, 138, 91);"/>
  <path class="holly-leaf-center" d="M 11.328 17.376 C 11.249 17.371 11.197 17.338 11.175 17.271 C 11.152 17.199 11.162 17.134 11.235 17.091 C 11.434 16.972 11.633 16.854 11.83 16.733 C 12.455 16.353 13.078 15.972 13.702 15.591 C 14.597 15.046 15.482 14.483 16.359 13.911 C 16.972 13.511 17.58 13.106 18.184 12.694 C 19.083 12.084 19.967 11.452 20.835 10.796 C 21.069 10.619 21.297 10.433 21.526 10.249 C 21.659 10.144 21.783 10.167 21.823 10.306 C 21.841 10.374 21.803 10.421 21.764 10.465 C 21.676 10.567 21.582 10.666 21.489 10.764 C 21.27 10.989 21.058 11.223 20.829 11.439 C 20.448 11.801 20.063 12.157 19.661 12.498 C 19.185 12.902 18.696 13.289 18.194 13.659 C 17.586 14.106 16.961 14.526 16.318 14.92 C 15.665 15.319 14.999 15.693 14.318 16.042 C 13.787 16.313 13.248 16.565 12.704 16.808 C 12.272 17.001 11.833 17.176 11.392 17.351 C 11.369 17.361 11.344 17.37 11.328 17.376 Z" style="fill: rgb(22, 138, 91);"/>
</svg>