<?xml version="1.0" encoding="utf-8" ?>
<svg viewBox="0 0 256 25.6" xmlns="http://www.w3.org/2000/svg">
  <path d="M 12.137 22.893 C 12.084 22.793 12.007 22.61 11.907 22.343 C 11.807 22.076 11.7 21.793 11.587 21.493 C 11.467 21.193 11.354 20.91 11.247 20.643 C 11.14 20.376 11.06 20.193 11.007 20.093 C 10.974 20.026 10.944 19.96 10.917 19.893 C 10.897 19.826 10.854 19.776 10.787 19.743 C 10.414 20.096 10.007 20.463 9.567 20.843 C 9.127 21.23 8.66 21.576 8.167 21.883 C 7.68 22.19 7.17 22.44 6.637 22.633 C 6.104 22.826 5.57 22.923 5.037 22.923 C 4.45 22.923 3.99 22.72 3.657 22.313 C 3.324 21.9 3.067 21.406 2.887 20.833 C 2.7 20.26 2.584 19.673 2.537 19.073 C 2.484 18.473 2.457 17.98 2.457 17.593 C 2.457 16.826 2.584 16.133 2.837 15.513 C 3.084 14.886 3.437 14.353 3.897 13.913 C 4.357 13.466 4.904 13.126 5.537 12.893 C 6.17 12.66 6.877 12.543 7.657 12.543 C 8.21 12.543 8.694 12.673 9.107 12.933 C 9.527 13.193 9.88 13.526 10.167 13.933 C 10.46 14.34 10.704 14.786 10.897 15.273 C 11.09 15.753 11.254 16.22 11.387 16.673 C 11.534 16.586 11.71 16.39 11.917 16.083 C 12.13 15.776 12.347 15.436 12.567 15.063 C 12.794 14.683 13.01 14.306 13.217 13.933 C 13.43 13.56 13.594 13.256 13.707 13.023 C 13.76 12.936 13.874 12.723 14.047 12.383 C 14.22 12.043 14.41 11.673 14.617 11.273 C 14.83 10.873 15.024 10.496 15.197 10.143 C 15.37 9.796 15.484 9.58 15.537 9.493 C 15.55 9.46 15.59 9.4 15.657 9.313 C 15.724 9.22 15.767 9.156 15.787 9.123 C 15.767 9.123 15.757 9.113 15.757 9.093 L 15.757 9.043 L 15.757 8.973 C 14.99 8.973 14.254 8.913 13.547 8.793 C 12.84 8.68 12.22 8.463 11.687 8.143 C 11.154 7.83 10.724 7.396 10.397 6.843 C 10.07 6.296 9.907 5.573 9.907 4.673 C 9.907 4.62 9.91 4.493 9.917 4.293 C 9.93 4.093 9.937 3.96 9.937 3.893 C 9.984 3.726 10.074 3.59 10.207 3.483 C 10.34 3.376 10.49 3.306 10.657 3.273 C 10.81 3.24 10.924 3.323 10.997 3.523 C 11.07 3.723 11.137 3.99 11.197 4.323 C 11.257 4.656 11.33 5.013 11.417 5.393 C 11.51 5.78 11.67 6.143 11.897 6.483 C 12.124 6.823 12.424 7.12 12.797 7.373 C 13.17 7.62 13.674 7.763 14.307 7.803 C 14.34 7.803 14.454 7.806 14.647 7.813 C 14.84 7.82 15.004 7.823 15.137 7.823 C 15.217 7.823 15.337 7.823 15.497 7.823 C 15.657 7.823 15.814 7.82 15.967 7.813 C 16.127 7.806 16.277 7.78 16.417 7.733 C 16.564 7.693 16.67 7.633 16.737 7.553 C 16.837 7.433 17.007 7.226 17.247 6.933 C 17.487 6.64 17.734 6.336 17.987 6.023 C 18.234 5.71 18.474 5.406 18.707 5.113 C 18.94 4.82 19.107 4.613 19.207 4.493 C 19.494 4.213 19.81 3.93 20.157 3.643 C 20.51 3.363 20.877 3.113 21.257 2.893 C 21.644 2.68 22.044 2.506 22.457 2.373 C 22.877 2.24 23.304 2.173 23.737 2.173 C 24.037 2.173 24.29 2.23 24.497 2.343 C 24.704 2.463 24.867 2.62 24.987 2.813 C 25.1 3 25.177 3.216 25.217 3.463 C 25.264 3.703 25.287 3.946 25.287 4.193 C 25.287 4.68 25.164 5.106 24.917 5.473 C 24.677 5.84 24.367 6.163 23.987 6.443 C 23.6 6.73 23.187 6.973 22.747 7.173 C 22.307 7.373 21.887 7.54 21.487 7.673 C 21.354 7.72 21.11 7.793 20.757 7.893 C 20.41 8 20.03 8.113 19.617 8.233 C 19.21 8.36 18.827 8.473 18.467 8.573 C 18.114 8.673 17.86 8.73 17.707 8.743 C 17.594 8.863 17.464 9.006 17.317 9.173 C 17.177 9.34 17.074 9.49 17.007 9.623 L 13.937 15.243 C 13.917 15.243 13.894 15.256 13.867 15.283 C 13.847 15.31 13.827 15.33 13.807 15.343 C 13.807 15.383 13.784 15.446 13.737 15.533 C 13.684 15.626 13.634 15.726 13.587 15.833 C 13.534 15.94 13.484 16.043 13.437 16.143 C 13.384 16.243 13.357 16.303 13.357 16.323 C 13.31 16.39 13.224 16.52 13.097 16.713 C 12.97 16.9 12.834 17.1 12.687 17.313 C 12.534 17.52 12.394 17.713 12.267 17.893 C 12.147 18.08 12.06 18.206 12.007 18.273 L 12.007 18.343 L 12.007 18.393 C 12.127 18.826 12.23 19.2 12.317 19.513 C 12.41 19.82 12.504 20.113 12.597 20.393 C 12.69 20.68 12.804 20.98 12.937 21.293 C 13.07 21.613 13.244 21.99 13.457 22.423 C 13.524 22.536 13.617 22.643 13.737 22.743 C 13.85 22.843 13.97 22.946 14.097 23.053 C 14.224 23.146 14.33 23.25 14.417 23.363 C 14.51 23.47 14.557 23.58 14.557 23.693 C 14.557 24 14.407 24.153 14.107 24.153 C 13.674 24.153 13.29 24.026 12.957 23.773 C 12.624 23.52 12.35 23.226 12.137 22.893 Z M 3.707 17.343 C 3.707 17.543 3.724 17.873 3.757 18.333 C 3.79 18.793 3.86 19.26 3.967 19.733 C 4.08 20.206 4.247 20.626 4.467 20.993 C 4.694 21.36 5 21.543 5.387 21.543 C 5.834 21.543 6.237 21.443 6.597 21.243 C 6.957 21.043 7.337 20.86 7.737 20.693 L 10.307 18.273 L 10.307 18.173 C 10.307 17.873 10.237 17.48 10.097 16.993 C 9.957 16.513 9.76 16.04 9.507 15.573 C 9.26 15.106 8.97 14.71 8.637 14.383 C 8.304 14.056 7.944 13.893 7.557 13.893 C 7.01 13.893 6.497 13.96 6.017 14.093 C 5.544 14.226 5.14 14.436 4.807 14.723 C 4.474 15.01 4.207 15.366 4.007 15.793 C 3.807 16.226 3.707 16.743 3.707 17.343 Z M 23.507 3.523 C 23.107 3.523 22.707 3.606 22.307 3.773 C 21.907 3.94 21.524 4.156 21.157 4.423 C 20.79 4.69 20.45 4.983 20.137 5.303 C 19.817 5.616 19.54 5.913 19.307 6.193 C 19.24 6.266 19.16 6.366 19.067 6.493 C 18.98 6.626 18.89 6.75 18.797 6.863 C 18.704 6.97 18.624 7.07 18.557 7.163 C 18.49 7.256 18.457 7.303 18.457 7.303 L 18.457 7.423 L 18.557 7.423 C 18.57 7.423 18.687 7.39 18.907 7.323 C 19.127 7.256 19.38 7.176 19.667 7.083 C 19.96 6.99 20.257 6.9 20.557 6.813 C 20.857 6.72 21.09 6.64 21.257 6.573 C 21.51 6.486 21.797 6.373 22.117 6.233 C 22.444 6.093 22.754 5.923 23.047 5.723 C 23.34 5.523 23.587 5.3 23.787 5.053 C 23.987 4.8 24.087 4.513 24.087 4.193 C 24.087 3.926 24.047 3.75 23.967 3.663 C 23.894 3.57 23.74 3.523 23.507 3.523 ZM 19.479 21.093 L 19.829 18.873 C 19.849 18.786 19.899 18.636 19.979 18.423 C 20.066 18.203 20.153 17.97 20.239 17.723 C 20.333 17.47 20.423 17.236 20.509 17.023 C 20.589 16.803 20.646 16.653 20.679 16.573 C 20.779 16.306 20.876 16.13 20.969 16.043 C 21.063 15.963 21.233 15.923 21.479 15.923 C 21.746 15.923 21.923 16.013 22.009 16.193 C 22.089 16.38 22.129 16.596 22.129 16.843 C 22.129 17.276 22.066 17.673 21.939 18.033 C 21.819 18.393 21.683 18.753 21.529 19.113 C 21.376 19.466 21.239 19.85 21.119 20.263 C 20.993 20.67 20.929 21.14 20.929 21.673 C 20.929 21.74 20.929 21.836 20.929 21.963 C 20.929 22.083 20.939 22.206 20.959 22.333 C 20.973 22.46 21.006 22.57 21.059 22.663 C 21.106 22.75 21.173 22.793 21.259 22.793 C 21.693 22.793 22.129 22.706 22.569 22.533 C 23.009 22.36 23.443 22.153 23.869 21.913 C 24.296 21.666 24.703 21.4 25.089 21.113 C 25.483 20.82 25.839 20.563 26.159 20.343 C 26.273 20.263 26.359 20.18 26.419 20.093 C 26.479 20.013 26.533 19.936 26.579 19.863 C 26.633 19.783 26.696 19.716 26.769 19.663 C 26.843 19.603 26.963 19.573 27.129 19.573 C 27.349 19.573 27.529 19.62 27.669 19.713 C 27.809 19.8 27.879 19.96 27.879 20.193 C 27.879 20.293 27.876 20.386 27.869 20.473 C 27.863 20.553 27.816 20.626 27.729 20.693 C 27.716 20.746 27.653 20.813 27.539 20.893 C 27.433 20.98 27.323 21.07 27.209 21.163 C 27.089 21.25 26.979 21.333 26.879 21.413 C 26.779 21.486 26.706 21.53 26.659 21.543 C 26.639 21.543 26.593 21.566 26.519 21.613 C 26.446 21.653 26.399 21.673 26.379 21.673 C 26.366 21.686 26.346 21.706 26.319 21.733 C 26.293 21.76 26.279 21.78 26.279 21.793 C 25.933 22.06 25.553 22.333 25.139 22.613 C 24.733 22.886 24.306 23.136 23.859 23.363 C 23.406 23.583 22.943 23.77 22.469 23.923 C 21.996 24.076 21.526 24.153 21.059 24.153 C 20.659 24.153 20.353 24.046 20.139 23.833 C 19.933 23.626 19.779 23.366 19.679 23.053 C 19.579 22.733 19.523 22.396 19.509 22.043 C 19.489 21.696 19.479 21.38 19.479 21.093 Z M 21.029 12.293 C 21.029 11.993 21.089 11.793 21.209 11.693 C 21.323 11.593 21.529 11.543 21.829 11.543 C 21.983 11.543 22.133 11.573 22.279 11.633 C 22.433 11.693 22.509 11.83 22.509 12.043 C 22.509 12.263 22.403 12.463 22.189 12.643 C 21.983 12.83 21.779 12.923 21.579 12.923 C 21.379 12.923 21.239 12.86 21.159 12.733 C 21.073 12.606 21.029 12.46 21.029 12.293 ZM 28.483 21.323 L 28.753 19.593 C 28.753 19.593 28.766 19.583 28.793 19.563 C 28.82 19.536 28.84 19.513 28.853 19.493 C 28.886 19.346 28.953 19.09 29.053 18.723 C 29.153 18.356 29.263 17.96 29.383 17.533 C 29.496 17.106 29.606 16.71 29.713 16.343 C 29.826 15.976 29.906 15.726 29.953 15.593 C 29.973 15.526 30.026 15.383 30.113 15.163 C 30.206 14.936 30.313 14.69 30.433 14.423 C 30.546 14.156 30.663 13.89 30.783 13.623 C 30.896 13.356 30.98 13.156 31.033 13.023 C 31.146 12.79 31.323 12.48 31.563 12.093 C 31.81 11.713 32.086 11.353 32.393 11.013 C 32.7 10.666 33.02 10.366 33.353 10.113 C 33.686 9.853 33.996 9.723 34.283 9.723 C 34.43 9.723 34.55 9.763 34.643 9.843 C 34.736 9.93 34.803 10.026 34.843 10.133 C 34.883 10.24 34.913 10.36 34.933 10.493 C 34.946 10.626 34.953 10.743 34.953 10.843 C 34.953 11.71 34.833 12.573 34.593 13.433 C 34.353 14.293 34.023 15.116 33.603 15.903 C 33.19 16.683 32.693 17.42 32.113 18.113 C 31.54 18.8 30.936 19.42 30.303 19.973 C 30.29 20.02 30.27 20.12 30.243 20.273 C 30.216 20.42 30.196 20.526 30.183 20.593 L 30.183 20.643 C 30.183 20.976 30.27 21.243 30.443 21.443 C 30.616 21.643 30.83 21.79 31.083 21.883 C 31.33 21.976 31.606 22.04 31.913 22.073 C 32.22 22.106 32.516 22.123 32.803 22.123 C 32.956 22.123 33.176 22.046 33.463 21.893 C 33.756 21.746 34.056 21.576 34.363 21.383 C 34.676 21.19 34.983 21.02 35.283 20.873 C 35.583 20.72 35.806 20.643 35.953 20.643 C 36.106 20.643 36.223 20.693 36.303 20.793 C 36.383 20.893 36.423 21.02 36.423 21.173 C 36.423 21.42 36.233 21.686 35.853 21.973 C 35.473 22.253 35.033 22.516 34.533 22.763 C 34.033 23.003 33.553 23.206 33.093 23.373 C 32.633 23.54 32.33 23.623 32.183 23.623 C 31.683 23.723 31.216 23.726 30.783 23.633 C 30.35 23.54 29.973 23.383 29.653 23.163 C 29.34 22.936 29.076 22.66 28.863 22.333 C 28.656 22.013 28.53 21.676 28.483 21.323 Z M 33.483 12.423 L 33.483 12.143 C 33.33 12.143 33.156 12.266 32.963 12.513 C 32.776 12.753 32.59 13.03 32.403 13.343 C 32.223 13.663 32.06 13.97 31.913 14.263 C 31.773 14.55 31.696 14.743 31.683 14.843 C 31.63 14.963 31.553 15.156 31.453 15.423 C 31.353 15.69 31.253 15.97 31.153 16.263 C 31.053 16.55 30.956 16.826 30.863 17.093 C 30.776 17.36 30.716 17.553 30.683 17.673 L 30.803 17.673 C 30.803 17.673 30.853 17.61 30.953 17.483 C 31.053 17.356 31.166 17.21 31.293 17.043 C 31.42 16.876 31.553 16.706 31.693 16.533 C 31.833 16.36 31.936 16.213 32.003 16.093 C 32.07 15.993 32.163 15.84 32.283 15.633 C 32.396 15.426 32.47 15.296 32.503 15.243 C 32.57 15.063 32.663 14.82 32.783 14.513 C 32.896 14.2 33.003 13.893 33.103 13.593 C 33.203 13.293 33.29 13.033 33.363 12.813 C 33.443 12.586 33.483 12.456 33.483 12.423 ZM 35.752 21.093 L 36.102 18.873 C 36.122 18.786 36.172 18.636 36.252 18.423 C 36.339 18.203 36.425 17.97 36.512 17.723 C 36.605 17.47 36.695 17.236 36.782 17.023 C 36.862 16.803 36.919 16.653 36.952 16.573 C 37.052 16.306 37.149 16.13 37.242 16.043 C 37.335 15.963 37.505 15.923 37.752 15.923 C 38.019 15.923 38.195 16.013 38.282 16.193 C 38.362 16.38 38.402 16.596 38.402 16.843 C 38.402 17.276 38.339 17.673 38.212 18.033 C 38.092 18.393 37.955 18.753 37.802 19.113 C 37.649 19.466 37.512 19.85 37.392 20.263 C 37.265 20.67 37.202 21.14 37.202 21.673 C 37.202 21.74 37.202 21.836 37.202 21.963 C 37.202 22.083 37.212 22.206 37.232 22.333 C 37.245 22.46 37.279 22.57 37.332 22.663 C 37.379 22.75 37.445 22.793 37.532 22.793 C 37.965 22.793 38.402 22.706 38.842 22.533 C 39.282 22.36 39.715 22.153 40.142 21.913 C 40.569 21.666 40.975 21.4 41.362 21.113 C 41.755 20.82 42.112 20.563 42.432 20.343 C 42.545 20.263 42.632 20.18 42.692 20.093 C 42.752 20.013 42.805 19.936 42.852 19.863 C 42.905 19.783 42.969 19.716 43.042 19.663 C 43.115 19.603 43.235 19.573 43.402 19.573 C 43.622 19.573 43.802 19.62 43.942 19.713 C 44.082 19.8 44.152 19.96 44.152 20.193 C 44.152 20.293 44.149 20.386 44.142 20.473 C 44.135 20.553 44.089 20.626 44.002 20.693 C 43.989 20.746 43.925 20.813 43.812 20.893 C 43.705 20.98 43.595 21.07 43.482 21.163 C 43.362 21.25 43.252 21.333 43.152 21.413 C 43.052 21.486 42.979 21.53 42.932 21.543 C 42.912 21.543 42.865 21.566 42.792 21.613 C 42.719 21.653 42.672 21.673 42.652 21.673 C 42.639 21.686 42.619 21.706 42.592 21.733 C 42.565 21.76 42.552 21.78 42.552 21.793 C 42.205 22.06 41.825 22.333 41.412 22.613 C 41.005 22.886 40.579 23.136 40.132 23.363 C 39.679 23.583 39.215 23.77 38.742 23.923 C 38.269 24.076 37.799 24.153 37.332 24.153 C 36.932 24.153 36.625 24.046 36.412 23.833 C 36.205 23.626 36.052 23.366 35.952 23.053 C 35.852 22.733 35.795 22.396 35.782 22.043 C 35.762 21.696 35.752 21.38 35.752 21.093 Z M 37.302 12.293 C 37.302 11.993 37.362 11.793 37.482 11.693 C 37.595 11.593 37.802 11.543 38.102 11.543 C 38.255 11.543 38.405 11.573 38.552 11.633 C 38.705 11.693 38.782 11.83 38.782 12.043 C 38.782 12.263 38.675 12.463 38.462 12.643 C 38.255 12.83 38.052 12.923 37.852 12.923 C 37.652 12.923 37.512 12.86 37.432 12.733 C 37.345 12.606 37.302 12.46 37.302 12.293 ZM 45.026 23.373 C 45.026 23.32 45.026 23.193 45.026 22.993 C 45.026 22.793 45.026 22.66 45.026 22.593 C 44.746 21.593 44.709 20.61 44.916 19.643 C 45.122 18.676 45.496 17.806 46.036 17.033 C 46.582 16.26 47.276 15.61 48.116 15.083 C 48.956 14.556 49.876 14.236 50.876 14.123 L 51.326 14.123 C 51.692 14.123 51.996 14.203 52.236 14.363 C 52.482 14.516 52.676 14.72 52.816 14.973 C 52.956 15.22 53.056 15.503 53.116 15.823 C 53.169 16.136 53.196 16.453 53.196 16.773 C 53.196 17.206 53.152 17.626 53.066 18.033 C 52.972 18.44 52.872 18.853 52.766 19.273 C 52.659 19.686 52.559 20.1 52.466 20.513 C 52.372 20.92 52.326 21.346 52.326 21.793 L 52.326 21.943 C 52.346 21.976 52.366 22.073 52.386 22.233 C 52.412 22.393 52.436 22.49 52.456 22.523 C 52.489 22.523 52.569 22.526 52.696 22.533 C 52.836 22.54 52.919 22.543 52.946 22.543 C 53.112 22.543 53.276 22.54 53.436 22.533 C 53.596 22.526 53.759 22.49 53.926 22.423 L 58.676 20.223 C 58.696 20.223 58.726 20.22 58.766 20.213 C 58.806 20.2 58.836 20.193 58.856 20.193 C 59.022 20.193 59.159 20.243 59.266 20.343 C 59.372 20.443 59.426 20.576 59.426 20.743 C 59.426 20.83 59.422 20.91 59.416 20.983 C 59.409 21.056 59.362 21.126 59.276 21.193 C 59.162 21.28 58.949 21.396 58.636 21.543 C 58.329 21.696 58.002 21.863 57.656 22.043 C 57.302 22.23 56.972 22.406 56.666 22.573 C 56.359 22.74 56.139 22.846 56.006 22.893 C 55.772 23.026 55.512 23.15 55.226 23.263 C 54.946 23.37 54.656 23.473 54.356 23.573 C 54.056 23.673 53.759 23.753 53.466 23.813 C 53.172 23.866 52.909 23.893 52.676 23.893 C 52.309 23.893 52.009 23.833 51.776 23.713 C 51.542 23.586 51.369 23.42 51.256 23.213 C 51.136 23 51.056 22.75 51.016 22.463 C 50.976 22.17 50.972 21.863 51.006 21.543 C 50.672 21.81 50.312 22.093 49.926 22.393 C 49.546 22.693 49.146 22.97 48.726 23.223 C 48.312 23.47 47.889 23.686 47.456 23.873 C 47.022 24.06 46.579 24.153 46.126 24.153 C 45.879 24.153 45.656 24.09 45.456 23.963 C 45.256 23.836 45.112 23.64 45.026 23.373 Z M 46.376 22.173 L 46.376 22.843 C 46.762 22.843 47.189 22.733 47.656 22.513 C 48.122 22.286 48.579 22.006 49.026 21.673 C 49.479 21.34 49.889 20.986 50.256 20.613 C 50.622 20.233 50.906 19.893 51.106 19.593 C 51.119 19.093 51.189 18.616 51.316 18.163 C 51.442 17.703 51.506 17.23 51.506 16.743 C 51.506 16.71 51.499 16.66 51.486 16.593 C 51.479 16.526 51.476 16.476 51.476 16.443 C 51.262 16.263 51.079 16.156 50.926 16.123 C 50.779 16.09 50.579 16.073 50.326 16.073 C 50.292 16.073 50.222 16.073 50.116 16.073 C 50.009 16.073 49.939 16.08 49.906 16.093 C 49.806 16.18 49.639 16.336 49.406 16.563 C 49.172 16.783 48.926 17.026 48.666 17.293 C 48.406 17.56 48.162 17.81 47.936 18.043 C 47.716 18.276 47.562 18.436 47.476 18.523 C 47.462 18.523 47.429 18.553 47.376 18.613 C 47.329 18.666 47.276 18.736 47.216 18.823 C 47.156 18.903 47.106 18.983 47.066 19.063 C 47.026 19.136 46.996 19.196 46.976 19.243 L 46.376 22.173 ZM 58.329 23.693 L 58.329 23.623 L 59.169 18.623 L 59.169 17.923 L 59.679 14.593 C 59.725 14.526 59.815 14.49 59.949 14.483 C 60.082 14.476 60.175 14.473 60.229 14.473 C 60.362 14.473 60.515 14.52 60.689 14.613 C 60.862 14.7 60.949 14.82 60.949 14.973 L 60.949 16.673 C 61.015 16.62 61.132 16.52 61.299 16.373 C 61.465 16.22 61.645 16.063 61.839 15.903 C 62.032 15.736 62.212 15.576 62.379 15.423 C 62.545 15.27 62.652 15.16 62.699 15.093 C 62.885 14.926 63.105 14.786 63.359 14.673 C 63.619 14.553 63.865 14.493 64.099 14.493 C 64.585 14.493 64.965 14.643 65.239 14.943 C 65.512 15.25 65.649 15.633 65.649 16.093 C 65.649 16.126 65.645 16.15 65.639 16.163 C 65.632 16.17 65.629 16.19 65.629 16.223 L 65.629 16.323 L 64.679 20.593 L 64.679 22.623 C 65.192 22.623 65.729 22.52 66.289 22.313 C 66.849 22.1 67.385 21.836 67.899 21.523 C 68.419 21.203 68.902 20.84 69.349 20.433 C 69.802 20.026 70.195 19.63 70.529 19.243 L 70.629 19.243 C 70.742 19.243 70.835 19.283 70.909 19.363 C 70.989 19.436 71.029 19.53 71.029 19.643 C 71.029 20.01 70.905 20.373 70.659 20.733 C 70.419 21.093 70.112 21.43 69.739 21.743 C 69.365 22.063 68.932 22.363 68.439 22.643 C 67.945 22.93 67.462 23.173 66.989 23.373 C 66.515 23.573 66.052 23.73 65.599 23.843 C 65.152 23.963 64.769 24.023 64.449 24.023 C 64.135 24.023 63.885 23.963 63.699 23.843 C 63.519 23.73 63.382 23.576 63.289 23.383 C 63.195 23.19 63.135 22.976 63.109 22.743 C 63.089 22.51 63.079 22.26 63.079 21.993 L 63.079 21.673 L 64.049 16.823 L 64.049 15.993 C 63.649 15.993 63.252 16.17 62.859 16.523 C 62.465 16.87 62.115 17.293 61.809 17.793 C 61.502 18.293 61.235 18.803 61.009 19.323 C 60.789 19.836 60.629 20.26 60.529 20.593 C 60.495 20.713 60.442 20.923 60.369 21.223 C 60.309 21.523 60.249 21.84 60.189 22.173 C 60.129 22.506 60.075 22.823 60.029 23.123 C 59.975 23.423 59.942 23.64 59.929 23.773 C 59.942 23.873 59.912 23.946 59.839 23.993 C 59.765 24.046 59.679 24.086 59.579 24.113 C 59.479 24.14 59.372 24.153 59.259 24.153 C 59.152 24.153 59.065 24.153 58.999 24.153 C 58.852 24.153 58.702 24.126 58.549 24.073 C 58.402 24.02 58.329 23.893 58.329 23.693 ZM 81.645 23.143 L 85.145 8.993 L 85.295 8.743 L 85.895 5.973 C 85.949 5.773 86.035 5.656 86.155 5.623 C 86.282 5.59 86.412 5.573 86.545 5.573 C 86.879 5.573 87.079 5.65 87.145 5.803 C 87.212 5.95 87.245 6.18 87.245 6.493 C 87.245 6.56 87.242 6.65 87.235 6.763 C 87.229 6.87 87.225 6.923 87.225 6.923 L 85.145 14.843 L 85.145 15.073 C 85.145 15.173 85.165 15.256 85.205 15.323 C 85.252 15.39 85.359 15.396 85.525 15.343 C 85.972 15.33 86.459 15.31 86.985 15.283 C 87.512 15.256 88.059 15.206 88.625 15.133 C 89.192 15.06 89.742 14.943 90.275 14.783 C 90.809 14.623 91.282 14.406 91.695 14.133 C 92.115 13.86 92.452 13.51 92.705 13.083 C 92.965 12.656 93.095 12.136 93.095 11.523 C 93.095 10.736 92.882 9.953 92.455 9.173 C 92.035 8.386 91.499 7.67 90.845 7.023 C 90.192 6.376 89.469 5.85 88.675 5.443 C 87.875 5.043 87.092 4.843 86.325 4.843 C 85.939 4.843 85.599 4.923 85.305 5.083 C 85.019 5.243 84.759 5.41 84.525 5.583 C 84.292 5.756 84.065 5.923 83.845 6.083 C 83.632 6.243 83.425 6.323 83.225 6.323 C 82.892 6.323 82.725 6.156 82.725 5.823 C 82.725 5.81 82.729 5.793 82.735 5.773 C 82.742 5.753 82.745 5.736 82.745 5.723 C 82.879 5.37 83.072 5.06 83.325 4.793 C 83.572 4.526 83.849 4.293 84.155 4.093 C 84.469 3.893 84.802 3.75 85.155 3.663 C 85.515 3.57 85.872 3.523 86.225 3.523 C 86.492 3.523 86.745 3.523 86.985 3.523 C 87.225 3.523 87.479 3.563 87.745 3.643 C 88.565 4.01 89.379 4.44 90.185 4.933 C 90.992 5.426 91.722 5.993 92.375 6.633 C 93.022 7.273 93.545 8.006 93.945 8.833 C 94.345 9.66 94.545 10.563 94.545 11.543 C 94.545 12.33 94.389 12.993 94.075 13.533 C 93.755 14.073 93.329 14.53 92.795 14.903 C 92.262 15.263 91.659 15.543 90.985 15.743 C 90.312 15.943 89.615 16.09 88.895 16.183 C 88.182 16.276 87.479 16.326 86.785 16.333 C 86.092 16.34 85.472 16.336 84.925 16.323 L 84.825 16.443 L 82.975 23.523 C 82.922 23.703 82.812 23.85 82.645 23.963 C 82.479 24.07 82.305 24.123 82.125 24.123 C 82.005 24.123 81.912 24.08 81.845 23.993 C 81.779 23.913 81.729 23.823 81.695 23.723 C 81.662 23.623 81.642 23.513 81.635 23.393 C 81.629 23.28 81.632 23.196 81.645 23.143 ZM 95.198 21.943 L 95.318 20.223 C 95.352 20.123 95.405 19.943 95.478 19.683 C 95.558 19.423 95.635 19.143 95.708 18.843 C 95.782 18.543 95.848 18.256 95.908 17.983 C 95.962 17.71 96.008 17.523 96.048 17.423 C 96.148 17.023 96.268 16.59 96.408 16.123 C 96.548 15.656 96.745 15.223 96.998 14.823 C 97.245 14.423 97.565 14.093 97.958 13.833 C 98.352 13.573 98.838 13.443 99.418 13.443 C 99.638 13.443 99.792 13.523 99.878 13.683 C 99.972 13.843 100.052 14.013 100.118 14.193 C 100.118 14.26 100.122 14.383 100.128 14.563 C 100.142 14.736 100.148 14.856 100.148 14.923 C 100.148 15.636 100.075 16.27 99.928 16.823 C 99.788 17.37 99.572 17.876 99.278 18.343 C 98.992 18.81 98.638 19.25 98.218 19.663 C 97.805 20.07 97.332 20.496 96.798 20.943 C 96.778 20.996 96.752 21.08 96.718 21.193 C 96.685 21.313 96.668 21.396 96.668 21.443 L 96.668 21.493 C 96.668 21.793 96.718 22.036 96.818 22.223 C 96.918 22.403 97.055 22.55 97.228 22.663 C 97.408 22.77 97.608 22.836 97.828 22.863 C 98.055 22.883 98.302 22.893 98.568 22.893 C 99.355 22.893 100.105 22.786 100.818 22.573 C 101.538 22.353 102.198 22.003 102.798 21.523 C 102.878 21.436 102.982 21.316 103.108 21.163 C 103.235 21.003 103.365 20.84 103.498 20.673 C 103.632 20.506 103.772 20.36 103.918 20.233 C 104.065 20.106 104.222 20.043 104.388 20.043 C 104.562 20.043 104.665 20.11 104.698 20.243 C 104.732 20.376 104.748 20.51 104.748 20.643 C 104.748 21.01 104.635 21.356 104.408 21.683 C 104.182 22.01 103.888 22.303 103.528 22.563 C 103.175 22.816 102.768 23.043 102.308 23.243 C 101.848 23.443 101.395 23.61 100.948 23.743 C 100.495 23.876 100.065 23.976 99.658 24.043 C 99.252 24.116 98.905 24.153 98.618 24.153 C 97.738 24.153 97.002 24.006 96.408 23.713 C 95.815 23.42 95.412 22.83 95.198 21.943 Z M 98.898 15.293 C 98.565 15.593 98.302 15.866 98.108 16.113 C 97.915 16.353 97.765 16.603 97.658 16.863 C 97.552 17.116 97.458 17.393 97.378 17.693 C 97.305 17.993 97.228 18.343 97.148 18.743 C 97.462 18.496 97.722 18.246 97.928 17.993 C 98.142 17.746 98.315 17.49 98.448 17.223 C 98.582 16.956 98.682 16.67 98.748 16.363 C 98.815 16.056 98.865 15.7 98.898 15.293 ZM 104.397 23.693 L 104.397 23.623 L 105.237 18.623 L 105.237 17.923 L 105.747 14.593 C 105.794 14.526 105.884 14.49 106.017 14.483 C 106.15 14.476 106.244 14.473 106.297 14.473 C 106.43 14.473 106.584 14.52 106.757 14.613 C 106.93 14.7 107.017 14.82 107.017 14.973 L 107.017 16.673 C 107.084 16.62 107.2 16.52 107.367 16.373 C 107.534 16.22 107.714 16.063 107.907 15.903 C 108.1 15.736 108.28 15.576 108.447 15.423 C 108.614 15.27 108.72 15.16 108.767 15.093 C 108.954 14.926 109.174 14.786 109.427 14.673 C 109.687 14.553 109.934 14.493 110.167 14.493 C 110.654 14.493 111.034 14.643 111.307 14.943 C 111.58 15.25 111.717 15.633 111.717 16.093 C 111.717 16.126 111.714 16.15 111.707 16.163 C 111.7 16.17 111.697 16.19 111.697 16.223 L 111.697 16.323 L 110.747 20.593 L 110.747 22.623 C 111.26 22.623 111.797 22.52 112.357 22.313 C 112.917 22.1 113.454 21.836 113.967 21.523 C 114.487 21.203 114.97 20.84 115.417 20.433 C 115.87 20.026 116.264 19.63 116.597 19.243 L 116.697 19.243 C 116.81 19.243 116.904 19.283 116.977 19.363 C 117.057 19.436 117.097 19.53 117.097 19.643 C 117.097 20.01 116.974 20.373 116.727 20.733 C 116.487 21.093 116.18 21.43 115.807 21.743 C 115.434 22.063 115 22.363 114.507 22.643 C 114.014 22.93 113.53 23.173 113.057 23.373 C 112.584 23.573 112.12 23.73 111.667 23.843 C 111.22 23.963 110.837 24.023 110.517 24.023 C 110.204 24.023 109.954 23.963 109.767 23.843 C 109.587 23.73 109.45 23.576 109.357 23.383 C 109.264 23.19 109.204 22.976 109.177 22.743 C 109.157 22.51 109.147 22.26 109.147 21.993 L 109.147 21.673 L 110.117 16.823 L 110.117 15.993 C 109.717 15.993 109.32 16.17 108.927 16.523 C 108.534 16.87 108.184 17.293 107.877 17.793 C 107.57 18.293 107.304 18.803 107.077 19.323 C 106.857 19.836 106.697 20.26 106.597 20.593 C 106.564 20.713 106.51 20.923 106.437 21.223 C 106.377 21.523 106.317 21.84 106.257 22.173 C 106.197 22.506 106.144 22.823 106.097 23.123 C 106.044 23.423 106.01 23.64 105.997 23.773 C 106.01 23.873 105.98 23.946 105.907 23.993 C 105.834 24.046 105.747 24.086 105.647 24.113 C 105.547 24.14 105.44 24.153 105.327 24.153 C 105.22 24.153 105.134 24.153 105.067 24.153 C 104.92 24.153 104.77 24.126 104.617 24.073 C 104.47 24.02 104.397 23.893 104.397 23.693 ZM 115.92 23.693 L 115.92 23.623 L 116.76 18.623 L 116.76 17.923 L 117.27 14.593 C 117.317 14.526 117.407 14.49 117.54 14.483 C 117.674 14.476 117.767 14.473 117.82 14.473 C 117.954 14.473 118.107 14.52 118.28 14.613 C 118.454 14.7 118.54 14.82 118.54 14.973 L 118.54 16.673 C 118.607 16.62 118.724 16.52 118.89 16.373 C 119.057 16.22 119.237 16.063 119.43 15.903 C 119.624 15.736 119.804 15.576 119.97 15.423 C 120.137 15.27 120.244 15.16 120.29 15.093 C 120.477 14.926 120.697 14.786 120.95 14.673 C 121.21 14.553 121.457 14.493 121.69 14.493 C 122.177 14.493 122.557 14.643 122.83 14.943 C 123.104 15.25 123.24 15.633 123.24 16.093 C 123.24 16.126 123.237 16.15 123.23 16.163 C 123.224 16.17 123.22 16.19 123.22 16.223 L 123.22 16.323 L 122.27 20.593 L 122.27 22.623 C 122.784 22.623 123.32 22.52 123.88 22.313 C 124.44 22.1 124.977 21.836 125.49 21.523 C 126.01 21.203 126.494 20.84 126.94 20.433 C 127.394 20.026 127.787 19.63 128.12 19.243 L 128.22 19.243 C 128.334 19.243 128.427 19.283 128.5 19.363 C 128.58 19.436 128.62 19.53 128.62 19.643 C 128.62 20.01 128.497 20.373 128.25 20.733 C 128.01 21.093 127.704 21.43 127.33 21.743 C 126.957 22.063 126.524 22.363 126.03 22.643 C 125.537 22.93 125.054 23.173 124.58 23.373 C 124.107 23.573 123.644 23.73 123.19 23.843 C 122.744 23.963 122.36 24.023 122.04 24.023 C 121.727 24.023 121.477 23.963 121.29 23.843 C 121.11 23.73 120.974 23.576 120.88 23.383 C 120.787 23.19 120.727 22.976 120.7 22.743 C 120.68 22.51 120.67 22.26 120.67 21.993 L 120.67 21.673 L 121.64 16.823 L 121.64 15.993 C 121.24 15.993 120.844 16.17 120.45 16.523 C 120.057 16.87 119.707 17.293 119.4 17.793 C 119.094 18.293 118.827 18.803 118.6 19.323 C 118.38 19.836 118.22 20.26 118.12 20.593 C 118.087 20.713 118.034 20.923 117.96 21.223 C 117.9 21.523 117.84 21.84 117.78 22.173 C 117.72 22.506 117.667 22.823 117.62 23.123 C 117.567 23.423 117.534 23.64 117.52 23.773 C 117.534 23.873 117.504 23.946 117.43 23.993 C 117.357 24.046 117.27 24.086 117.17 24.113 C 117.07 24.14 116.964 24.153 116.85 24.153 C 116.744 24.153 116.657 24.153 116.59 24.153 C 116.444 24.153 116.294 24.126 116.14 24.073 C 115.994 24.02 115.92 23.893 115.92 23.693 ZM 127.414 21.093 L 127.764 18.873 C 127.784 18.786 127.834 18.636 127.914 18.423 C 128 18.203 128.087 17.97 128.174 17.723 C 128.267 17.47 128.357 17.236 128.444 17.023 C 128.524 16.803 128.58 16.653 128.614 16.573 C 128.714 16.306 128.81 16.13 128.904 16.043 C 128.997 15.963 129.167 15.923 129.414 15.923 C 129.68 15.923 129.857 16.013 129.944 16.193 C 130.024 16.38 130.064 16.596 130.064 16.843 C 130.064 17.276 130 17.673 129.874 18.033 C 129.754 18.393 129.617 18.753 129.464 19.113 C 129.31 19.466 129.174 19.85 129.054 20.263 C 128.927 20.67 128.864 21.14 128.864 21.673 C 128.864 21.74 128.864 21.836 128.864 21.963 C 128.864 22.083 128.874 22.206 128.894 22.333 C 128.907 22.46 128.94 22.57 128.994 22.663 C 129.04 22.75 129.107 22.793 129.194 22.793 C 129.627 22.793 130.064 22.706 130.504 22.533 C 130.944 22.36 131.377 22.153 131.804 21.913 C 132.23 21.666 132.637 21.4 133.024 21.113 C 133.417 20.82 133.774 20.563 134.094 20.343 C 134.207 20.263 134.294 20.18 134.354 20.093 C 134.414 20.013 134.467 19.936 134.514 19.863 C 134.567 19.783 134.63 19.716 134.704 19.663 C 134.777 19.603 134.897 19.573 135.064 19.573 C 135.284 19.573 135.464 19.62 135.604 19.713 C 135.744 19.8 135.814 19.96 135.814 20.193 C 135.814 20.293 135.81 20.386 135.804 20.473 C 135.797 20.553 135.75 20.626 135.664 20.693 C 135.65 20.746 135.587 20.813 135.474 20.893 C 135.367 20.98 135.257 21.07 135.144 21.163 C 135.024 21.25 134.914 21.333 134.814 21.413 C 134.714 21.486 134.64 21.53 134.594 21.543 C 134.574 21.543 134.527 21.566 134.454 21.613 C 134.38 21.653 134.334 21.673 134.314 21.673 C 134.3 21.686 134.28 21.706 134.254 21.733 C 134.227 21.76 134.214 21.78 134.214 21.793 C 133.867 22.06 133.487 22.333 133.074 22.613 C 132.667 22.886 132.24 23.136 131.794 23.363 C 131.34 23.583 130.877 23.77 130.404 23.923 C 129.93 24.076 129.46 24.153 128.994 24.153 C 128.594 24.153 128.287 24.046 128.074 23.833 C 127.867 23.626 127.714 23.366 127.614 23.053 C 127.514 22.733 127.457 22.396 127.444 22.043 C 127.424 21.696 127.414 21.38 127.414 21.093 Z M 128.964 12.293 C 128.964 11.993 129.024 11.793 129.144 11.693 C 129.257 11.593 129.464 11.543 129.764 11.543 C 129.917 11.543 130.067 11.573 130.214 11.633 C 130.367 11.693 130.444 11.83 130.444 12.043 C 130.444 12.263 130.337 12.463 130.124 12.643 C 129.917 12.83 129.714 12.923 129.514 12.923 C 129.314 12.923 129.174 12.86 129.094 12.733 C 129.007 12.606 128.964 12.46 128.964 12.293 ZM 137.567 20.593 C 137.434 20.66 137.291 20.7 137.137 20.713 C 136.991 20.72 136.841 20.723 136.687 20.723 C 136.541 20.723 136.391 20.726 136.237 20.733 C 136.084 20.74 135.934 20.776 135.787 20.843 C 135.501 20.876 135.317 20.856 135.237 20.783 C 135.151 20.71 135.124 20.606 135.157 20.473 C 135.191 20.34 135.284 20.19 135.437 20.023 C 135.584 19.856 135.754 19.713 135.947 19.593 C 136.141 19.48 136.351 19.396 136.577 19.343 C 136.804 19.296 137.007 19.306 137.187 19.373 C 137.107 19.073 137.114 18.813 137.207 18.593 C 137.314 18.38 137.517 18.273 137.817 18.273 C 137.964 18.273 138.101 18.286 138.227 18.313 C 138.347 18.333 138.444 18.403 138.517 18.523 C 138.764 18.37 139.097 18.116 139.517 17.763 C 139.931 17.403 140.357 17.036 140.797 16.663 C 141.244 16.283 141.651 15.95 142.017 15.663 C 142.384 15.37 142.634 15.223 142.767 15.223 C 142.814 15.223 142.881 15.226 142.967 15.233 C 143.047 15.24 143.134 15.26 143.227 15.293 C 143.321 15.326 143.394 15.366 143.447 15.413 C 143.507 15.453 143.537 15.513 143.537 15.593 L 143.537 16.673 C 143.424 17.14 143.311 17.576 143.197 17.983 C 143.091 18.39 143.001 18.79 142.927 19.183 C 142.854 19.576 142.801 19.973 142.767 20.373 C 142.734 20.773 142.717 21.196 142.717 21.643 C 142.984 21.643 143.304 21.586 143.677 21.473 C 144.051 21.353 144.431 21.21 144.817 21.043 C 145.197 20.876 145.554 20.706 145.887 20.533 C 146.221 20.36 146.487 20.213 146.687 20.093 C 146.721 20.08 146.797 20.023 146.917 19.923 C 147.031 19.823 147.154 19.72 147.287 19.613 C 147.421 19.506 147.551 19.406 147.677 19.313 C 147.804 19.22 147.884 19.156 147.917 19.123 C 147.951 19.09 148.034 19.043 148.167 18.983 C 148.301 18.923 148.374 18.886 148.387 18.873 C 148.454 18.853 148.517 18.873 148.577 18.933 C 148.637 18.993 148.691 19.06 148.737 19.133 C 148.791 19.206 148.827 19.283 148.847 19.363 C 148.874 19.436 148.887 19.48 148.887 19.493 C 148.887 19.66 148.821 19.826 148.687 19.993 C 148.554 20.16 148.397 20.316 148.217 20.463 C 148.031 20.603 147.841 20.736 147.647 20.863 C 147.461 20.983 147.317 21.093 147.217 21.193 C 147.084 21.26 146.854 21.37 146.527 21.523 C 146.201 21.67 145.854 21.826 145.487 21.993 C 145.121 22.16 144.774 22.32 144.447 22.473 C 144.127 22.62 143.901 22.726 143.767 22.793 C 143.734 22.813 143.657 22.836 143.537 22.863 C 143.424 22.883 143.301 22.92 143.167 22.973 C 143.034 23.026 142.904 23.063 142.777 23.083 C 142.651 23.11 142.571 23.13 142.537 23.143 C 142.391 23.196 142.277 23.28 142.197 23.393 C 142.124 23.513 142.051 23.63 141.977 23.743 C 141.904 23.863 141.811 23.963 141.697 24.043 C 141.591 24.13 141.421 24.156 141.187 24.123 C 141.174 24.103 141.104 24.066 140.977 24.013 C 140.851 23.953 140.771 23.906 140.737 23.873 C 140.337 23.586 139.997 23.32 139.717 23.073 C 139.431 22.82 139.171 22.573 138.937 22.333 C 138.704 22.093 138.484 21.83 138.277 21.543 C 138.071 21.263 137.834 20.946 137.567 20.593 Z M 139.137 19.593 C 139.257 19.846 139.371 20.09 139.477 20.323 C 139.584 20.556 139.714 20.776 139.867 20.983 C 140.014 21.19 140.184 21.37 140.377 21.523 C 140.571 21.67 140.807 21.76 141.087 21.793 C 141.121 21.546 141.164 21.246 141.217 20.893 C 141.264 20.546 141.321 20.18 141.387 19.793 C 141.454 19.413 141.534 19.036 141.627 18.663 C 141.721 18.283 141.824 17.953 141.937 17.673 L 141.687 17.673 C 141.421 17.853 141.171 18.036 140.937 18.223 C 140.724 18.39 140.507 18.553 140.287 18.713 C 140.074 18.866 139.901 19.003 139.767 19.123 C 139.747 19.136 139.721 19.16 139.687 19.193 C 139.654 19.226 139.631 19.243 139.617 19.243 C 139.597 19.276 139.521 19.336 139.387 19.423 C 139.254 19.503 139.171 19.56 139.137 19.593 Z M 141.937 17.293 C 141.891 17.293 141.867 17.333 141.867 17.413 C 141.867 17.486 141.891 17.523 141.937 17.523 C 142.004 17.523 142.037 17.486 142.037 17.413 C 142.037 17.333 142.004 17.293 141.937 17.293 ZM 147.911 19.743 L 148.541 17.423 C 148.574 17.356 148.641 17.253 148.741 17.113 C 148.841 16.966 148.891 16.843 148.891 16.743 L 148.891 16.673 C 148.891 16.653 148.871 16.633 148.831 16.613 C 148.804 16.586 148.781 16.573 148.761 16.573 L 148.311 16.573 C 147.877 16.706 147.391 16.796 146.851 16.843 C 146.304 16.896 145.777 16.913 145.271 16.893 C 144.764 16.88 144.327 16.836 143.961 16.763 C 143.594 16.683 143.377 16.593 143.311 16.493 C 143.244 16.393 143.367 16.273 143.681 16.133 C 144.001 15.993 144.604 15.846 145.491 15.693 C 145.537 15.693 145.647 15.673 145.821 15.633 C 145.994 15.593 146.187 15.556 146.401 15.523 C 146.607 15.49 146.801 15.453 146.981 15.413 C 147.167 15.366 147.284 15.343 147.331 15.343 C 147.397 15.33 147.541 15.32 147.761 15.313 C 147.981 15.3 148.201 15.286 148.421 15.273 C 148.647 15.253 148.864 15.243 149.071 15.243 C 149.284 15.243 149.431 15.243 149.511 15.243 L 149.641 15.093 L 151.591 11.823 C 151.657 11.703 151.777 11.61 151.951 11.543 C 152.124 11.476 152.261 11.443 152.361 11.443 C 152.581 11.443 152.731 11.533 152.811 11.713 C 152.897 11.886 152.941 12.056 152.941 12.223 C 152.941 12.236 152.934 12.253 152.921 12.273 C 152.914 12.286 152.911 12.303 152.911 12.323 L 152.911 12.423 L 151.811 15.093 L 151.811 15.243 C 151.844 15.143 151.907 15.093 152.001 15.093 C 152.094 15.093 152.164 15.093 152.211 15.093 C 152.464 15.093 152.707 15.176 152.941 15.343 C 153.174 15.51 153.291 15.736 153.291 16.023 C 153.291 16.156 153.247 16.263 153.161 16.343 C 153.081 16.43 152.981 16.496 152.861 16.543 C 152.747 16.596 152.624 16.636 152.491 16.663 C 152.357 16.683 152.241 16.693 152.141 16.693 C 151.941 16.693 151.751 16.67 151.571 16.623 C 151.397 16.57 151.211 16.543 151.011 16.543 C 150.831 16.543 150.664 16.64 150.511 16.833 C 150.364 17.026 150.227 17.276 150.101 17.583 C 149.974 17.89 149.867 18.236 149.781 18.623 C 149.701 19.003 149.627 19.376 149.561 19.743 C 149.494 20.11 149.447 20.453 149.421 20.773 C 149.401 21.086 149.391 21.326 149.391 21.493 C 149.391 21.56 149.394 21.693 149.401 21.893 C 149.407 22.093 149.411 22.226 149.411 22.293 C 149.431 22.393 149.474 22.483 149.541 22.563 C 149.607 22.636 149.674 22.713 149.741 22.793 L 150.311 22.793 C 150.977 22.793 151.641 22.643 152.301 22.343 C 152.961 22.043 153.581 21.703 154.161 21.323 C 154.194 21.303 154.274 21.223 154.401 21.083 C 154.527 20.943 154.664 20.803 154.811 20.663 C 154.964 20.516 155.101 20.386 155.221 20.273 C 155.347 20.153 155.437 20.093 155.491 20.093 C 155.604 20.093 155.711 20.153 155.811 20.273 C 155.911 20.386 155.961 20.51 155.961 20.643 C 155.961 20.963 155.847 21.273 155.621 21.573 C 155.401 21.873 155.114 22.153 154.761 22.413 C 154.414 22.666 154.014 22.903 153.561 23.123 C 153.114 23.336 152.667 23.52 152.221 23.673 C 151.781 23.82 151.364 23.936 150.971 24.023 C 150.584 24.11 150.264 24.153 150.011 24.153 C 149.777 24.153 149.537 24.123 149.291 24.063 C 149.037 24.003 148.811 23.906 148.611 23.773 C 148.411 23.64 148.244 23.473 148.111 23.273 C 147.977 23.073 147.911 22.823 147.911 22.523 L 147.911 19.743 ZM 155.21 22.173 C 155.21 22.153 155.22 22.093 155.24 21.993 C 155.253 21.9 155.27 21.796 155.29 21.683 C 155.303 21.576 155.32 21.476 155.34 21.383 C 155.353 21.29 155.36 21.226 155.36 21.193 L 155.36 21.093 L 155.36 20.943 L 155.71 19.373 C 155.996 18.773 156.293 18.196 156.6 17.643 C 156.906 17.096 157.26 16.613 157.66 16.193 C 158.06 15.78 158.523 15.446 159.05 15.193 C 159.576 14.946 160.213 14.823 160.96 14.823 C 161.113 14.823 161.3 14.87 161.52 14.963 C 161.746 15.05 161.973 15.16 162.2 15.293 C 162.426 15.426 162.633 15.566 162.82 15.713 C 163.013 15.853 163.16 15.98 163.26 16.093 C 163.773 16.013 164.15 15.97 164.39 15.963 C 164.623 15.95 164.823 15.94 164.99 15.933 C 165.156 15.926 165.333 15.896 165.52 15.843 C 165.713 15.796 166.01 15.69 166.41 15.523 C 166.696 15.443 166.973 15.403 167.24 15.403 C 167.353 15.403 167.463 15.45 167.57 15.543 C 167.683 15.643 167.74 15.763 167.74 15.903 C 167.74 16.063 167.68 16.21 167.56 16.343 C 167.446 16.476 167.306 16.56 167.14 16.593 L 164.01 17.293 L 163.74 17.423 C 163.72 18.323 163.52 19.18 163.14 19.993 C 162.753 20.813 162.243 21.53 161.61 22.143 C 160.976 22.763 160.243 23.253 159.41 23.613 C 158.576 23.973 157.71 24.153 156.81 24.153 C 156.743 24.153 156.636 24.146 156.49 24.133 C 156.336 24.126 156.236 24.123 156.19 24.123 C 155.823 23.97 155.566 23.693 155.42 23.293 C 155.28 22.893 155.21 22.52 155.21 22.173 Z M 156.81 22.673 C 156.823 22.753 156.89 22.793 157.01 22.793 C 157.13 22.793 157.213 22.793 157.26 22.793 C 157.86 22.793 158.476 22.64 159.11 22.333 C 159.743 22.026 160.313 21.626 160.82 21.133 C 161.333 20.64 161.75 20.083 162.07 19.463 C 162.396 18.836 162.56 18.206 162.56 17.573 C 162.026 17.573 161.493 17.526 160.96 17.433 C 160.426 17.34 159.91 17.293 159.41 17.293 L 159.39 17.293 L 157.31 19.493 C 157.196 19.613 157.106 19.773 157.04 19.973 C 156.973 20.173 156.923 20.39 156.89 20.623 C 156.85 20.856 156.823 21.09 156.81 21.323 C 156.796 21.556 156.79 21.763 156.79 21.943 C 156.79 21.996 156.79 22.113 156.79 22.293 C 156.79 22.48 156.796 22.606 156.81 22.673 ZM 167.138 23.693 L 167.138 23.623 L 167.978 18.623 L 167.978 17.923 L 168.488 14.593 C 168.534 14.526 168.624 14.49 168.758 14.483 C 168.891 14.476 168.984 14.473 169.038 14.473 C 169.171 14.473 169.324 14.52 169.498 14.613 C 169.671 14.7 169.758 14.82 169.758 14.973 L 169.758 16.673 C 169.824 16.62 169.941 16.52 170.108 16.373 C 170.274 16.22 170.454 16.063 170.648 15.903 C 170.841 15.736 171.021 15.576 171.188 15.423 C 171.354 15.27 171.461 15.16 171.508 15.093 C 171.694 14.926 171.914 14.786 172.168 14.673 C 172.428 14.553 172.674 14.493 172.908 14.493 C 173.394 14.493 173.774 14.643 174.048 14.943 C 174.321 15.25 174.458 15.633 174.458 16.093 C 174.458 16.126 174.454 16.15 174.448 16.163 C 174.441 16.17 174.438 16.19 174.438 16.223 L 174.438 16.323 L 173.488 20.593 L 173.488 22.623 C 174.001 22.623 174.538 22.52 175.098 22.313 C 175.658 22.1 176.194 21.836 176.708 21.523 C 177.228 21.203 177.711 20.84 178.158 20.433 C 178.611 20.026 179.004 19.63 179.338 19.243 L 179.438 19.243 C 179.551 19.243 179.644 19.283 179.718 19.363 C 179.798 19.436 179.838 19.53 179.838 19.643 C 179.838 20.01 179.714 20.373 179.468 20.733 C 179.228 21.093 178.921 21.43 178.548 21.743 C 178.174 22.063 177.741 22.363 177.248 22.643 C 176.754 22.93 176.271 23.173 175.798 23.373 C 175.324 23.573 174.861 23.73 174.408 23.843 C 173.961 23.963 173.578 24.023 173.258 24.023 C 172.944 24.023 172.694 23.963 172.508 23.843 C 172.328 23.73 172.191 23.576 172.098 23.383 C 172.004 23.19 171.944 22.976 171.918 22.743 C 171.898 22.51 171.888 22.26 171.888 21.993 L 171.888 21.673 L 172.858 16.823 L 172.858 15.993 C 172.458 15.993 172.061 16.17 171.668 16.523 C 171.274 16.87 170.924 17.293 170.618 17.793 C 170.311 18.293 170.044 18.803 169.818 19.323 C 169.598 19.836 169.438 20.26 169.338 20.593 C 169.304 20.713 169.251 20.923 169.178 21.223 C 169.118 21.523 169.058 21.84 168.998 22.173 C 168.938 22.506 168.884 22.823 168.838 23.123 C 168.784 23.423 168.751 23.64 168.738 23.773 C 168.751 23.873 168.721 23.946 168.648 23.993 C 168.574 24.046 168.488 24.086 168.388 24.113 C 168.288 24.14 168.181 24.153 168.068 24.153 C 167.961 24.153 167.874 24.153 167.808 24.153 C 167.661 24.153 167.511 24.126 167.358 24.073 C 167.211 24.02 167.138 23.893 167.138 23.693 ZM 178.831 15.223 C 178.884 15.09 179.004 14.956 179.191 14.823 C 179.384 14.69 179.541 14.606 179.661 14.573 C 180.441 14.54 181.244 14.49 182.071 14.423 C 182.898 14.356 183.728 14.29 184.561 14.223 C 185.394 14.156 186.218 14.093 187.031 14.033 C 187.851 13.973 188.644 13.943 189.411 13.943 C 189.978 13.943 190.548 13.97 191.121 14.023 C 191.694 14.07 192.241 14.186 192.761 14.373 L 192.331 14.793 C 192.331 14.793 192.191 14.81 191.911 14.843 C 191.624 14.883 191.251 14.926 190.791 14.973 C 190.338 15.02 189.828 15.08 189.261 15.153 C 188.694 15.213 188.114 15.273 187.521 15.333 C 186.928 15.393 186.364 15.446 185.831 15.493 C 185.298 15.546 184.831 15.59 184.431 15.623 C 183.684 15.69 182.918 15.74 182.131 15.773 C 181.351 15.806 180.594 15.823 179.861 15.823 C 179.774 15.823 179.674 15.813 179.561 15.793 C 179.441 15.78 179.318 15.753 179.191 15.713 C 179.071 15.673 178.971 15.61 178.891 15.523 C 178.818 15.443 178.798 15.343 178.831 15.223 ZM 196.284 23.523 C 196.417 23.19 196.544 22.82 196.664 22.413 C 196.791 22 196.907 21.583 197.014 21.163 C 197.127 20.736 197.217 20.32 197.284 19.913 C 197.351 19.5 197.384 19.11 197.384 18.743 L 197.384 18.523 C 197.117 18.49 196.854 18.44 196.594 18.373 C 196.334 18.306 196.114 18.21 195.934 18.083 C 195.747 17.956 195.591 17.79 195.464 17.583 C 195.344 17.376 195.284 17.123 195.284 16.823 C 195.284 16.49 195.334 16.22 195.434 16.013 C 195.534 15.8 195.784 15.693 196.184 15.693 C 196.464 15.693 196.734 15.756 196.994 15.883 C 197.254 16.01 197.501 16.156 197.734 16.323 L 197.854 16.093 L 199.204 10.973 C 199.171 10.54 199.191 10.103 199.264 9.663 C 199.344 9.216 199.517 8.836 199.784 8.523 C 199.764 8.523 199.714 8.52 199.634 8.513 C 199.547 8.5 199.487 8.493 199.454 8.493 C 199.187 8.493 198.921 8.533 198.654 8.613 C 198.387 8.686 198.134 8.776 197.894 8.883 C 197.654 8.99 197.407 9.09 197.154 9.183 C 196.907 9.276 196.657 9.346 196.404 9.393 C 196.371 9.393 196.307 9.376 196.214 9.343 C 196.127 9.31 196.067 9.27 196.034 9.223 C 195.981 9.236 195.897 9.26 195.784 9.293 C 195.664 9.326 195.537 9.353 195.404 9.373 C 195.271 9.386 195.147 9.406 195.034 9.433 C 194.914 9.46 194.837 9.48 194.804 9.493 L 194.674 9.493 C 194.347 9.493 194.184 9.326 194.184 8.993 C 194.184 8.826 194.291 8.693 194.504 8.593 C 194.724 8.493 194.984 8.4 195.284 8.313 C 195.584 8.22 195.884 8.136 196.184 8.063 C 196.484 7.983 196.707 7.896 196.854 7.803 C 197.241 7.663 197.574 7.56 197.854 7.493 C 198.134 7.426 198.411 7.376 198.684 7.343 C 198.951 7.316 199.211 7.296 199.464 7.283 C 199.724 7.276 200.031 7.273 200.384 7.273 C 201.051 7.273 201.721 7.353 202.394 7.513 C 203.067 7.666 203.674 7.92 204.214 8.273 C 204.761 8.62 205.204 9.076 205.544 9.643 C 205.884 10.21 206.054 10.886 206.054 11.673 C 206.054 12.406 205.884 13.07 205.544 13.663 C 205.204 14.25 204.777 14.776 204.264 15.243 C 203.757 15.71 203.207 16.123 202.614 16.483 C 202.027 16.843 201.477 17.143 200.964 17.383 C 200.457 17.623 200.034 17.816 199.694 17.963 C 199.354 18.103 199.184 18.18 199.184 18.193 L 199.184 18.243 C 199.184 18.263 199.191 18.273 199.204 18.273 C 199.557 18.92 199.921 19.5 200.294 20.013 C 200.667 20.52 201.084 20.953 201.544 21.313 C 202.004 21.673 202.524 21.946 203.104 22.133 C 203.691 22.326 204.367 22.423 205.134 22.423 C 205.381 22.423 205.631 22.39 205.884 22.323 C 206.131 22.256 206.374 22.186 206.614 22.113 C 206.861 22.033 207.101 21.96 207.334 21.893 C 207.567 21.826 207.807 21.793 208.054 21.793 C 208.154 21.793 208.267 21.823 208.394 21.883 C 208.521 21.943 208.584 22.04 208.584 22.173 C 208.584 22.44 208.394 22.663 208.014 22.843 C 207.641 23.03 207.221 23.18 206.754 23.293 C 206.287 23.413 205.831 23.496 205.384 23.543 C 204.931 23.596 204.637 23.623 204.504 23.623 C 203.304 23.623 202.191 23.346 201.164 22.793 C 200.144 22.246 199.324 21.43 198.704 20.343 L 198.584 20.343 C 198.551 20.543 198.504 20.85 198.444 21.263 C 198.384 21.67 198.291 22.076 198.164 22.483 C 198.044 22.89 197.887 23.25 197.694 23.563 C 197.501 23.87 197.271 24.023 197.004 24.023 C 196.804 24.023 196.634 23.996 196.494 23.943 C 196.354 23.896 196.284 23.756 196.284 23.523 Z M 199.334 16.193 L 199.334 16.823 L 199.454 16.823 C 199.487 16.803 199.551 16.776 199.644 16.743 C 199.737 16.71 199.784 16.686 199.784 16.673 C 200.331 16.42 200.897 16.14 201.484 15.833 C 202.064 15.526 202.594 15.163 203.074 14.743 C 203.561 14.33 203.957 13.86 204.264 13.333 C 204.577 12.806 204.734 12.193 204.734 11.493 C 204.734 11.046 204.611 10.64 204.364 10.273 C 204.124 9.906 203.817 9.593 203.444 9.333 C 203.071 9.073 202.667 8.873 202.234 8.733 C 201.801 8.593 201.384 8.523 200.984 8.523 L 200.654 8.523 C 200.821 8.656 200.907 8.796 200.914 8.943 C 200.927 9.096 200.934 9.263 200.934 9.443 C 200.934 9.496 200.927 9.576 200.914 9.683 C 200.907 9.79 200.904 9.843 200.904 9.843 L 199.334 16.193 ZM 209.602 22.173 C 209.602 22.153 209.612 22.093 209.632 21.993 C 209.645 21.9 209.662 21.796 209.682 21.683 C 209.695 21.576 209.712 21.476 209.732 21.383 C 209.745 21.29 209.752 21.226 209.752 21.193 L 209.752 21.093 L 209.752 20.943 L 210.102 19.373 C 210.388 18.773 210.685 18.196 210.992 17.643 C 211.298 17.096 211.652 16.613 212.052 16.193 C 212.452 15.78 212.915 15.446 213.442 15.193 C 213.968 14.946 214.605 14.823 215.352 14.823 C 215.505 14.823 215.692 14.87 215.912 14.963 C 216.138 15.05 216.365 15.16 216.592 15.293 C 216.818 15.426 217.025 15.566 217.212 15.713 C 217.405 15.853 217.552 15.98 217.652 16.093 C 218.165 16.013 218.542 15.97 218.782 15.963 C 219.015 15.95 219.215 15.94 219.382 15.933 C 219.548 15.926 219.725 15.896 219.912 15.843 C 220.105 15.796 220.402 15.69 220.802 15.523 C 221.088 15.443 221.365 15.403 221.632 15.403 C 221.745 15.403 221.855 15.45 221.962 15.543 C 222.075 15.643 222.132 15.763 222.132 15.903 C 222.132 16.063 222.072 16.21 221.952 16.343 C 221.838 16.476 221.698 16.56 221.532 16.593 L 218.402 17.293 L 218.132 17.423 C 218.112 18.323 217.912 19.18 217.532 19.993 C 217.145 20.813 216.635 21.53 216.002 22.143 C 215.368 22.763 214.635 23.253 213.802 23.613 C 212.968 23.973 212.102 24.153 211.202 24.153 C 211.135 24.153 211.028 24.146 210.882 24.133 C 210.728 24.126 210.628 24.123 210.582 24.123 C 210.215 23.97 209.958 23.693 209.812 23.293 C 209.672 22.893 209.602 22.52 209.602 22.173 Z M 211.202 22.673 C 211.215 22.753 211.282 22.793 211.402 22.793 C 211.522 22.793 211.605 22.793 211.652 22.793 C 212.252 22.793 212.868 22.64 213.502 22.333 C 214.135 22.026 214.705 21.626 215.212 21.133 C 215.725 20.64 216.142 20.083 216.462 19.463 C 216.788 18.836 216.952 18.206 216.952 17.573 C 216.418 17.573 215.885 17.526 215.352 17.433 C 214.818 17.34 214.302 17.293 213.802 17.293 L 213.782 17.293 L 211.702 19.493 C 211.588 19.613 211.498 19.773 211.432 19.973 C 211.365 20.173 211.315 20.39 211.282 20.623 C 211.242 20.856 211.215 21.09 211.202 21.323 C 211.188 21.556 211.182 21.763 211.182 21.943 C 211.182 21.996 211.182 22.113 211.182 22.293 C 211.182 22.48 211.188 22.606 211.202 22.673 ZM 222.73 20.593 C 222.596 20.66 222.453 20.7 222.3 20.713 C 222.153 20.72 222.003 20.723 221.85 20.723 C 221.703 20.723 221.553 20.726 221.4 20.733 C 221.246 20.74 221.096 20.776 220.95 20.843 C 220.663 20.876 220.48 20.856 220.4 20.783 C 220.313 20.71 220.286 20.606 220.32 20.473 C 220.353 20.34 220.446 20.19 220.6 20.023 C 220.746 19.856 220.916 19.713 221.11 19.593 C 221.303 19.48 221.513 19.396 221.74 19.343 C 221.966 19.296 222.17 19.306 222.35 19.373 C 222.27 19.073 222.276 18.813 222.37 18.593 C 222.476 18.38 222.68 18.273 222.98 18.273 C 223.126 18.273 223.263 18.286 223.39 18.313 C 223.51 18.333 223.606 18.403 223.68 18.523 C 223.926 18.37 224.26 18.116 224.68 17.763 C 225.093 17.403 225.52 17.036 225.96 16.663 C 226.406 16.283 226.813 15.95 227.18 15.663 C 227.546 15.37 227.796 15.223 227.93 15.223 C 227.976 15.223 228.043 15.226 228.13 15.233 C 228.21 15.24 228.296 15.26 228.39 15.293 C 228.483 15.326 228.556 15.366 228.61 15.413 C 228.67 15.453 228.7 15.513 228.7 15.593 L 228.7 16.673 C 228.586 17.14 228.473 17.576 228.36 17.983 C 228.253 18.39 228.163 18.79 228.09 19.183 C 228.016 19.576 227.963 19.973 227.93 20.373 C 227.896 20.773 227.88 21.196 227.88 21.643 C 228.146 21.643 228.466 21.586 228.84 21.473 C 229.213 21.353 229.593 21.21 229.98 21.043 C 230.36 20.876 230.716 20.706 231.05 20.533 C 231.383 20.36 231.65 20.213 231.85 20.093 C 231.883 20.08 231.96 20.023 232.08 19.923 C 232.193 19.823 232.316 19.72 232.45 19.613 C 232.583 19.506 232.713 19.406 232.84 19.313 C 232.966 19.22 233.046 19.156 233.08 19.123 C 233.113 19.09 233.196 19.043 233.33 18.983 C 233.463 18.923 233.536 18.886 233.55 18.873 C 233.616 18.853 233.68 18.873 233.74 18.933 C 233.8 18.993 233.853 19.06 233.9 19.133 C 233.953 19.206 233.99 19.283 234.01 19.363 C 234.036 19.436 234.05 19.48 234.05 19.493 C 234.05 19.66 233.983 19.826 233.85 19.993 C 233.716 20.16 233.56 20.316 233.38 20.463 C 233.193 20.603 233.003 20.736 232.81 20.863 C 232.623 20.983 232.48 21.093 232.38 21.193 C 232.246 21.26 232.016 21.37 231.69 21.523 C 231.363 21.67 231.016 21.826 230.65 21.993 C 230.283 22.16 229.936 22.32 229.61 22.473 C 229.29 22.62 229.063 22.726 228.93 22.793 C 228.896 22.813 228.82 22.836 228.7 22.863 C 228.586 22.883 228.463 22.92 228.33 22.973 C 228.196 23.026 228.066 23.063 227.94 23.083 C 227.813 23.11 227.733 23.13 227.7 23.143 C 227.553 23.196 227.44 23.28 227.36 23.393 C 227.286 23.513 227.213 23.63 227.14 23.743 C 227.066 23.863 226.973 23.963 226.86 24.043 C 226.753 24.13 226.583 24.156 226.35 24.123 C 226.336 24.103 226.266 24.066 226.14 24.013 C 226.013 23.953 225.933 23.906 225.9 23.873 C 225.5 23.586 225.16 23.32 224.88 23.073 C 224.593 22.82 224.333 22.573 224.1 22.333 C 223.866 22.093 223.646 21.83 223.44 21.543 C 223.233 21.263 222.996 20.946 222.73 20.593 Z M 224.3 19.593 C 224.42 19.846 224.533 20.09 224.64 20.323 C 224.746 20.556 224.876 20.776 225.03 20.983 C 225.176 21.19 225.346 21.37 225.54 21.523 C 225.733 21.67 225.97 21.76 226.25 21.793 C 226.283 21.546 226.326 21.246 226.38 20.893 C 226.426 20.546 226.483 20.18 226.55 19.793 C 226.616 19.413 226.696 19.036 226.79 18.663 C 226.883 18.283 226.986 17.953 227.1 17.673 L 226.85 17.673 C 226.583 17.853 226.333 18.036 226.1 18.223 C 225.886 18.39 225.67 18.553 225.45 18.713 C 225.236 18.866 225.063 19.003 224.93 19.123 C 224.91 19.136 224.883 19.16 224.85 19.193 C 224.816 19.226 224.793 19.243 224.78 19.243 C 224.76 19.276 224.683 19.336 224.55 19.423 C 224.416 19.503 224.333 19.56 224.3 19.593 Z M 227.1 17.293 C 227.053 17.293 227.03 17.333 227.03 17.413 C 227.03 17.486 227.053 17.523 227.1 17.523 C 227.166 17.523 227.2 17.486 227.2 17.413 C 227.2 17.333 227.166 17.293 227.1 17.293 ZM 234.353 20.593 C 234.22 20.66 234.076 20.7 233.923 20.713 C 233.776 20.72 233.626 20.723 233.473 20.723 C 233.326 20.723 233.176 20.726 233.023 20.733 C 232.87 20.74 232.72 20.776 232.573 20.843 C 232.286 20.876 232.103 20.856 232.023 20.783 C 231.936 20.71 231.91 20.606 231.943 20.473 C 231.976 20.34 232.07 20.19 232.223 20.023 C 232.37 19.856 232.54 19.713 232.733 19.593 C 232.926 19.48 233.136 19.396 233.363 19.343 C 233.59 19.296 233.793 19.306 233.973 19.373 C 233.893 19.073 233.9 18.813 233.993 18.593 C 234.1 18.38 234.303 18.273 234.603 18.273 C 234.75 18.273 234.886 18.286 235.013 18.313 C 235.133 18.333 235.23 18.403 235.303 18.523 C 235.55 18.37 235.883 18.116 236.303 17.763 C 236.716 17.403 237.143 17.036 237.583 16.663 C 238.03 16.283 238.436 15.95 238.803 15.663 C 239.17 15.37 239.42 15.223 239.553 15.223 C 239.6 15.223 239.666 15.226 239.753 15.233 C 239.833 15.24 239.92 15.26 240.013 15.293 C 240.106 15.326 240.18 15.366 240.233 15.413 C 240.293 15.453 240.323 15.513 240.323 15.593 L 240.323 16.673 C 240.21 17.14 240.096 17.576 239.983 17.983 C 239.876 18.39 239.786 18.79 239.713 19.183 C 239.64 19.576 239.586 19.973 239.553 20.373 C 239.52 20.773 239.503 21.196 239.503 21.643 C 239.77 21.643 240.09 21.586 240.463 21.473 C 240.836 21.353 241.216 21.21 241.603 21.043 C 241.983 20.876 242.34 20.706 242.673 20.533 C 243.006 20.36 243.273 20.213 243.473 20.093 C 243.506 20.08 243.583 20.023 243.703 19.923 C 243.816 19.823 243.94 19.72 244.073 19.613 C 244.206 19.506 244.336 19.406 244.463 19.313 C 244.59 19.22 244.67 19.156 244.703 19.123 C 244.736 19.09 244.82 19.043 244.953 18.983 C 245.086 18.923 245.16 18.886 245.173 18.873 C 245.24 18.853 245.303 18.873 245.363 18.933 C 245.423 18.993 245.476 19.06 245.523 19.133 C 245.576 19.206 245.613 19.283 245.633 19.363 C 245.66 19.436 245.673 19.48 245.673 19.493 C 245.673 19.66 245.606 19.826 245.473 19.993 C 245.34 20.16 245.183 20.316 245.003 20.463 C 244.816 20.603 244.626 20.736 244.433 20.863 C 244.246 20.983 244.103 21.093 244.003 21.193 C 243.87 21.26 243.64 21.37 243.313 21.523 C 242.986 21.67 242.64 21.826 242.273 21.993 C 241.906 22.16 241.56 22.32 241.233 22.473 C 240.913 22.62 240.686 22.726 240.553 22.793 C 240.52 22.813 240.443 22.836 240.323 22.863 C 240.21 22.883 240.086 22.92 239.953 22.973 C 239.82 23.026 239.69 23.063 239.563 23.083 C 239.436 23.11 239.356 23.13 239.323 23.143 C 239.176 23.196 239.063 23.28 238.983 23.393 C 238.91 23.513 238.836 23.63 238.763 23.743 C 238.69 23.863 238.596 23.963 238.483 24.043 C 238.376 24.13 238.206 24.156 237.973 24.123 C 237.96 24.103 237.89 24.066 237.763 24.013 C 237.636 23.953 237.556 23.906 237.523 23.873 C 237.123 23.586 236.783 23.32 236.503 23.073 C 236.216 22.82 235.956 22.573 235.723 22.333 C 235.49 22.093 235.27 21.83 235.063 21.543 C 234.856 21.263 234.62 20.946 234.353 20.593 Z M 235.923 19.593 C 236.043 19.846 236.156 20.09 236.263 20.323 C 236.37 20.556 236.5 20.776 236.653 20.983 C 236.8 21.19 236.97 21.37 237.163 21.523 C 237.356 21.67 237.593 21.76 237.873 21.793 C 237.906 21.546 237.95 21.246 238.003 20.893 C 238.05 20.546 238.106 20.18 238.173 19.793 C 238.24 19.413 238.32 19.036 238.413 18.663 C 238.506 18.283 238.61 17.953 238.723 17.673 L 238.473 17.673 C 238.206 17.853 237.956 18.036 237.723 18.223 C 237.51 18.39 237.293 18.553 237.073 18.713 C 236.86 18.866 236.686 19.003 236.553 19.123 C 236.533 19.136 236.506 19.16 236.473 19.193 C 236.44 19.226 236.416 19.243 236.403 19.243 C 236.383 19.276 236.306 19.336 236.173 19.423 C 236.04 19.503 235.956 19.56 235.923 19.593 Z M 238.723 17.293 C 238.676 17.293 238.653 17.333 238.653 17.413 C 238.653 17.486 238.676 17.523 238.723 17.523 C 238.79 17.523 238.823 17.486 238.823 17.413 C 238.823 17.333 238.79 17.293 238.723 17.293 ZM 244.746 21.093 L 245.096 18.873 C 245.116 18.786 245.166 18.636 245.246 18.423 C 245.333 18.203 245.42 17.97 245.506 17.723 C 245.6 17.47 245.69 17.236 245.776 17.023 C 245.856 16.803 245.913 16.653 245.946 16.573 C 246.046 16.306 246.143 16.13 246.236 16.043 C 246.33 15.963 246.5 15.923 246.746 15.923 C 247.013 15.923 247.19 16.013 247.276 16.193 C 247.356 16.38 247.396 16.596 247.396 16.843 C 247.396 17.276 247.333 17.673 247.206 18.033 C 247.086 18.393 246.95 18.753 246.796 19.113 C 246.643 19.466 246.506 19.85 246.386 20.263 C 246.26 20.67 246.196 21.14 246.196 21.673 C 246.196 21.74 246.196 21.836 246.196 21.963 C 246.196 22.083 246.206 22.206 246.226 22.333 C 246.24 22.46 246.273 22.57 246.326 22.663 C 246.373 22.75 246.44 22.793 246.526 22.793 C 246.96 22.793 247.396 22.706 247.836 22.533 C 248.276 22.36 248.71 22.153 249.136 21.913 C 249.563 21.666 249.97 21.4 250.356 21.113 C 250.75 20.82 251.106 20.563 251.426 20.343 C 251.54 20.263 251.626 20.18 251.686 20.093 C 251.746 20.013 251.8 19.936 251.846 19.863 C 251.9 19.783 251.963 19.716 252.036 19.663 C 252.11 19.603 252.23 19.573 252.396 19.573 C 252.616 19.573 252.796 19.62 252.936 19.713 C 253.076 19.8 253.146 19.96 253.146 20.193 C 253.146 20.293 253.143 20.386 253.136 20.473 C 253.13 20.553 253.083 20.626 252.996 20.693 C 252.983 20.746 252.92 20.813 252.806 20.893 C 252.7 20.98 252.59 21.07 252.476 21.163 C 252.356 21.25 252.246 21.333 252.146 21.413 C 252.046 21.486 251.973 21.53 251.926 21.543 C 251.906 21.543 251.86 21.566 251.786 21.613 C 251.713 21.653 251.666 21.673 251.646 21.673 C 251.633 21.686 251.613 21.706 251.586 21.733 C 251.56 21.76 251.546 21.78 251.546 21.793 C 251.2 22.06 250.82 22.333 250.406 22.613 C 250 22.886 249.573 23.136 249.126 23.363 C 248.673 23.583 248.21 23.77 247.736 23.923 C 247.263 24.076 246.793 24.153 246.326 24.153 C 245.926 24.153 245.62 24.046 245.406 23.833 C 245.2 23.626 245.046 23.366 244.946 23.053 C 244.846 22.733 244.79 22.396 244.776 22.043 C 244.756 21.696 244.746 21.38 244.746 21.093 Z M 246.296 12.293 C 246.296 11.993 246.356 11.793 246.476 11.693 C 246.59 11.593 246.796 11.543 247.096 11.543 C 247.25 11.543 247.4 11.573 247.546 11.633 C 247.7 11.693 247.776 11.83 247.776 12.043 C 247.776 12.263 247.67 12.463 247.456 12.643 C 247.25 12.83 247.046 12.923 246.846 12.923 C 246.646 12.923 246.506 12.86 246.426 12.733 C 246.34 12.606 246.296 12.46 246.296 12.293 Z" transform="matrix(1, 0, 0, 1, 0, 0)" style="white-space: pre; vector-effect: non-scaling-stroke;" />
</svg>