<?xml version="1.0" encoding="utf-8" ?>
<svg viewBox="0 0 70 25.6" xmlns="http://www.w3.org/2000/svg">
  <path d="M 10.135 22.965 C 10.082 22.865 10.005 22.682 9.905 22.415 C 9.805 22.148 9.698 21.865 9.585 21.565 C 9.465 21.265 9.352 20.982 9.245 20.715 C 9.138 20.448 9.058 20.265 9.005 20.165 C 8.972 20.098 8.942 20.032 8.915 19.965 C 8.895 19.898 8.852 19.848 8.785 19.815 C 8.412 20.168 8.005 20.535 7.565 20.915 C 7.125 21.302 6.658 21.648 6.165 21.955 C 5.678 22.262 5.168 22.512 4.635 22.705 C 4.102 22.898 3.568 22.995 3.035 22.995 C 2.448 22.995 1.988 22.792 1.655 22.385 C 1.322 21.972 1.065 21.478 0.885 20.905 C 0.698 20.332 0.582 19.745 0.535 19.145 C 0.482 18.545 0.455 18.052 0.455 17.665 C 0.455 16.898 0.582 16.205 0.835 15.585 C 1.082 14.958 1.435 14.425 1.895 13.985 C 2.355 13.538 2.902 13.198 3.535 12.965 C 4.168 12.732 4.875 12.615 5.655 12.615 C 6.208 12.615 6.692 12.745 7.105 13.005 C 7.525 13.265 7.878 13.598 8.165 14.005 C 8.458 14.412 8.702 14.858 8.895 15.345 C 9.088 15.825 9.252 16.292 9.385 16.745 C 9.532 16.658 9.708 16.462 9.915 16.155 C 10.128 15.848 10.345 15.508 10.565 15.135 C 10.792 14.755 11.008 14.378 11.215 14.005 C 11.428 13.632 11.592 13.328 11.705 13.095 C 11.758 13.008 11.872 12.795 12.045 12.455 C 12.218 12.115 12.408 11.745 12.615 11.345 C 12.828 10.945 13.022 10.568 13.195 10.215 C 13.368 9.868 13.482 9.652 13.535 9.565 C 13.548 9.532 13.588 9.472 13.655 9.385 C 13.722 9.292 13.765 9.228 13.785 9.195 C 13.765 9.195 13.755 9.185 13.755 9.165 L 13.755 9.115 L 13.755 9.045 C 12.988 9.045 12.252 8.985 11.545 8.865 C 10.838 8.752 10.218 8.535 9.685 8.215 C 9.152 7.902 8.722 7.468 8.395 6.915 C 8.068 6.368 7.905 5.645 7.905 4.745 C 7.905 4.692 7.908 4.565 7.915 4.365 C 7.928 4.165 7.935 4.032 7.935 3.965 C 7.982 3.798 8.072 3.662 8.205 3.555 C 8.338 3.448 8.488 3.378 8.655 3.345 C 8.808 3.312 8.922 3.395 8.995 3.595 C 9.068 3.795 9.135 4.062 9.195 4.395 C 9.255 4.728 9.328 5.085 9.415 5.465 C 9.508 5.852 9.668 6.215 9.895 6.555 C 10.122 6.895 10.422 7.192 10.795 7.445 C 11.168 7.692 11.672 7.835 12.305 7.875 C 12.338 7.875 12.452 7.878 12.645 7.885 C 12.838 7.892 13.002 7.895 13.135 7.895 C 13.215 7.895 13.335 7.895 13.495 7.895 C 13.655 7.895 13.812 7.892 13.965 7.885 C 14.125 7.878 14.275 7.852 14.415 7.805 C 14.562 7.765 14.668 7.705 14.735 7.625 C 14.835 7.505 15.005 7.298 15.245 7.005 C 15.485 6.712 15.732 6.408 15.985 6.095 C 16.232 5.782 16.472 5.478 16.705 5.185 C 16.938 4.892 17.105 4.685 17.205 4.565 C 17.492 4.285 17.808 4.002 18.155 3.715 C 18.508 3.435 18.875 3.185 19.255 2.965 C 19.642 2.752 20.042 2.578 20.455 2.445 C 20.875 2.312 21.302 2.245 21.735 2.245 C 22.035 2.245 22.288 2.302 22.495 2.415 C 22.702 2.535 22.865 2.692 22.985 2.885 C 23.098 3.072 23.175 3.288 23.215 3.535 C 23.262 3.775 23.285 4.018 23.285 4.265 C 23.285 4.752 23.162 5.178 22.915 5.545 C 22.675 5.912 22.365 6.235 21.985 6.515 C 21.598 6.802 21.185 7.045 20.745 7.245 C 20.305 7.445 19.885 7.612 19.485 7.745 C 19.352 7.792 19.108 7.865 18.755 7.965 C 18.408 8.072 18.028 8.185 17.615 8.305 C 17.208 8.432 16.825 8.545 16.465 8.645 C 16.112 8.745 15.858 8.802 15.705 8.815 C 15.592 8.935 15.462 9.078 15.315 9.245 C 15.175 9.412 15.072 9.562 15.005 9.695 L 11.935 15.315 C 11.915 15.315 11.892 15.328 11.865 15.355 C 11.845 15.382 11.825 15.402 11.805 15.415 C 11.805 15.455 11.782 15.518 11.735 15.605 C 11.682 15.698 11.632 15.798 11.585 15.905 C 11.532 16.012 11.482 16.115 11.435 16.215 C 11.382 16.315 11.355 16.375 11.355 16.395 C 11.308 16.462 11.222 16.592 11.095 16.785 C 10.968 16.972 10.832 17.172 10.685 17.385 C 10.532 17.592 10.392 17.785 10.265 17.965 C 10.145 18.152 10.058 18.278 10.005 18.345 L 10.005 18.415 L 10.005 18.465 C 10.125 18.898 10.228 19.272 10.315 19.585 C 10.408 19.892 10.502 20.185 10.595 20.465 C 10.688 20.752 10.802 21.052 10.935 21.365 C 11.068 21.685 11.242 22.062 11.455 22.495 C 11.522 22.608 11.615 22.715 11.735 22.815 C 11.848 22.915 11.968 23.018 12.095 23.125 C 12.222 23.218 12.328 23.322 12.415 23.435 C 12.508 23.542 12.555 23.652 12.555 23.765 C 12.555 24.072 12.405 24.225 12.105 24.225 C 11.672 24.225 11.288 24.098 10.955 23.845 C 10.622 23.592 10.348 23.298 10.135 22.965 Z M 1.705 17.415 C 1.705 17.615 1.722 17.945 1.755 18.405 C 1.788 18.865 1.858 19.332 1.965 19.805 C 2.078 20.278 2.245 20.698 2.465 21.065 C 2.692 21.432 2.998 21.615 3.385 21.615 C 3.832 21.615 4.235 21.515 4.595 21.315 C 4.955 21.115 5.335 20.932 5.735 20.765 L 8.305 18.345 L 8.305 18.245 C 8.305 17.945 8.235 17.552 8.095 17.065 C 7.955 16.585 7.758 16.112 7.505 15.645 C 7.258 15.178 6.968 14.782 6.635 14.455 C 6.302 14.128 5.942 13.965 5.555 13.965 C 5.008 13.965 4.495 14.032 4.015 14.165 C 3.542 14.298 3.138 14.508 2.805 14.795 C 2.472 15.082 2.205 15.438 2.005 15.865 C 1.805 16.298 1.705 16.815 1.705 17.415 Z M 21.505 3.595 C 21.105 3.595 20.705 3.678 20.305 3.845 C 19.905 4.012 19.522 4.228 19.155 4.495 C 18.788 4.762 18.448 5.055 18.135 5.375 C 17.815 5.688 17.538 5.985 17.305 6.265 C 17.238 6.338 17.158 6.438 17.065 6.565 C 16.978 6.698 16.888 6.822 16.795 6.935 C 16.702 7.042 16.622 7.142 16.555 7.235 C 16.488 7.328 16.455 7.375 16.455 7.375 L 16.455 7.495 L 16.555 7.495 C 16.568 7.495 16.685 7.462 16.905 7.395 C 17.125 7.328 17.378 7.248 17.665 7.155 C 17.958 7.062 18.255 6.972 18.555 6.885 C 18.855 6.792 19.088 6.712 19.255 6.645 C 19.508 6.558 19.795 6.445 20.115 6.305 C 20.442 6.165 20.752 5.995 21.045 5.795 C 21.338 5.595 21.585 5.372 21.785 5.125 C 21.985 4.872 22.085 4.585 22.085 4.265 C 22.085 3.998 22.045 3.822 21.965 3.735 C 21.892 3.642 21.738 3.595 21.505 3.595 ZM 17.477 21.165 L 17.827 18.945 C 17.847 18.858 17.897 18.708 17.977 18.495 C 18.064 18.275 18.151 18.042 18.237 17.795 C 18.331 17.542 18.421 17.308 18.507 17.095 C 18.587 16.875 18.644 16.725 18.677 16.645 C 18.777 16.378 18.874 16.202 18.967 16.115 C 19.061 16.035 19.231 15.995 19.477 15.995 C 19.744 15.995 19.921 16.085 20.007 16.265 C 20.087 16.452 20.127 16.668 20.127 16.915 C 20.127 17.348 20.064 17.745 19.937 18.105 C 19.817 18.465 19.681 18.825 19.527 19.185 C 19.374 19.538 19.237 19.922 19.117 20.335 C 18.991 20.742 18.927 21.212 18.927 21.745 C 18.927 21.812 18.927 21.908 18.927 22.035 C 18.927 22.155 18.937 22.278 18.957 22.405 C 18.971 22.532 19.004 22.642 19.057 22.735 C 19.104 22.822 19.171 22.865 19.257 22.865 C 19.691 22.865 20.127 22.778 20.567 22.605 C 21.007 22.432 21.441 22.225 21.867 21.985 C 22.294 21.738 22.701 21.472 23.087 21.185 C 23.481 20.892 23.837 20.635 24.157 20.415 C 24.271 20.335 24.357 20.252 24.417 20.165 C 24.477 20.085 24.531 20.008 24.577 19.935 C 24.631 19.855 24.694 19.788 24.767 19.735 C 24.841 19.675 24.961 19.645 25.127 19.645 C 25.347 19.645 25.527 19.692 25.667 19.785 C 25.807 19.872 25.877 20.032 25.877 20.265 C 25.877 20.365 25.874 20.458 25.867 20.545 C 25.861 20.625 25.814 20.698 25.727 20.765 C 25.714 20.818 25.651 20.885 25.537 20.965 C 25.431 21.052 25.321 21.142 25.207 21.235 C 25.087 21.322 24.977 21.405 24.877 21.485 C 24.777 21.558 24.704 21.602 24.657 21.615 C 24.637 21.615 24.591 21.638 24.517 21.685 C 24.444 21.725 24.397 21.745 24.377 21.745 C 24.364 21.758 24.344 21.778 24.317 21.805 C 24.291 21.832 24.277 21.852 24.277 21.865 C 23.931 22.132 23.551 22.405 23.137 22.685 C 22.731 22.958 22.304 23.208 21.857 23.435 C 21.404 23.655 20.941 23.842 20.467 23.995 C 19.994 24.148 19.524 24.225 19.057 24.225 C 18.657 24.225 18.351 24.118 18.137 23.905 C 17.931 23.698 17.777 23.438 17.677 23.125 C 17.577 22.805 17.521 22.468 17.507 22.115 C 17.487 21.768 17.477 21.452 17.477 21.165 Z M 19.027 12.365 C 19.027 12.065 19.087 11.865 19.207 11.765 C 19.321 11.665 19.527 11.615 19.827 11.615 C 19.981 11.615 20.131 11.645 20.277 11.705 C 20.431 11.765 20.507 11.902 20.507 12.115 C 20.507 12.335 20.401 12.535 20.187 12.715 C 19.981 12.902 19.777 12.995 19.577 12.995 C 19.377 12.995 19.237 12.932 19.157 12.805 C 19.071 12.678 19.027 12.532 19.027 12.365 ZM 26.481 21.395 L 26.751 19.665 C 26.751 19.665 26.764 19.655 26.791 19.635 C 26.818 19.608 26.838 19.585 26.851 19.565 C 26.884 19.418 26.951 19.162 27.051 18.795 C 27.151 18.428 27.261 18.032 27.381 17.605 C 27.494 17.178 27.604 16.782 27.711 16.415 C 27.824 16.048 27.904 15.798 27.951 15.665 C 27.971 15.598 28.024 15.455 28.111 15.235 C 28.204 15.008 28.311 14.762 28.431 14.495 C 28.544 14.228 28.661 13.962 28.781 13.695 C 28.894 13.428 28.978 13.228 29.031 13.095 C 29.144 12.862 29.321 12.552 29.561 12.165 C 29.808 11.785 30.084 11.425 30.391 11.085 C 30.698 10.738 31.018 10.438 31.351 10.185 C 31.684 9.925 31.994 9.795 32.281 9.795 C 32.428 9.795 32.548 9.835 32.641 9.915 C 32.734 10.002 32.801 10.098 32.841 10.205 C 32.881 10.312 32.911 10.432 32.931 10.565 C 32.944 10.698 32.951 10.815 32.951 10.915 C 32.951 11.782 32.831 12.645 32.591 13.505 C 32.351 14.365 32.021 15.188 31.601 15.975 C 31.188 16.755 30.691 17.492 30.111 18.185 C 29.538 18.872 28.934 19.492 28.301 20.045 C 28.288 20.092 28.268 20.192 28.241 20.345 C 28.214 20.492 28.194 20.598 28.181 20.665 L 28.181 20.715 C 28.181 21.048 28.268 21.315 28.441 21.515 C 28.614 21.715 28.828 21.862 29.081 21.955 C 29.328 22.048 29.604 22.112 29.911 22.145 C 30.218 22.178 30.514 22.195 30.801 22.195 C 30.954 22.195 31.174 22.118 31.461 21.965 C 31.754 21.818 32.054 21.648 32.361 21.455 C 32.674 21.262 32.981 21.092 33.281 20.945 C 33.581 20.792 33.804 20.715 33.951 20.715 C 34.104 20.715 34.221 20.765 34.301 20.865 C 34.381 20.965 34.421 21.092 34.421 21.245 C 34.421 21.492 34.231 21.758 33.851 22.045 C 33.471 22.325 33.031 22.588 32.531 22.835 C 32.031 23.075 31.551 23.278 31.091 23.445 C 30.631 23.612 30.328 23.695 30.181 23.695 C 29.681 23.795 29.214 23.798 28.781 23.705 C 28.348 23.612 27.971 23.455 27.651 23.235 C 27.338 23.008 27.074 22.732 26.861 22.405 C 26.654 22.085 26.528 21.748 26.481 21.395 Z M 31.481 12.495 L 31.481 12.215 C 31.328 12.215 31.154 12.338 30.961 12.585 C 30.774 12.825 30.588 13.102 30.401 13.415 C 30.221 13.735 30.058 14.042 29.911 14.335 C 29.771 14.622 29.694 14.815 29.681 14.915 C 29.628 15.035 29.551 15.228 29.451 15.495 C 29.351 15.762 29.251 16.042 29.151 16.335 C 29.051 16.622 28.954 16.898 28.861 17.165 C 28.774 17.432 28.714 17.625 28.681 17.745 L 28.801 17.745 C 28.801 17.745 28.851 17.682 28.951 17.555 C 29.051 17.428 29.164 17.282 29.291 17.115 C 29.418 16.948 29.551 16.778 29.691 16.605 C 29.831 16.432 29.934 16.285 30.001 16.165 C 30.068 16.065 30.161 15.912 30.281 15.705 C 30.394 15.498 30.468 15.368 30.501 15.315 C 30.568 15.135 30.661 14.892 30.781 14.585 C 30.894 14.272 31.001 13.965 31.101 13.665 C 31.201 13.365 31.288 13.105 31.361 12.885 C 31.441 12.658 31.481 12.528 31.481 12.495 ZM 33.75 21.165 L 34.1 18.945 C 34.12 18.858 34.17 18.708 34.25 18.495 C 34.337 18.275 34.423 18.042 34.51 17.795 C 34.603 17.542 34.693 17.308 34.78 17.095 C 34.86 16.875 34.917 16.725 34.95 16.645 C 35.05 16.378 35.147 16.202 35.24 16.115 C 35.333 16.035 35.503 15.995 35.75 15.995 C 36.017 15.995 36.193 16.085 36.28 16.265 C 36.36 16.452 36.4 16.668 36.4 16.915 C 36.4 17.348 36.337 17.745 36.21 18.105 C 36.09 18.465 35.953 18.825 35.8 19.185 C 35.647 19.538 35.51 19.922 35.39 20.335 C 35.263 20.742 35.2 21.212 35.2 21.745 C 35.2 21.812 35.2 21.908 35.2 22.035 C 35.2 22.155 35.21 22.278 35.23 22.405 C 35.243 22.532 35.277 22.642 35.33 22.735 C 35.377 22.822 35.443 22.865 35.53 22.865 C 35.963 22.865 36.4 22.778 36.84 22.605 C 37.28 22.432 37.713 22.225 38.14 21.985 C 38.567 21.738 38.973 21.472 39.36 21.185 C 39.753 20.892 40.11 20.635 40.43 20.415 C 40.543 20.335 40.63 20.252 40.69 20.165 C 40.75 20.085 40.803 20.008 40.85 19.935 C 40.903 19.855 40.967 19.788 41.04 19.735 C 41.113 19.675 41.233 19.645 41.4 19.645 C 41.62 19.645 41.8 19.692 41.94 19.785 C 42.08 19.872 42.15 20.032 42.15 20.265 C 42.15 20.365 42.147 20.458 42.14 20.545 C 42.133 20.625 42.087 20.698 42 20.765 C 41.987 20.818 41.923 20.885 41.81 20.965 C 41.703 21.052 41.593 21.142 41.48 21.235 C 41.36 21.322 41.25 21.405 41.15 21.485 C 41.05 21.558 40.977 21.602 40.93 21.615 C 40.91 21.615 40.863 21.638 40.79 21.685 C 40.717 21.725 40.67 21.745 40.65 21.745 C 40.637 21.758 40.617 21.778 40.59 21.805 C 40.563 21.832 40.55 21.852 40.55 21.865 C 40.203 22.132 39.823 22.405 39.41 22.685 C 39.003 22.958 38.577 23.208 38.13 23.435 C 37.677 23.655 37.213 23.842 36.74 23.995 C 36.267 24.148 35.797 24.225 35.33 24.225 C 34.93 24.225 34.623 24.118 34.41 23.905 C 34.203 23.698 34.05 23.438 33.95 23.125 C 33.85 22.805 33.793 22.468 33.78 22.115 C 33.76 21.768 33.75 21.452 33.75 21.165 Z M 35.3 12.365 C 35.3 12.065 35.36 11.865 35.48 11.765 C 35.593 11.665 35.8 11.615 36.1 11.615 C 36.253 11.615 36.403 11.645 36.55 11.705 C 36.703 11.765 36.78 11.902 36.78 12.115 C 36.78 12.335 36.673 12.535 36.46 12.715 C 36.253 12.902 36.05 12.995 35.85 12.995 C 35.65 12.995 35.51 12.932 35.43 12.805 C 35.343 12.678 35.3 12.532 35.3 12.365 ZM 43.024 23.445 C 43.024 23.392 43.024 23.265 43.024 23.065 C 43.024 22.865 43.024 22.732 43.024 22.665 C 42.744 21.665 42.707 20.682 42.914 19.715 C 43.12 18.748 43.494 17.878 44.034 17.105 C 44.58 16.332 45.274 15.682 46.114 15.155 C 46.954 14.628 47.874 14.308 48.874 14.195 L 49.324 14.195 C 49.69 14.195 49.994 14.275 50.234 14.435 C 50.48 14.588 50.674 14.792 50.814 15.045 C 50.954 15.292 51.054 15.575 51.114 15.895 C 51.167 16.208 51.194 16.525 51.194 16.845 C 51.194 17.278 51.15 17.698 51.064 18.105 C 50.97 18.512 50.87 18.925 50.764 19.345 C 50.657 19.758 50.557 20.172 50.464 20.585 C 50.37 20.992 50.324 21.418 50.324 21.865 L 50.324 22.015 C 50.344 22.048 50.364 22.145 50.384 22.305 C 50.41 22.465 50.434 22.562 50.454 22.595 C 50.487 22.595 50.567 22.598 50.694 22.605 C 50.834 22.612 50.917 22.615 50.944 22.615 C 51.11 22.615 51.274 22.612 51.434 22.605 C 51.594 22.598 51.757 22.562 51.924 22.495 L 56.674 20.295 C 56.694 20.295 56.724 20.292 56.764 20.285 C 56.804 20.272 56.834 20.265 56.854 20.265 C 57.02 20.265 57.157 20.315 57.264 20.415 C 57.37 20.515 57.424 20.648 57.424 20.815 C 57.424 20.902 57.42 20.982 57.414 21.055 C 57.407 21.128 57.36 21.198 57.274 21.265 C 57.16 21.352 56.947 21.468 56.634 21.615 C 56.327 21.768 56 21.935 55.654 22.115 C 55.3 22.302 54.97 22.478 54.664 22.645 C 54.357 22.812 54.137 22.918 54.004 22.965 C 53.77 23.098 53.51 23.222 53.224 23.335 C 52.944 23.442 52.654 23.545 52.354 23.645 C 52.054 23.745 51.757 23.825 51.464 23.885 C 51.17 23.938 50.907 23.965 50.674 23.965 C 50.307 23.965 50.007 23.905 49.774 23.785 C 49.54 23.658 49.367 23.492 49.254 23.285 C 49.134 23.072 49.054 22.822 49.014 22.535 C 48.974 22.242 48.97 21.935 49.004 21.615 C 48.67 21.882 48.31 22.165 47.924 22.465 C 47.544 22.765 47.144 23.042 46.724 23.295 C 46.31 23.542 45.887 23.758 45.454 23.945 C 45.02 24.132 44.577 24.225 44.124 24.225 C 43.877 24.225 43.654 24.162 43.454 24.035 C 43.254 23.908 43.11 23.712 43.024 23.445 Z M 44.374 22.245 L 44.374 22.915 C 44.76 22.915 45.187 22.805 45.654 22.585 C 46.12 22.358 46.577 22.078 47.024 21.745 C 47.477 21.412 47.887 21.058 48.254 20.685 C 48.62 20.305 48.904 19.965 49.104 19.665 C 49.117 19.165 49.187 18.688 49.314 18.235 C 49.44 17.775 49.504 17.302 49.504 16.815 C 49.504 16.782 49.497 16.732 49.484 16.665 C 49.477 16.598 49.474 16.548 49.474 16.515 C 49.26 16.335 49.077 16.228 48.924 16.195 C 48.777 16.162 48.577 16.145 48.324 16.145 C 48.29 16.145 48.22 16.145 48.114 16.145 C 48.007 16.145 47.937 16.152 47.904 16.165 C 47.804 16.252 47.637 16.408 47.404 16.635 C 47.17 16.855 46.924 17.098 46.664 17.365 C 46.404 17.632 46.16 17.882 45.934 18.115 C 45.714 18.348 45.56 18.508 45.474 18.595 C 45.46 18.595 45.427 18.625 45.374 18.685 C 45.327 18.738 45.274 18.808 45.214 18.895 C 45.154 18.975 45.104 19.055 45.064 19.135 C 45.024 19.208 44.994 19.268 44.974 19.315 L 44.374 22.245 ZM 56.327 23.765 L 56.327 23.695 L 57.167 18.695 L 57.167 17.995 L 57.677 14.665 C 57.723 14.598 57.813 14.562 57.947 14.555 C 58.08 14.548 58.173 14.545 58.227 14.545 C 58.36 14.545 58.513 14.592 58.687 14.685 C 58.86 14.772 58.947 14.892 58.947 15.045 L 58.947 16.745 C 59.013 16.692 59.13 16.592 59.297 16.445 C 59.463 16.292 59.643 16.135 59.837 15.975 C 60.03 15.808 60.21 15.648 60.377 15.495 C 60.543 15.342 60.65 15.232 60.697 15.165 C 60.883 14.998 61.103 14.858 61.357 14.745 C 61.617 14.625 61.863 14.565 62.097 14.565 C 62.583 14.565 62.963 14.715 63.237 15.015 C 63.51 15.322 63.647 15.705 63.647 16.165 C 63.647 16.198 63.643 16.222 63.637 16.235 C 63.63 16.242 63.627 16.262 63.627 16.295 L 63.627 16.395 L 62.677 20.665 L 62.677 22.695 C 63.19 22.695 63.727 22.592 64.287 22.385 C 64.847 22.172 65.383 21.908 65.897 21.595 C 66.417 21.275 66.9 20.912 67.347 20.505 C 67.8 20.098 68.193 19.702 68.527 19.315 L 68.627 19.315 C 68.74 19.315 68.833 19.355 68.907 19.435 C 68.987 19.508 69.027 19.602 69.027 19.715 C 69.027 20.082 68.903 20.445 68.657 20.805 C 68.417 21.165 68.11 21.502 67.737 21.815 C 67.363 22.135 66.93 22.435 66.437 22.715 C 65.943 23.002 65.46 23.245 64.987 23.445 C 64.513 23.645 64.05 23.802 63.597 23.915 C 63.15 24.035 62.767 24.095 62.447 24.095 C 62.133 24.095 61.883 24.035 61.697 23.915 C 61.517 23.802 61.38 23.648 61.287 23.455 C 61.193 23.262 61.133 23.048 61.107 22.815 C 61.087 22.582 61.077 22.332 61.077 22.065 L 61.077 21.745 L 62.047 16.895 L 62.047 16.065 C 61.647 16.065 61.25 16.242 60.857 16.595 C 60.463 16.942 60.113 17.365 59.807 17.865 C 59.5 18.365 59.233 18.875 59.007 19.395 C 58.787 19.908 58.627 20.332 58.527 20.665 C 58.493 20.785 58.44 20.995 58.367 21.295 C 58.307 21.595 58.247 21.912 58.187 22.245 C 58.127 22.578 58.073 22.895 58.027 23.195 C 57.973 23.495 57.94 23.712 57.927 23.845 C 57.94 23.945 57.91 24.018 57.837 24.065 C 57.763 24.118 57.677 24.158 57.577 24.185 C 57.477 24.212 57.37 24.225 57.257 24.225 C 57.15 24.225 57.063 24.225 56.997 24.225 C 56.85 24.225 56.7 24.198 56.547 24.145 C 56.4 24.092 56.327 23.965 56.327 23.765 Z" transform="matrix(1, 0, 0, 1, 0, 0)" style="white-space: pre; vector-effect: non-scaling-stroke;" />
</svg>