<?xml version="1.0" encoding="utf-8"?>
<svg viewBox="0 0 200 199" xmlns="http://www.w3.org/2000/svg">
  <path d="M 184.428 95.532 L 23.589 2.67 C 20.289 0.767 16.168 3.147 16.168 6.954 L 16.168 192.678 C 16.168 196.488 20.289 198.867 23.589 196.962 L 184.428 104.1 C 187.726 102.196 187.728 97.436 184.428 95.532 C 184.428 95.532 184.428 95.532 184.428 95.532 L 23.589 2.67 C 20.289 0.767 16.168 3.147 16.168 6.954 L 16.168 192.678 C 16.168 196.488 20.289 198.867 23.589 196.962 L 184.428 104.1 C 187.726 102.196 187.728 97.436 184.428 95.532 C 184.428 95.532 184.428 95.532 184.428 95.532 Z" style="fill: rgb(34, 40, 49); stroke: rgb(213, 213, 213);" class="play-icon-triangle"/>
  <g transform="matrix(0.529794, 0, 0, 0.529794, -443.565765, -803.261963)" style="">
    <title>Holly</title>
    <path class="holly-leaf" d="M 948.065 1619.071 C 948.756 1619.343 948.942 1619.862 948.913 1620.578 C 948.741 1624.809 949.239 1628.943 950.81 1632.907 C 952.873 1638.109 956.438 1642.094 960.901 1645.351 C 963.765 1647.438 966.85 1649.142 970.048 1650.654 C 971.675 1651.423 971.744 1652.137 970.314 1653.203 C 966.652 1655.94 964.259 1659.609 962.616 1663.805 C 960.301 1669.722 959.622 1675.878 960.03 1682.182 C 960.336 1686.916 961.3 1691.499 963.172 1695.873 C 963.581 1696.827 964.043 1697.756 964.558 1698.658 C 965.104 1699.619 965.009 1700.037 964.103 1700.661 C 959.768 1703.646 955.667 1706.908 951.997 1710.699 C 946.057 1716.83 942.001 1724.093 939.027 1732.021 C 937.919 1734.976 936.923 1737.966 936.037 1740.99 C 935.886 1741.5 935.636 1741.893 935.046 1741.946 C 934.475 1741.997 934.124 1741.717 933.876 1741.225 C 929.138 1731.82 921.788 1725.058 912.569 1720.194 C 908.942 1718.293 905.156 1716.713 901.254 1715.472 C 900.746 1715.309 900.297 1715.099 900 1714.64 L 900 1713.791 C 900.163 1713.451 900.432 1713.171 900.765 1712.994 C 904.565 1710.932 906.803 1707.638 908.137 1703.633 C 909.058 1700.854 909.485 1697.935 909.399 1695.008 C 909.254 1689.726 908.078 1684.697 905.161 1680.189 C 904.185 1678.675 902.959 1677.374 901.569 1676.227 C 901.442 1676.122 901.303 1676.03 901.181 1675.921 C 900.253 1675.101 900.425 1674.037 901.582 1673.616 C 902.739 1673.195 903.902 1672.841 905.004 1672.286 C 910.084 1669.747 913.456 1665.708 915.436 1660.445 C 916.658 1657.2 917.057 1653.822 916.903 1650.379 C 916.804 1648.174 916.082 1646.14 914.952 1644.244 C 914.122 1642.848 913.22 1641.496 912.521 1640.02 C 912.185 1639.311 911.922 1638.589 911.967 1637.783 C 912.017 1636.909 912.462 1636.453 913.346 1636.423 C 914.873 1636.376 916.399 1636.413 917.931 1636.303 C 921.72 1636.03 925.388 1635.251 928.924 1633.874 C 933.073 1632.258 936.754 1629.898 940.063 1626.913 C 942.421 1624.786 944.477 1622.412 946.412 1619.917 C 946.708 1619.536 947.018 1619.208 947.497 1619.076 Z" style="fill: rgb(7, 153, 146);"/>
    <path class="holly-leaf" d="M 1040.947 1751.191 C 1040.917 1752.456 1041.071 1753.884 1041.239 1755.312 C 1041.295 1755.79 1041.201 1756.205 1040.761 1756.476 C 1040.32 1756.746 1039.922 1756.653 1039.496 1756.426 C 1028.946 1750.685 1018.855 1751.822 1009.371 1758.774 C 1003.159 1763.327 999.496 1769.59 998.349 1777.263 C 998.267 1777.808 998.181 1778.352 997.537 1778.542 C 996.873 1778.739 996.489 1778.356 996.107 1777.898 C 988.892 1769.251 980.359 1762.253 970.219 1757.28 C 965.207 1754.822 959.985 1752.987 954.438 1752.177 C 952.972 1751.95 951.49 1751.836 950.005 1751.838 C 949.36 1751.844 948.742 1751.822 948.508 1751.085 C 948.274 1750.348 948.764 1749.965 949.271 1749.578 C 953.497 1746.352 957.415 1742.798 960.833 1738.712 C 966.365 1732.098 970.148 1724.639 971.578 1716.091 C 972.081 1713.089 972.039 1710.038 971.886 1706.998 C 971.723 1703.87 971.329 1700.758 970.705 1697.689 C 970.484 1696.586 971.137 1696.058 972.327 1696.321 C 976.899 1697.334 981.524 1697.868 986.207 1697.658 C 1001.027 1696.997 1012.366 1690.306 1020.307 1677.819 C 1022.734 1674.006 1024.511 1669.882 1025.83 1665.561 C 1025.939 1665.206 1026.007 1664.826 1026.329 1664.57 C 1026.821 1664.177 1027.507 1664.23 1027.881 1664.785 C 1031.667 1670.401 1037.279 1673.208 1043.584 1674.803 C 1052.508 1677.061 1061.394 1676.877 1070.165 1673.932 C 1071.01 1673.648 1071.828 1673.279 1072.647 1672.928 C 1073.14 1672.718 1073.572 1672.778 1073.939 1673.159 C 1074.306 1673.54 1074.336 1673.998 1074.084 1674.46 C 1071.131 1679.878 1070.049 1685.766 1069.74 1691.842 C 1069.325 1700.107 1070.349 1708.191 1072.882 1716.075 C 1073.426 1717.779 1074.099 1719.439 1074.895 1721.04 C 1075.139 1721.528 1075.228 1721.969 1074.864 1722.417 C 1074.499 1722.865 1074.045 1722.86 1073.519 1722.738 C 1065.764 1720.965 1058.577 1722.159 1052.206 1727.068 C 1046.521 1731.448 1043.207 1737.352 1041.656 1744.288 C 1041.155 1746.554 1040.917 1748.87 1040.947 1751.191 Z" style="fill: rgb(7, 153, 146);"/>
    <path class="holly-balls" d="M 919.799 1768.977 C 912.055 1768.989 905.783 1762.693 905.823 1754.95 C 905.85 1747.237 912.129 1741.013 919.851 1741.036 C 927.567 1741.046 933.81 1747.316 933.786 1755.031 C 933.788 1762.734 927.529 1768.975 919.799 1768.977 Z" style="fill: rgb(224, 36, 49);"/>
    <path class="holly-balls" d="M 916.101 1772.031 C 923.777 1772.023 930.052 1778.273 930.071 1785.951 C 930.09 1793.69 923.79 1800.011 916.07 1800 C 908.4 1799.99 902.122 1793.72 902.11 1786.058 C 902.067 1778.307 908.35 1772.008 916.101 1772.031 Z" style="fill: rgb(224, 36, 49);"/>
    <path class="holly-balls" d="M 959.749 1773.485 C 959.776 1781.182 953.521 1787.453 945.792 1787.476 C 938.13 1787.499 931.824 1781.279 931.802 1773.674 C 931.779 1765.832 937.925 1759.578 945.67 1759.554 C 953.461 1759.529 959.719 1765.721 959.749 1773.485 Z" style="fill: rgb(224, 36, 49);"/>
    <path class="holly-leaf-center" d="M 926.986 1692.993 C 927.275 1690.313 927.055 1687.794 927.282 1685.287 C 927.8 1679.544 928.612 1673.85 930.112 1668.276 C 931.216 1664.165 932.584 1660.148 934.334 1656.262 C 935.044 1654.694 935.842 1653.177 936.592 1651.632 C 936.845 1651.111 937.263 1650.932 937.812 1651.03 C 938.313 1651.119 938.568 1651.45 938.69 1651.926 C 938.757 1652.184 938.634 1652.393 938.56 1652.605 C 936.841 1657.482 935.646 1662.5 934.677 1667.567 C 934.08 1670.69 933.613 1673.836 933.201 1676.992 C 932.831 1679.869 932.55 1682.755 932.25 1685.638 C 932.093 1687.152 932.059 1688.677 931.943 1690.196 C 931.716 1693.167 931.597 1696.142 931.485 1699.12 C 931.438 1700.361 931.447 1701.608 931.379 1702.849 C 931.212 1705.928 931.242 1709.009 931.249 1712.09 C 931.249 1712.745 931.19 1713.403 931.363 1714.055 C 931.44 1714.347 931.369 1714.652 931.238 1714.947 C 931.019 1715.446 930.657 1715.678 930.125 1715.618 C 929.566 1715.555 929.222 1715.221 929.133 1714.673 C 928.64 1711.649 928.129 1708.631 927.823 1705.578 C 927.599 1703.341 927.434 1701.102 927.244 1698.863 C 927.072 1696.845 927.364 1694.819 926.986 1692.993 Z" style="fill: rgb(3, 55, 53);"/>
    <path class="holly-leaf-center" d="M 980.458 1742.491 C 979.894 1742.454 979.527 1742.217 979.374 1741.745 C 979.207 1741.234 979.285 1740.77 979.802 1740.463 C 981.214 1739.62 982.628 1738.779 984.031 1737.926 C 988.464 1735.225 992.894 1732.52 997.32 1729.812 C 1003.68 1725.94 1009.961 1721.941 1016.199 1717.876 C 1020.548 1715.039 1024.868 1712.159 1029.158 1709.236 C 1035.548 1704.903 1041.824 1700.408 1047.987 1695.752 C 1049.652 1694.495 1051.267 1693.17 1052.9 1691.87 C 1053.841 1691.121 1054.723 1691.289 1055 1692.268 C 1055.139 1692.758 1054.862 1693.093 1054.593 1693.401 C 1053.96 1694.126 1053.298 1694.828 1052.629 1695.521 C 1051.078 1697.13 1049.568 1698.784 1047.947 1700.321 C 1045.24 1702.892 1042.499 1705.421 1039.65 1707.838 C 1036.268 1710.707 1032.794 1713.458 1029.229 1716.092 C 1024.911 1719.262 1020.468 1722.247 1015.898 1725.047 C 1011.265 1727.884 1006.531 1730.538 1001.696 1733.011 C 997.928 1734.946 994.095 1736.73 990.23 1738.456 C 987.162 1739.827 984.044 1741.072 980.921 1742.317 C 980.752 1742.383 980.576 1742.446 980.458 1742.491 Z" style="fill: rgb(3, 55, 53);"/>
  </g>
</svg>